ISO-10303-21;
HEADER;
/* Generated by software containing ST-Developer
 * from STEP Tools, Inc. (www.steptools.com) 
 */
/* OPTION: using custom renumber hook */

FILE_DESCRIPTION(
/* description */ ('STEP AP242 Edition 2',
'CAx-IF Rec.Pracs.---Representation and Presentation of Product Manufa
cturing Information (PMI)---4.0---2014-10-13',
'CAx-IF Rec.Pracs.---3D Tessellated Geometry---0.4---2014-09-14','2;1',
'CAx-IF Rec.Pracs.---User Defined Attributes---1.5---2016-08-15'),
/* implementation_level */ '2;1');

FILE_NAME(
/* name */ 'arm-v1 - arm',
/* time_stamp */ '2026-05-28T02:25:38Z',
/* author */ (''),
/* organization */ (''),
/* preprocessor_version */ 'ST-DEVELOPER v20',
/* originating_system */ 'ONSHAPE BY PTC INC, 1.215',
/* authorisation */ '  ');

FILE_SCHEMA (('AP242_MANAGED_MODEL_BASED_3D_ENGINEERING_MIM_LF { 1 0 10303 442 3 1 4 }'));
ENDSEC;

DATA;
#10=SHAPE_REPRESENTATION_RELATIONSHIP('','',#1311,#11);
#11=ADVANCED_BREP_SHAPE_REPRESENTATION('',(#1309),#2192);
#12=ELLIPSE('',#1408,0.00149120835796474,0.00127);
#13=ELLIPSE('',#1409,0.00149120835796474,0.00127);
#14=ELLIPSE('',#1411,0.00149120835796474,0.00127);
#15=ELLIPSE('',#1412,0.00149120835796474,0.00127);
#16=ELLIPSE('',#1416,0.00286740470907491,0.0028575);
#17=ELLIPSE('',#1417,0.0152928251150662,0.00127);
#18=ELLIPSE('',#1418,0.0152928251150662,0.00127);
#19=ELLIPSE('',#1420,0.00286740470907491,0.0028575);
#20=ELLIPSE('',#1421,0.0152928251150662,0.00127);
#21=ELLIPSE('',#1422,0.0152928251150662,0.00127);
#22=CYLINDRICAL_SURFACE('',#1329,0.00635);
#23=CYLINDRICAL_SURFACE('',#1365,0.00254);
#24=CYLINDRICAL_SURFACE('',#1369,0.00254);
#25=CYLINDRICAL_SURFACE('',#1372,0.0060325);
#26=CYLINDRICAL_SURFACE('',#1374,0.0060325);
#27=CYLINDRICAL_SURFACE('',#1396,0.00635);
#28=CYLINDRICAL_SURFACE('',#1397,0.00635);
#29=CYLINDRICAL_SURFACE('',#1398,0.00635);
#30=CYLINDRICAL_SURFACE('',#1399,0.00635);
#31=CYLINDRICAL_SURFACE('',#1400,0.00635);
#32=CYLINDRICAL_SURFACE('',#1401,0.00635);
#33=CYLINDRICAL_SURFACE('',#1402,0.00635);
#34=CYLINDRICAL_SURFACE('',#1403,0.0014605);
#35=CYLINDRICAL_SURFACE('',#1404,0.0014605);
#36=CYLINDRICAL_SURFACE('',#1405,0.0014605);
#37=CYLINDRICAL_SURFACE('',#1406,0.0014605);
#38=CYLINDRICAL_SURFACE('',#1423,0.00635);
#39=CYLINDRICAL_SURFACE('',#1424,0.00635);
#40=CYLINDRICAL_SURFACE('',#1425,0.00635);
#41=CYLINDRICAL_SURFACE('',#1426,0.00635);
#42=CYLINDRICAL_SURFACE('',#1427,0.00635);
#43=CYLINDRICAL_SURFACE('',#1428,0.0028575);
#44=CYLINDRICAL_SURFACE('',#1431,0.00381);
#45=CYLINDRICAL_SURFACE('',#1434,0.00127);
#46=CYLINDRICAL_SURFACE('',#1435,0.00127);
#47=CYLINDRICAL_SURFACE('',#1436,0.00127);
#48=CYLINDRICAL_SURFACE('',#1437,0.00127);
#49=CYLINDRICAL_SURFACE('',#1438,0.00127);
#50=CYLINDRICAL_SURFACE('',#1439,0.00127);
#51=CIRCLE('',#1315,0.0014605);
#52=CIRCLE('',#1316,0.00635);
#53=CIRCLE('',#1317,0.00635);
#54=CIRCLE('',#1318,0.00635);
#55=CIRCLE('',#1320,0.0014605);
#56=CIRCLE('',#1321,0.0014605);
#57=CIRCLE('',#1322,0.00635);
#58=CIRCLE('',#1323,0.00635);
#59=CIRCLE('',#1324,0.00635);
#60=CIRCLE('',#1325,0.00635);
#61=CIRCLE('',#1326,0.00635);
#62=CIRCLE('',#1327,0.0028575);
#63=CIRCLE('',#1328,0.00635);
#64=CIRCLE('',#1340,0.00127);
#65=CIRCLE('',#1341,0.00127);
#66=CIRCLE('',#1342,0.00635);
#67=CIRCLE('',#1344,0.00254);
#68=CIRCLE('',#1345,0.0060325);
#69=CIRCLE('',#1346,0.00254);
#70=CIRCLE('',#1347,0.0060325);
#71=CIRCLE('',#1348,0.00254);
#72=CIRCLE('',#1349,0.00635);
#73=CIRCLE('',#1351,0.00635);
#74=CIRCLE('',#1352,0.00635);
#75=CIRCLE('',#1353,0.00635);
#76=CIRCLE('',#1354,0.0014605);
#77=CIRCLE('',#1356,0.0014605);
#78=CIRCLE('',#1357,0.0014605);
#79=CIRCLE('',#1358,0.00635);
#80=CIRCLE('',#1359,0.00635);
#81=CIRCLE('',#1360,0.00635);
#82=CIRCLE('',#1361,0.00635);
#83=CIRCLE('',#1362,0.00635);
#84=CIRCLE('',#1363,0.00635);
#85=CIRCLE('',#1366,0.00254);
#86=CIRCLE('',#1370,0.00254);
#87=CIRCLE('',#1373,0.0060325);
#88=CIRCLE('',#1375,0.0060325);
#89=CIRCLE('',#1377,0.00127);
#90=CIRCLE('',#1378,0.00127);
#91=CIRCLE('',#1379,0.00381);
#92=CIRCLE('',#1386,0.0028575);
#93=CIRCLE('',#1387,0.00635);
#94=CIRCLE('',#1388,0.00635);
#95=CIRCLE('',#1389,0.0014605);
#96=CIRCLE('',#1390,0.0014605);
#97=CIRCLE('',#1391,0.00635);
#98=CIRCLE('',#1392,0.00635);
#99=CIRCLE('',#1393,0.00635);
#100=CIRCLE('',#1394,0.00635);
#101=CIRCLE('',#1432,0.00381);
#102=ORIENTED_EDGE('',*,*,#466,.F.);
#103=ORIENTED_EDGE('',*,*,#467,.F.);
#104=ORIENTED_EDGE('',*,*,#468,.T.);
#105=ORIENTED_EDGE('',*,*,#469,.F.);
#106=ORIENTED_EDGE('',*,*,#470,.F.);
#107=ORIENTED_EDGE('',*,*,#471,.T.);
#108=ORIENTED_EDGE('',*,*,#472,.T.);
#109=ORIENTED_EDGE('',*,*,#473,.T.);
#110=ORIENTED_EDGE('',*,*,#474,.T.);
#111=ORIENTED_EDGE('',*,*,#475,.T.);
#112=ORIENTED_EDGE('',*,*,#476,.T.);
#113=ORIENTED_EDGE('',*,*,#477,.T.);
#114=ORIENTED_EDGE('',*,*,#469,.T.);
#115=ORIENTED_EDGE('',*,*,#478,.T.);
#116=ORIENTED_EDGE('',*,*,#479,.F.);
#117=ORIENTED_EDGE('',*,*,#480,.T.);
#118=ORIENTED_EDGE('',*,*,#481,.T.);
#119=ORIENTED_EDGE('',*,*,#482,.T.);
#120=ORIENTED_EDGE('',*,*,#483,.F.);
#121=ORIENTED_EDGE('',*,*,#484,.T.);
#122=ORIENTED_EDGE('',*,*,#485,.T.);
#123=ORIENTED_EDGE('',*,*,#486,.T.);
#124=ORIENTED_EDGE('',*,*,#487,.T.);
#125=ORIENTED_EDGE('',*,*,#488,.T.);
#126=ORIENTED_EDGE('',*,*,#489,.F.);
#127=ORIENTED_EDGE('',*,*,#490,.T.);
#128=ORIENTED_EDGE('',*,*,#491,.T.);
#129=ORIENTED_EDGE('',*,*,#492,.T.);
#130=ORIENTED_EDGE('',*,*,#493,.T.);
#131=ORIENTED_EDGE('',*,*,#494,.T.);
#132=ORIENTED_EDGE('',*,*,#495,.F.);
#133=ORIENTED_EDGE('',*,*,#496,.T.);
#134=ORIENTED_EDGE('',*,*,#497,.F.);
#135=ORIENTED_EDGE('',*,*,#498,.T.);
#136=ORIENTED_EDGE('',*,*,#499,.T.);
#137=ORIENTED_EDGE('',*,*,#467,.T.);
#138=ORIENTED_EDGE('',*,*,#500,.F.);
#139=ORIENTED_EDGE('',*,*,#476,.F.);
#140=ORIENTED_EDGE('',*,*,#501,.F.);
#141=ORIENTED_EDGE('',*,*,#484,.F.);
#142=ORIENTED_EDGE('',*,*,#502,.F.);
#143=ORIENTED_EDGE('',*,*,#503,.F.);
#144=ORIENTED_EDGE('',*,*,#504,.F.);
#145=ORIENTED_EDGE('',*,*,#497,.T.);
#146=ORIENTED_EDGE('',*,*,#492,.F.);
#147=ORIENTED_EDGE('',*,*,#505,.T.);
#148=ORIENTED_EDGE('',*,*,#506,.F.);
#149=ORIENTED_EDGE('',*,*,#507,.T.);
#150=ORIENTED_EDGE('',*,*,#508,.T.);
#151=ORIENTED_EDGE('',*,*,#509,.T.);
#152=ORIENTED_EDGE('',*,*,#510,.F.);
#153=ORIENTED_EDGE('',*,*,#511,.T.);
#154=ORIENTED_EDGE('',*,*,#479,.T.);
#155=ORIENTED_EDGE('',*,*,#512,.T.);
#156=ORIENTED_EDGE('',*,*,#498,.F.);
#157=ORIENTED_EDGE('',*,*,#504,.T.);
#158=ORIENTED_EDGE('',*,*,#513,.T.);
#159=ORIENTED_EDGE('',*,*,#514,.T.);
#160=ORIENTED_EDGE('',*,*,#515,.T.);
#161=ORIENTED_EDGE('',*,*,#516,.T.);
#162=ORIENTED_EDGE('',*,*,#517,.T.);
#163=ORIENTED_EDGE('',*,*,#518,.T.);
#164=ORIENTED_EDGE('',*,*,#519,.F.);
#165=ORIENTED_EDGE('',*,*,#520,.T.);
#166=ORIENTED_EDGE('',*,*,#521,.F.);
#167=ORIENTED_EDGE('',*,*,#522,.T.);
#168=ORIENTED_EDGE('',*,*,#523,.F.);
#169=ORIENTED_EDGE('',*,*,#524,.T.);
#170=ORIENTED_EDGE('',*,*,#525,.F.);
#171=ORIENTED_EDGE('',*,*,#526,.T.);
#172=ORIENTED_EDGE('',*,*,#527,.T.);
#173=ORIENTED_EDGE('',*,*,#528,.T.);
#174=ORIENTED_EDGE('',*,*,#529,.T.);
#175=ORIENTED_EDGE('',*,*,#530,.T.);
#176=ORIENTED_EDGE('',*,*,#531,.F.);
#177=ORIENTED_EDGE('',*,*,#532,.T.);
#178=ORIENTED_EDGE('',*,*,#533,.T.);
#179=ORIENTED_EDGE('',*,*,#534,.T.);
#180=ORIENTED_EDGE('',*,*,#535,.F.);
#181=ORIENTED_EDGE('',*,*,#536,.T.);
#182=ORIENTED_EDGE('',*,*,#537,.T.);
#183=ORIENTED_EDGE('',*,*,#538,.T.);
#184=ORIENTED_EDGE('',*,*,#539,.F.);
#185=ORIENTED_EDGE('',*,*,#540,.F.);
#186=ORIENTED_EDGE('',*,*,#541,.T.);
#187=ORIENTED_EDGE('',*,*,#542,.T.);
#188=ORIENTED_EDGE('',*,*,#543,.T.);
#189=ORIENTED_EDGE('',*,*,#533,.F.);
#190=ORIENTED_EDGE('',*,*,#544,.T.);
#191=ORIENTED_EDGE('',*,*,#535,.T.);
#192=ORIENTED_EDGE('',*,*,#545,.T.);
#193=ORIENTED_EDGE('',*,*,#546,.T.);
#194=ORIENTED_EDGE('',*,*,#547,.T.);
#195=ORIENTED_EDGE('',*,*,#548,.T.);
#196=ORIENTED_EDGE('',*,*,#549,.T.);
#197=ORIENTED_EDGE('',*,*,#550,.F.);
#198=ORIENTED_EDGE('',*,*,#551,.T.);
#199=ORIENTED_EDGE('',*,*,#552,.T.);
#200=ORIENTED_EDGE('',*,*,#553,.F.);
#201=ORIENTED_EDGE('',*,*,#554,.T.);
#202=ORIENTED_EDGE('',*,*,#555,.T.);
#203=ORIENTED_EDGE('',*,*,#556,.F.);
#204=ORIENTED_EDGE('',*,*,#557,.F.);
#205=ORIENTED_EDGE('',*,*,#558,.F.);
#206=ORIENTED_EDGE('',*,*,#559,.T.);
#207=ORIENTED_EDGE('',*,*,#560,.T.);
#208=ORIENTED_EDGE('',*,*,#561,.T.);
#209=ORIENTED_EDGE('',*,*,#537,.F.);
#210=ORIENTED_EDGE('',*,*,#562,.T.);
#211=ORIENTED_EDGE('',*,*,#531,.T.);
#212=ORIENTED_EDGE('',*,*,#563,.T.);
#213=ORIENTED_EDGE('',*,*,#564,.T.);
#214=ORIENTED_EDGE('',*,*,#565,.T.);
#215=ORIENTED_EDGE('',*,*,#566,.T.);
#216=ORIENTED_EDGE('',*,*,#567,.T.);
#217=ORIENTED_EDGE('',*,*,#568,.T.);
#218=ORIENTED_EDGE('',*,*,#506,.T.);
#219=ORIENTED_EDGE('',*,*,#569,.F.);
#220=ORIENTED_EDGE('',*,*,#570,.T.);
#221=ORIENTED_EDGE('',*,*,#571,.F.);
#222=ORIENTED_EDGE('',*,*,#572,.T.);
#223=ORIENTED_EDGE('',*,*,#573,.F.);
#224=ORIENTED_EDGE('',*,*,#574,.T.);
#225=ORIENTED_EDGE('',*,*,#575,.T.);
#226=ORIENTED_EDGE('',*,*,#515,.F.);
#227=ORIENTED_EDGE('',*,*,#576,.T.);
#228=ORIENTED_EDGE('',*,*,#577,.T.);
#229=ORIENTED_EDGE('',*,*,#578,.T.);
#230=ORIENTED_EDGE('',*,*,#510,.T.);
#231=ORIENTED_EDGE('',*,*,#579,.T.);
#232=ORIENTED_EDGE('',*,*,#580,.F.);
#233=ORIENTED_EDGE('',*,*,#581,.T.);
#234=ORIENTED_EDGE('',*,*,#582,.F.);
#235=ORIENTED_EDGE('',*,*,#583,.T.);
#236=ORIENTED_EDGE('',*,*,#584,.T.);
#237=ORIENTED_EDGE('',*,*,#585,.T.);
#238=ORIENTED_EDGE('',*,*,#513,.F.);
#239=ORIENTED_EDGE('',*,*,#586,.T.);
#240=ORIENTED_EDGE('',*,*,#519,.T.);
#241=ORIENTED_EDGE('',*,*,#587,.T.);
#242=ORIENTED_EDGE('',*,*,#525,.T.);
#243=ORIENTED_EDGE('',*,*,#588,.T.);
#244=ORIENTED_EDGE('',*,*,#529,.F.);
#245=ORIENTED_EDGE('',*,*,#589,.T.);
#246=ORIENTED_EDGE('',*,*,#553,.T.);
#247=ORIENTED_EDGE('',*,*,#590,.F.);
#248=ORIENTED_EDGE('',*,*,#591,.F.);
#249=ORIENTED_EDGE('',*,*,#592,.T.);
#250=ORIENTED_EDGE('',*,*,#554,.F.);
#251=ORIENTED_EDGE('',*,*,#592,.F.);
#252=ORIENTED_EDGE('',*,*,#593,.T.);
#253=ORIENTED_EDGE('',*,*,#594,.T.);
#254=ORIENTED_EDGE('',*,*,#555,.F.);
#255=ORIENTED_EDGE('',*,*,#594,.F.);
#256=ORIENTED_EDGE('',*,*,#595,.T.);
#257=ORIENTED_EDGE('',*,*,#596,.T.);
#258=ORIENTED_EDGE('',*,*,#551,.F.);
#259=ORIENTED_EDGE('',*,*,#597,.F.);
#260=ORIENTED_EDGE('',*,*,#598,.T.);
#261=ORIENTED_EDGE('',*,*,#599,.T.);
#262=ORIENTED_EDGE('',*,*,#550,.T.);
#263=ORIENTED_EDGE('',*,*,#558,.T.);
#264=ORIENTED_EDGE('',*,*,#600,.F.);
#265=ORIENTED_EDGE('',*,*,#601,.F.);
#266=ORIENTED_EDGE('',*,*,#597,.T.);
#267=ORIENTED_EDGE('',*,*,#557,.T.);
#268=ORIENTED_EDGE('',*,*,#602,.F.);
#269=ORIENTED_EDGE('',*,*,#603,.F.);
#270=ORIENTED_EDGE('',*,*,#600,.T.);
#271=ORIENTED_EDGE('',*,*,#556,.T.);
#272=ORIENTED_EDGE('',*,*,#596,.F.);
#273=ORIENTED_EDGE('',*,*,#604,.F.);
#274=ORIENTED_EDGE('',*,*,#602,.T.);
#275=ORIENTED_EDGE('',*,*,#552,.F.);
#276=ORIENTED_EDGE('',*,*,#599,.F.);
#277=ORIENTED_EDGE('',*,*,#605,.T.);
#278=ORIENTED_EDGE('',*,*,#590,.T.);
#279=ORIENTED_EDGE('',*,*,#606,.F.);
#280=ORIENTED_EDGE('',*,*,#607,.F.);
#281=ORIENTED_EDGE('',*,*,#608,.F.);
#282=ORIENTED_EDGE('',*,*,#598,.F.);
#283=ORIENTED_EDGE('',*,*,#601,.T.);
#284=ORIENTED_EDGE('',*,*,#603,.T.);
#285=ORIENTED_EDGE('',*,*,#604,.T.);
#286=ORIENTED_EDGE('',*,*,#595,.F.);
#287=ORIENTED_EDGE('',*,*,#593,.F.);
#288=ORIENTED_EDGE('',*,*,#591,.T.);
#289=ORIENTED_EDGE('',*,*,#605,.F.);
#290=ORIENTED_EDGE('',*,*,#494,.F.);
#291=ORIENTED_EDGE('',*,*,#609,.T.);
#292=ORIENTED_EDGE('',*,*,#567,.F.);
#293=ORIENTED_EDGE('',*,*,#610,.T.);
#294=ORIENTED_EDGE('',*,*,#582,.T.);
#295=ORIENTED_EDGE('',*,*,#611,.T.);
#296=ORIENTED_EDGE('',*,*,#612,.T.);
#297=ORIENTED_EDGE('',*,*,#613,.T.);
#298=ORIENTED_EDGE('',*,*,#614,.T.);
#299=ORIENTED_EDGE('',*,*,#615,.T.);
#300=ORIENTED_EDGE('',*,*,#580,.T.);
#301=ORIENTED_EDGE('',*,*,#616,.T.);
#302=ORIENTED_EDGE('',*,*,#473,.F.);
#303=ORIENTED_EDGE('',*,*,#617,.T.);
#304=ORIENTED_EDGE('',*,*,#563,.F.);
#305=ORIENTED_EDGE('',*,*,#618,.T.);
#306=ORIENTED_EDGE('',*,*,#487,.F.);
#307=ORIENTED_EDGE('',*,*,#619,.T.);
#308=ORIENTED_EDGE('',*,*,#489,.T.);
#309=ORIENTED_EDGE('',*,*,#620,.T.);
#310=ORIENTED_EDGE('',*,*,#571,.T.);
#311=ORIENTED_EDGE('',*,*,#621,.T.);
#312=ORIENTED_EDGE('',*,*,#475,.F.);
#313=ORIENTED_EDGE('',*,*,#622,.T.);
#314=ORIENTED_EDGE('',*,*,#485,.F.);
#315=ORIENTED_EDGE('',*,*,#501,.T.);
#316=ORIENTED_EDGE('',*,*,#623,.F.);
#317=ORIENTED_EDGE('',*,*,#624,.T.);
#318=ORIENTED_EDGE('',*,*,#612,.F.);
#319=ORIENTED_EDGE('',*,*,#625,.T.);
#320=ORIENTED_EDGE('',*,*,#614,.F.);
#321=ORIENTED_EDGE('',*,*,#626,.T.);
#322=ORIENTED_EDGE('',*,*,#508,.F.);
#323=ORIENTED_EDGE('',*,*,#503,.T.);
#324=ORIENTED_EDGE('',*,*,#627,.F.);
#325=ORIENTED_EDGE('',*,*,#628,.F.);
#326=ORIENTED_EDGE('',*,*,#527,.F.);
#327=ORIENTED_EDGE('',*,*,#629,.T.);
#328=ORIENTED_EDGE('',*,*,#523,.T.);
#329=ORIENTED_EDGE('',*,*,#630,.T.);
#330=ORIENTED_EDGE('',*,*,#521,.T.);
#331=ORIENTED_EDGE('',*,*,#631,.T.);
#332=ORIENTED_EDGE('',*,*,#517,.F.);
#333=ORIENTED_EDGE('',*,*,#632,.T.);
#334=ORIENTED_EDGE('',*,*,#633,.F.);
#335=ORIENTED_EDGE('',*,*,#495,.T.);
#336=ORIENTED_EDGE('',*,*,#613,.F.);
#337=ORIENTED_EDGE('',*,*,#624,.F.);
#338=ORIENTED_EDGE('',*,*,#486,.F.);
#339=ORIENTED_EDGE('',*,*,#622,.F.);
#340=ORIENTED_EDGE('',*,*,#474,.F.);
#341=ORIENTED_EDGE('',*,*,#619,.F.);
#342=ORIENTED_EDGE('',*,*,#589,.F.);
#343=ORIENTED_EDGE('',*,*,#528,.F.);
#344=ORIENTED_EDGE('',*,*,#632,.F.);
#345=ORIENTED_EDGE('',*,*,#516,.F.);
#346=ORIENTED_EDGE('',*,*,#488,.F.);
#347=ORIENTED_EDGE('',*,*,#618,.F.);
#348=ORIENTED_EDGE('',*,*,#572,.F.);
#349=ORIENTED_EDGE('',*,*,#620,.F.);
#350=ORIENTED_EDGE('',*,*,#586,.F.);
#351=ORIENTED_EDGE('',*,*,#518,.F.);
#352=ORIENTED_EDGE('',*,*,#631,.F.);
#353=ORIENTED_EDGE('',*,*,#520,.F.);
#354=ORIENTED_EDGE('',*,*,#588,.F.);
#355=ORIENTED_EDGE('',*,*,#524,.F.);
#356=ORIENTED_EDGE('',*,*,#629,.F.);
#357=ORIENTED_EDGE('',*,*,#530,.F.);
#358=ORIENTED_EDGE('',*,*,#587,.F.);
#359=ORIENTED_EDGE('',*,*,#522,.F.);
#360=ORIENTED_EDGE('',*,*,#630,.F.);
#361=ORIENTED_EDGE('',*,*,#526,.F.);
#362=ORIENTED_EDGE('',*,*,#570,.F.);
#363=ORIENTED_EDGE('',*,*,#634,.T.);
#364=ORIENTED_EDGE('',*,*,#490,.F.);
#365=ORIENTED_EDGE('',*,*,#621,.F.);
#366=ORIENTED_EDGE('',*,*,#470,.T.);
#367=ORIENTED_EDGE('',*,*,#481,.F.);
#368=ORIENTED_EDGE('',*,*,#573,.T.);
#369=ORIENTED_EDGE('',*,*,#482,.F.);
#370=ORIENTED_EDGE('',*,*,#628,.T.);
#371=ORIENTED_EDGE('',*,*,#575,.F.);
#372=ORIENTED_EDGE('',*,*,#627,.T.);
#373=ORIENTED_EDGE('',*,*,#574,.F.);
#374=ORIENTED_EDGE('',*,*,#471,.F.);
#375=ORIENTED_EDGE('',*,*,#635,.F.);
#376=ORIENTED_EDGE('',*,*,#577,.F.);
#377=ORIENTED_EDGE('',*,*,#636,.T.);
#378=ORIENTED_EDGE('',*,*,#559,.F.);
#379=ORIENTED_EDGE('',*,*,#549,.F.);
#380=ORIENTED_EDGE('',*,*,#637,.T.);
#381=ORIENTED_EDGE('',*,*,#565,.F.);
#382=ORIENTED_EDGE('',*,*,#638,.T.);
#383=ORIENTED_EDGE('',*,*,#541,.F.);
#384=ORIENTED_EDGE('',*,*,#639,.T.);
#385=ORIENTED_EDGE('',*,*,#584,.F.);
#386=ORIENTED_EDGE('',*,*,#640,.F.);
#387=ORIENTED_EDGE('',*,*,#480,.F.);
#388=ORIENTED_EDGE('',*,*,#511,.F.);
#389=ORIENTED_EDGE('',*,*,#578,.F.);
#390=ORIENTED_EDGE('',*,*,#635,.T.);
#391=ORIENTED_EDGE('',*,*,#566,.F.);
#392=ORIENTED_EDGE('',*,*,#640,.T.);
#393=ORIENTED_EDGE('',*,*,#583,.F.);
#394=ORIENTED_EDGE('',*,*,#610,.F.);
#395=ORIENTED_EDGE('',*,*,#641,.F.);
#396=ORIENTED_EDGE('',*,*,#543,.F.);
#397=ORIENTED_EDGE('',*,*,#642,.T.);
#398=ORIENTED_EDGE('',*,*,#617,.F.);
#399=ORIENTED_EDGE('',*,*,#643,.T.);
#400=ORIENTED_EDGE('',*,*,#547,.F.);
#401=ORIENTED_EDGE('',*,*,#534,.F.);
#402=ORIENTED_EDGE('',*,*,#644,.F.);
#403=ORIENTED_EDGE('',*,*,#545,.F.);
#404=ORIENTED_EDGE('',*,*,#538,.F.);
#405=ORIENTED_EDGE('',*,*,#561,.F.);
#406=ORIENTED_EDGE('',*,*,#645,.T.);
#407=ORIENTED_EDGE('',*,*,#514,.F.);
#408=ORIENTED_EDGE('',*,*,#646,.T.);
#409=ORIENTED_EDGE('',*,*,#562,.F.);
#410=ORIENTED_EDGE('',*,*,#536,.F.);
#411=ORIENTED_EDGE('',*,*,#544,.F.);
#412=ORIENTED_EDGE('',*,*,#532,.F.);
#413=ORIENTED_EDGE('',*,*,#568,.F.);
#414=ORIENTED_EDGE('',*,*,#609,.F.);
#415=ORIENTED_EDGE('',*,*,#493,.F.);
#416=ORIENTED_EDGE('',*,*,#507,.F.);
#417=ORIENTED_EDGE('',*,*,#625,.F.);
#418=ORIENTED_EDGE('',*,*,#611,.F.);
#419=ORIENTED_EDGE('',*,*,#581,.F.);
#420=ORIENTED_EDGE('',*,*,#615,.F.);
#421=ORIENTED_EDGE('',*,*,#626,.F.);
#422=ORIENTED_EDGE('',*,*,#616,.F.);
#423=ORIENTED_EDGE('',*,*,#579,.F.);
#424=ORIENTED_EDGE('',*,*,#509,.F.);
#425=ORIENTED_EDGE('',*,*,#478,.F.);
#426=ORIENTED_EDGE('',*,*,#468,.F.);
#427=ORIENTED_EDGE('',*,*,#499,.F.);
#428=ORIENTED_EDGE('',*,*,#512,.F.);
#429=ORIENTED_EDGE('',*,*,#502,.T.);
#430=ORIENTED_EDGE('',*,*,#496,.F.);
#431=ORIENTED_EDGE('',*,*,#633,.T.);
#432=ORIENTED_EDGE('',*,*,#623,.T.);
#433=ORIENTED_EDGE('',*,*,#641,.T.);
#434=ORIENTED_EDGE('',*,*,#644,.T.);
#435=ORIENTED_EDGE('',*,*,#491,.F.);
#436=ORIENTED_EDGE('',*,*,#634,.F.);
#437=ORIENTED_EDGE('',*,*,#569,.T.);
#438=ORIENTED_EDGE('',*,*,#505,.F.);
#439=ORIENTED_EDGE('',*,*,#466,.T.);
#440=ORIENTED_EDGE('',*,*,#477,.F.);
#441=ORIENTED_EDGE('',*,*,#500,.T.);
#442=ORIENTED_EDGE('',*,*,#483,.T.);
#443=ORIENTED_EDGE('',*,*,#647,.F.);
#444=ORIENTED_EDGE('',*,*,#608,.T.);
#445=ORIENTED_EDGE('',*,*,#647,.T.);
#446=ORIENTED_EDGE('',*,*,#540,.T.);
#447=ORIENTED_EDGE('',*,*,#607,.T.);
#448=ORIENTED_EDGE('',*,*,#539,.T.);
#449=ORIENTED_EDGE('',*,*,#606,.T.);
#450=ORIENTED_EDGE('',*,*,#642,.F.);
#451=ORIENTED_EDGE('',*,*,#542,.F.);
#452=ORIENTED_EDGE('',*,*,#638,.F.);
#453=ORIENTED_EDGE('',*,*,#564,.F.);
#454=ORIENTED_EDGE('',*,*,#643,.F.);
#455=ORIENTED_EDGE('',*,*,#472,.F.);
#456=ORIENTED_EDGE('',*,*,#637,.F.);
#457=ORIENTED_EDGE('',*,*,#548,.F.);
#458=ORIENTED_EDGE('',*,*,#645,.F.);
#459=ORIENTED_EDGE('',*,*,#560,.F.);
#460=ORIENTED_EDGE('',*,*,#636,.F.);
#461=ORIENTED_EDGE('',*,*,#576,.F.);
#462=ORIENTED_EDGE('',*,*,#646,.F.);
#463=ORIENTED_EDGE('',*,*,#585,.F.);
#464=ORIENTED_EDGE('',*,*,#639,.F.);
#465=ORIENTED_EDGE('',*,*,#546,.F.);
#466=EDGE_CURVE('',#648,#649,#773,.T.);
#467=EDGE_CURVE('',#650,#648,#774,.T.);
#468=EDGE_CURVE('',#650,#651,#775,.F.);
#469=EDGE_CURVE('',#649,#651,#776,.T.);
#470=EDGE_CURVE('',#652,#652,#51,.T.);
#471=EDGE_CURVE('',#653,#654,#777,.T.);
#472=EDGE_CURVE('',#654,#655,#778,.F.);
#473=EDGE_CURVE('',#655,#656,#779,.T.);
#474=EDGE_CURVE('',#656,#657,#52,.F.);
#475=EDGE_CURVE('',#657,#658,#780,.T.);
#476=EDGE_CURVE('',#658,#659,#53,.F.);
#477=EDGE_CURVE('',#659,#649,#781,.T.);
#478=EDGE_CURVE('',#651,#660,#54,.T.);
#479=EDGE_CURVE('',#661,#660,#782,.T.);
#480=EDGE_CURVE('',#661,#653,#783,.F.);
#481=EDGE_CURVE('',#662,#662,#55,.T.);
#482=EDGE_CURVE('',#663,#663,#56,.T.);
#483=EDGE_CURVE('',#664,#648,#784,.T.);
#484=EDGE_CURVE('',#664,#665,#57,.T.);
#485=EDGE_CURVE('',#665,#666,#785,.T.);
#486=EDGE_CURVE('',#666,#667,#58,.T.);
#487=EDGE_CURVE('',#667,#668,#786,.T.);
#488=EDGE_CURVE('',#668,#669,#59,.T.);
#489=EDGE_CURVE('',#670,#669,#787,.T.);
#490=EDGE_CURVE('',#670,#671,#60,.T.);
#491=EDGE_CURVE('',#671,#672,#788,.T.);
#492=EDGE_CURVE('',#672,#673,#789,.T.);
#493=EDGE_CURVE('',#673,#674,#61,.F.);
#494=EDGE_CURVE('',#674,#675,#790,.T.);
#495=EDGE_CURVE('',#676,#675,#791,.T.);
#496=EDGE_CURVE('',#676,#677,#62,.T.);
#497=EDGE_CURVE('',#678,#677,#792,.T.);
#498=EDGE_CURVE('',#678,#679,#793,.T.);
#499=EDGE_CURVE('',#679,#650,#63,.F.);
#500=EDGE_CURVE('',#659,#664,#794,.F.);
#501=EDGE_CURVE('',#665,#658,#795,.T.);
#502=EDGE_CURVE('',#680,#677,#796,.T.);
#503=EDGE_CURVE('',#681,#680,#797,.T.);
#504=EDGE_CURVE('',#678,#681,#798,.T.);
#505=EDGE_CURVE('',#672,#682,#799,.T.);
#506=EDGE_CURVE('',#683,#682,#800,.T.);
#507=EDGE_CURVE('',#683,#673,#801,.T.);
#508=EDGE_CURVE('',#681,#684,#802,.T.);
#509=EDGE_CURVE('',#684,#685,#803,.T.);
#510=EDGE_CURVE('',#686,#685,#804,.T.);
#511=EDGE_CURVE('',#686,#661,#805,.T.);
#512=EDGE_CURVE('',#660,#679,#806,.T.);
#513=EDGE_CURVE('',#687,#688,#807,.T.);
#514=EDGE_CURVE('',#688,#689,#808,.T.);
#515=EDGE_CURVE('',#689,#690,#809,.T.);
#516=EDGE_CURVE('',#690,#691,#810,.T.);
#517=EDGE_CURVE('',#691,#692,#811,.T.);
#518=EDGE_CURVE('',#692,#687,#812,.F.);
#519=EDGE_CURVE('',#693,#694,#813,.T.);
#520=EDGE_CURVE('',#693,#695,#814,.T.);
#521=EDGE_CURVE('',#696,#695,#815,.T.);
#522=EDGE_CURVE('',#696,#694,#816,.F.);
#523=EDGE_CURVE('',#697,#698,#817,.T.);
#524=EDGE_CURVE('',#697,#699,#818,.F.);
#525=EDGE_CURVE('',#700,#699,#819,.T.);
#526=EDGE_CURVE('',#700,#698,#820,.T.);
#527=EDGE_CURVE('',#701,#702,#821,.T.);
#528=EDGE_CURVE('',#702,#703,#822,.F.);
#529=EDGE_CURVE('',#703,#704,#823,.T.);
#530=EDGE_CURVE('',#704,#701,#824,.T.);
#531=EDGE_CURVE('',#705,#706,#825,.T.);
#532=EDGE_CURVE('',#705,#707,#826,.F.);
#533=EDGE_CURVE('',#707,#708,#827,.T.);
#534=EDGE_CURVE('',#708,#706,#828,.T.);
#535=EDGE_CURVE('',#709,#710,#829,.T.);
#536=EDGE_CURVE('',#709,#711,#830,.T.);
#537=EDGE_CURVE('',#711,#712,#831,.T.);
#538=EDGE_CURVE('',#712,#710,#832,.T.);
#539=EDGE_CURVE('',#713,#713,#64,.T.);
#540=EDGE_CURVE('',#714,#714,#65,.T.);
#541=EDGE_CURVE('',#715,#716,#833,.T.);
#542=EDGE_CURVE('',#716,#717,#834,.F.);
#543=EDGE_CURVE('',#717,#708,#835,.F.);
#544=EDGE_CURVE('',#707,#709,#66,.T.);
#545=EDGE_CURVE('',#710,#718,#836,.T.);
#546=EDGE_CURVE('',#718,#715,#837,.T.);
#547=EDGE_CURVE('',#706,#719,#838,.F.);
#548=EDGE_CURVE('',#719,#720,#839,.T.);
#549=EDGE_CURVE('',#720,#721,#840,.T.);
#550=EDGE_CURVE('',#722,#721,#67,.T.);
#551=EDGE_CURVE('',#722,#723,#841,.T.);
#552=EDGE_CURVE('',#723,#724,#68,.T.);
#553=EDGE_CURVE('',#725,#724,#842,.T.);
#554=EDGE_CURVE('',#725,#726,#69,.T.);
#555=EDGE_CURVE('',#726,#727,#843,.T.);
#556=EDGE_CURVE('',#728,#727,#70,.T.);
#557=EDGE_CURVE('',#729,#728,#844,.T.);
#558=EDGE_CURVE('',#721,#729,#71,.T.);
#559=EDGE_CURVE('',#721,#730,#845,.T.);
#560=EDGE_CURVE('',#730,#731,#846,.F.);
#561=EDGE_CURVE('',#731,#712,#847,.T.);
#562=EDGE_CURVE('',#711,#705,#72,.F.);
#563=EDGE_CURVE('',#732,#733,#848,.T.);
#564=EDGE_CURVE('',#733,#734,#849,.T.);
#565=EDGE_CURVE('',#734,#735,#850,.F.);
#566=EDGE_CURVE('',#735,#736,#851,.T.);
#567=EDGE_CURVE('',#736,#737,#852,.T.);
#568=EDGE_CURVE('',#737,#683,#73,.T.);
#569=EDGE_CURVE('',#738,#682,#853,.T.);
#570=EDGE_CURVE('',#738,#739,#74,.F.);
#571=EDGE_CURVE('',#740,#739,#854,.T.);
#572=EDGE_CURVE('',#740,#732,#75,.F.);
#573=EDGE_CURVE('',#741,#741,#76,.T.);
#574=EDGE_CURVE('',#742,#742,#77,.T.);
#575=EDGE_CURVE('',#743,#743,#78,.T.);
#576=EDGE_CURVE('',#689,#744,#855,.T.);
#577=EDGE_CURVE('',#744,#745,#856,.T.);
#578=EDGE_CURVE('',#745,#686,#857,.F.);
#579=EDGE_CURVE('',#685,#746,#79,.F.);
#580=EDGE_CURVE('',#747,#746,#858,.T.);
#581=EDGE_CURVE('',#747,#748,#80,.F.);
#582=EDGE_CURVE('',#749,#748,#859,.T.);
#583=EDGE_CURVE('',#749,#750,#860,.T.);
#584=EDGE_CURVE('',#750,#751,#861,.F.);
#585=EDGE_CURVE('',#751,#688,#862,.F.);
#586=EDGE_CURVE('',#687,#693,#81,.T.);
#587=EDGE_CURVE('',#694,#700,#82,.T.);
#588=EDGE_CURVE('',#699,#704,#83,.T.);
#589=EDGE_CURVE('',#703,#690,#84,.T.);
#590=EDGE_CURVE('',#752,#724,#863,.T.);
#591=EDGE_CURVE('',#753,#752,#864,.T.);
#592=EDGE_CURVE('',#753,#725,#865,.T.);
#593=EDGE_CURVE('',#753,#754,#85,.T.);
#594=EDGE_CURVE('',#754,#726,#866,.T.);
#595=EDGE_CURVE('',#754,#755,#867,.T.);
#596=EDGE_CURVE('',#755,#727,#868,.T.);
#597=EDGE_CURVE('',#756,#722,#869,.T.);
#598=EDGE_CURVE('',#756,#757,#870,.T.);
#599=EDGE_CURVE('',#757,#723,#871,.T.);
#600=EDGE_CURVE('',#758,#729,#872,.T.);
#601=EDGE_CURVE('',#756,#758,#86,.T.);
#602=EDGE_CURVE('',#759,#728,#873,.T.);
#603=EDGE_CURVE('',#758,#759,#874,.T.);
#604=EDGE_CURVE('',#759,#755,#87,.T.);
#605=EDGE_CURVE('',#757,#752,#88,.T.);
#606=EDGE_CURVE('',#760,#760,#89,.T.);
#607=EDGE_CURVE('',#761,#761,#90,.T.);
#608=EDGE_CURVE('',#762,#762,#91,.T.);
#609=EDGE_CURVE('',#674,#737,#875,.F.);
#610=EDGE_CURVE('',#736,#749,#876,.T.);
#611=EDGE_CURVE('',#748,#763,#877,.F.);
#612=EDGE_CURVE('',#763,#764,#878,.T.);
#613=EDGE_CURVE('',#764,#675,#879,.T.);
#614=EDGE_CURVE('',#765,#766,#880,.T.);
#615=EDGE_CURVE('',#766,#747,#881,.T.);
#616=EDGE_CURVE('',#746,#765,#882,.F.);
#617=EDGE_CURVE('',#655,#733,#883,.T.);
#618=EDGE_CURVE('',#732,#668,#884,.F.);
#619=EDGE_CURVE('',#667,#656,#885,.T.);
#620=EDGE_CURVE('',#669,#740,#886,.T.);
#621=EDGE_CURVE('',#739,#670,#887,.F.);
#622=EDGE_CURVE('',#657,#666,#888,.F.);
#623=EDGE_CURVE('',#767,#680,#92,.T.);
#624=EDGE_CURVE('',#767,#764,#889,.T.);
#625=EDGE_CURVE('',#763,#766,#93,.T.);
#626=EDGE_CURVE('',#765,#684,#94,.T.);
#627=EDGE_CURVE('',#768,#768,#95,.T.);
#628=EDGE_CURVE('',#769,#769,#96,.T.);
#629=EDGE_CURVE('',#701,#697,#97,.F.);
#630=EDGE_CURVE('',#698,#696,#98,.F.);
#631=EDGE_CURVE('',#695,#692,#99,.F.);
#632=EDGE_CURVE('',#691,#702,#100,.F.);
#633=EDGE_CURVE('',#676,#767,#890,.F.);
#634=EDGE_CURVE('',#738,#671,#891,.T.);
#635=EDGE_CURVE('',#745,#653,#892,.T.);
#636=EDGE_CURVE('',#744,#730,#12,.T.);
#637=EDGE_CURVE('',#720,#654,#13,.T.);
#638=EDGE_CURVE('',#734,#716,#14,.F.);
#639=EDGE_CURVE('',#715,#751,#15,.F.);
#640=EDGE_CURVE('',#735,#750,#893,.T.);
#641=EDGE_CURVE('',#770,#770,#16,.F.);
#642=EDGE_CURVE('',#717,#733,#17,.T.);
#643=EDGE_CURVE('',#655,#719,#18,.T.);
#644=EDGE_CURVE('',#771,#771,#19,.T.);
#645=EDGE_CURVE('',#731,#689,#20,.F.);
#646=EDGE_CURVE('',#688,#718,#21,.F.);
#647=EDGE_CURVE('',#772,#772,#101,.T.);
#648=VERTEX_POINT('',#1820);
#649=VERTEX_POINT('',#1821);
#650=VERTEX_POINT('',#1823);
#651=VERTEX_POINT('',#1825);
#652=VERTEX_POINT('',#1829);
#653=VERTEX_POINT('',#1831);
#654=VERTEX_POINT('',#1832);
#655=VERTEX_POINT('',#1834);
#656=VERTEX_POINT('',#1836);
#657=VERTEX_POINT('',#1838);
#658=VERTEX_POINT('',#1840);
#659=VERTEX_POINT('',#1842);
#660=VERTEX_POINT('',#1845);
#661=VERTEX_POINT('',#1847);
#662=VERTEX_POINT('',#1851);
#663=VERTEX_POINT('',#1853);
#664=VERTEX_POINT('',#1855);
#665=VERTEX_POINT('',#1857);
#666=VERTEX_POINT('',#1859);
#667=VERTEX_POINT('',#1861);
#668=VERTEX_POINT('',#1863);
#669=VERTEX_POINT('',#1865);
#670=VERTEX_POINT('',#1867);
#671=VERTEX_POINT('',#1869);
#672=VERTEX_POINT('',#1871);
#673=VERTEX_POINT('',#1873);
#674=VERTEX_POINT('',#1875);
#675=VERTEX_POINT('',#1877);
#676=VERTEX_POINT('',#1879);
#677=VERTEX_POINT('',#1881);
#678=VERTEX_POINT('',#1883);
#679=VERTEX_POINT('',#1885);
#680=VERTEX_POINT('',#1892);
#681=VERTEX_POINT('',#1894);
#682=VERTEX_POINT('',#1898);
#683=VERTEX_POINT('',#1900);
#684=VERTEX_POINT('',#1904);
#685=VERTEX_POINT('',#1906);
#686=VERTEX_POINT('',#1908);
#687=VERTEX_POINT('',#1913);
#688=VERTEX_POINT('',#1914);
#689=VERTEX_POINT('',#1916);
#690=VERTEX_POINT('',#1918);
#691=VERTEX_POINT('',#1920);
#692=VERTEX_POINT('',#1922);
#693=VERTEX_POINT('',#1926);
#694=VERTEX_POINT('',#1927);
#695=VERTEX_POINT('',#1929);
#696=VERTEX_POINT('',#1931);
#697=VERTEX_POINT('',#1935);
#698=VERTEX_POINT('',#1936);
#699=VERTEX_POINT('',#1938);
#700=VERTEX_POINT('',#1940);
#701=VERTEX_POINT('',#1944);
#702=VERTEX_POINT('',#1945);
#703=VERTEX_POINT('',#1947);
#704=VERTEX_POINT('',#1949);
#705=VERTEX_POINT('',#1953);
#706=VERTEX_POINT('',#1954);
#707=VERTEX_POINT('',#1956);
#708=VERTEX_POINT('',#1958);
#709=VERTEX_POINT('',#1962);
#710=VERTEX_POINT('',#1963);
#711=VERTEX_POINT('',#1965);
#712=VERTEX_POINT('',#1967);
#713=VERTEX_POINT('',#1971);
#714=VERTEX_POINT('',#1973);
#715=VERTEX_POINT('',#1975);
#716=VERTEX_POINT('',#1976);
#717=VERTEX_POINT('',#1978);
#718=VERTEX_POINT('',#1982);
#719=VERTEX_POINT('',#1986);
#720=VERTEX_POINT('',#1988);
#721=VERTEX_POINT('',#1990);
#722=VERTEX_POINT('',#1992);
#723=VERTEX_POINT('',#1994);
#724=VERTEX_POINT('',#1996);
#725=VERTEX_POINT('',#1998);
#726=VERTEX_POINT('',#2000);
#727=VERTEX_POINT('',#2002);
#728=VERTEX_POINT('',#2004);
#729=VERTEX_POINT('',#2006);
#730=VERTEX_POINT('',#2009);
#731=VERTEX_POINT('',#2011);
#732=VERTEX_POINT('',#2016);
#733=VERTEX_POINT('',#2017);
#734=VERTEX_POINT('',#2019);
#735=VERTEX_POINT('',#2021);
#736=VERTEX_POINT('',#2023);
#737=VERTEX_POINT('',#2025);
#738=VERTEX_POINT('',#2028);
#739=VERTEX_POINT('',#2030);
#740=VERTEX_POINT('',#2032);
#741=VERTEX_POINT('',#2035);
#742=VERTEX_POINT('',#2038);
#743=VERTEX_POINT('',#2040);
#744=VERTEX_POINT('',#2042);
#745=VERTEX_POINT('',#2044);
#746=VERTEX_POINT('',#2047);
#747=VERTEX_POINT('',#2049);
#748=VERTEX_POINT('',#2051);
#749=VERTEX_POINT('',#2053);
#750=VERTEX_POINT('',#2055);
#751=VERTEX_POINT('',#2057);
#752=VERTEX_POINT('',#2065);
#753=VERTEX_POINT('',#2067);
#754=VERTEX_POINT('',#2071);
#755=VERTEX_POINT('',#2075);
#756=VERTEX_POINT('',#2079);
#757=VERTEX_POINT('',#2081);
#758=VERTEX_POINT('',#2085);
#759=VERTEX_POINT('',#2089);
#760=VERTEX_POINT('',#2097);
#761=VERTEX_POINT('',#2099);
#762=VERTEX_POINT('',#2101);
#763=VERTEX_POINT('',#2106);
#764=VERTEX_POINT('',#2108);
#765=VERTEX_POINT('',#2112);
#766=VERTEX_POINT('',#2113);
#767=VERTEX_POINT('',#2127);
#768=VERTEX_POINT('',#2132);
#769=VERTEX_POINT('',#2134);
#770=VERTEX_POINT('',#2165);
#771=VERTEX_POINT('',#2170);
#772=VERTEX_POINT('',#2183);
#773=LINE('',#1819,#894);
#774=LINE('',#1822,#895);
#775=LINE('',#1824,#896);
#776=LINE('',#1826,#897);
#777=LINE('',#1830,#898);
#778=LINE('',#1833,#899);
#779=LINE('',#1835,#900);
#780=LINE('',#1839,#901);
#781=LINE('',#1843,#902);
#782=LINE('',#1846,#903);
#783=LINE('',#1848,#904);
#784=LINE('',#1854,#905);
#785=LINE('',#1858,#906);
#786=LINE('',#1862,#907);
#787=LINE('',#1866,#908);
#788=LINE('',#1870,#909);
#789=LINE('',#1872,#910);
#790=LINE('',#1876,#911);
#791=LINE('',#1878,#912);
#792=LINE('',#1882,#913);
#793=LINE('',#1884,#914);
#794=LINE('',#1888,#915);
#795=LINE('',#1889,#916);
#796=LINE('',#1891,#917);
#797=LINE('',#1893,#918);
#798=LINE('',#1895,#919);
#799=LINE('',#1897,#920);
#800=LINE('',#1899,#921);
#801=LINE('',#1901,#922);
#802=LINE('',#1903,#923);
#803=LINE('',#1905,#924);
#804=LINE('',#1907,#925);
#805=LINE('',#1909,#926);
#806=LINE('',#1910,#927);
#807=LINE('',#1912,#928);
#808=LINE('',#1915,#929);
#809=LINE('',#1917,#930);
#810=LINE('',#1919,#931);
#811=LINE('',#1921,#932);
#812=LINE('',#1923,#933);
#813=LINE('',#1925,#934);
#814=LINE('',#1928,#935);
#815=LINE('',#1930,#936);
#816=LINE('',#1932,#937);
#817=LINE('',#1934,#938);
#818=LINE('',#1937,#939);
#819=LINE('',#1939,#940);
#820=LINE('',#1941,#941);
#821=LINE('',#1943,#942);
#822=LINE('',#1946,#943);
#823=LINE('',#1948,#944);
#824=LINE('',#1950,#945);
#825=LINE('',#1952,#946);
#826=LINE('',#1955,#947);
#827=LINE('',#1957,#948);
#828=LINE('',#1959,#949);
#829=LINE('',#1961,#950);
#830=LINE('',#1964,#951);
#831=LINE('',#1966,#952);
#832=LINE('',#1968,#953);
#833=LINE('',#1974,#954);
#834=LINE('',#1977,#955);
#835=LINE('',#1979,#956);
#836=LINE('',#1981,#957);
#837=LINE('',#1983,#958);
#838=LINE('',#1985,#959);
#839=LINE('',#1987,#960);
#840=LINE('',#1989,#961);
#841=LINE('',#1993,#962);
#842=LINE('',#1997,#963);
#843=LINE('',#2001,#964);
#844=LINE('',#2005,#965);
#845=LINE('',#2008,#966);
#846=LINE('',#2010,#967);
#847=LINE('',#2012,#968);
#848=LINE('',#2015,#969);
#849=LINE('',#2018,#970);
#850=LINE('',#2020,#971);
#851=LINE('',#2022,#972);
#852=LINE('',#2024,#973);
#853=LINE('',#2027,#974);
#854=LINE('',#2031,#975);
#855=LINE('',#2041,#976);
#856=LINE('',#2043,#977);
#857=LINE('',#2045,#978);
#858=LINE('',#2048,#979);
#859=LINE('',#2052,#980);
#860=LINE('',#2054,#981);
#861=LINE('',#2056,#982);
#862=LINE('',#2058,#983);
#863=LINE('',#2064,#984);
#864=LINE('',#2066,#985);
#865=LINE('',#2068,#986);
#866=LINE('',#2072,#987);
#867=LINE('',#2074,#988);
#868=LINE('',#2076,#989);
#869=LINE('',#2078,#990);
#870=LINE('',#2080,#991);
#871=LINE('',#2082,#992);
#872=LINE('',#2084,#993);
#873=LINE('',#2088,#994);
#874=LINE('',#2090,#995);
#875=LINE('',#2103,#996);
#876=LINE('',#2104,#997);
#877=LINE('',#2105,#998);
#878=LINE('',#2107,#999);
#879=LINE('',#2109,#1000);
#880=LINE('',#2111,#1001);
#881=LINE('',#2114,#1002);
#882=LINE('',#2115,#1003);
#883=LINE('',#2117,#1004);
#884=LINE('',#2118,#1005);
#885=LINE('',#2119,#1006);
#886=LINE('',#2121,#1007);
#887=LINE('',#2122,#1008);
#888=LINE('',#2124,#1009);
#889=LINE('',#2128,#1010);
#890=LINE('',#2140,#1011);
#891=LINE('',#2148,#1012);
#892=LINE('',#2154,#1013);
#893=LINE('',#2160,#1014);
#894=VECTOR('',#1444,1.);
#895=VECTOR('',#1445,1.);
#896=VECTOR('',#1446,1.);
#897=VECTOR('',#1447,1.);
#898=VECTOR('',#1452,1.);
#899=VECTOR('',#1453,1.);
#900=VECTOR('',#1454,1.);
#901=VECTOR('',#1457,1.);
#902=VECTOR('',#1460,1.);
#903=VECTOR('',#1463,1.);
#904=VECTOR('',#1464,1.);
#905=VECTOR('',#1471,1.);
#906=VECTOR('',#1474,1.);
#907=VECTOR('',#1477,1.);
#908=VECTOR('',#1480,1.);
#909=VECTOR('',#1483,1.);
#910=VECTOR('',#1484,1.);
#911=VECTOR('',#1487,1.);
#912=VECTOR('',#1488,1.);
#913=VECTOR('',#1491,1.);
#914=VECTOR('',#1492,1.);
#915=VECTOR('',#1497,1.);
#916=VECTOR('',#1498,1.);
#917=VECTOR('',#1501,1.);
#918=VECTOR('',#1502,1.);
#919=VECTOR('',#1503,1.);
#920=VECTOR('',#1506,1.);
#921=VECTOR('',#1507,1.);
#922=VECTOR('',#1508,1.);
#923=VECTOR('',#1511,1.);
#924=VECTOR('',#1512,1.);
#925=VECTOR('',#1513,1.);
#926=VECTOR('',#1514,1.);
#927=VECTOR('',#1515,1.);
#928=VECTOR('',#1518,1.);
#929=VECTOR('',#1519,1.);
#930=VECTOR('',#1520,1.);
#931=VECTOR('',#1521,1.);
#932=VECTOR('',#1522,1.);
#933=VECTOR('',#1523,1.);
#934=VECTOR('',#1526,1.);
#935=VECTOR('',#1527,1.);
#936=VECTOR('',#1528,1.);
#937=VECTOR('',#1529,1.);
#938=VECTOR('',#1532,1.);
#939=VECTOR('',#1533,1.);
#940=VECTOR('',#1534,1.);
#941=VECTOR('',#1535,1.);
#942=VECTOR('',#1538,1.);
#943=VECTOR('',#1539,1.);
#944=VECTOR('',#1540,1.);
#945=VECTOR('',#1541,1.);
#946=VECTOR('',#1544,1.);
#947=VECTOR('',#1545,1.);
#948=VECTOR('',#1546,1.);
#949=VECTOR('',#1547,1.);
#950=VECTOR('',#1550,1.);
#951=VECTOR('',#1551,1.);
#952=VECTOR('',#1552,1.);
#953=VECTOR('',#1553,1.);
#954=VECTOR('',#1560,1.);
#955=VECTOR('',#1561,1.);
#956=VECTOR('',#1562,1.);
#957=VECTOR('',#1565,1.);
#958=VECTOR('',#1566,1.);
#959=VECTOR('',#1569,1.);
#960=VECTOR('',#1570,1.);
#961=VECTOR('',#1571,1.);
#962=VECTOR('',#1574,1.);
#963=VECTOR('',#1577,1.);
#964=VECTOR('',#1580,1.);
#965=VECTOR('',#1583,1.);
#966=VECTOR('',#1586,1.);
#967=VECTOR('',#1587,1.);
#968=VECTOR('',#1588,1.);
#969=VECTOR('',#1593,1.);
#970=VECTOR('',#1594,1.);
#971=VECTOR('',#1595,1.);
#972=VECTOR('',#1596,1.);
#973=VECTOR('',#1597,1.);
#974=VECTOR('',#1600,1.);
#975=VECTOR('',#1603,1.);
#976=VECTOR('',#1614,1.);
#977=VECTOR('',#1615,1.);
#978=VECTOR('',#1616,1.);
#979=VECTOR('',#1619,1.);
#980=VECTOR('',#1622,1.);
#981=VECTOR('',#1623,1.);
#982=VECTOR('',#1624,1.);
#983=VECTOR('',#1625,1.);
#984=VECTOR('',#1636,1.);
#985=VECTOR('',#1637,1.);
#986=VECTOR('',#1638,1.);
#987=VECTOR('',#1643,1.);
#988=VECTOR('',#1646,1.);
#989=VECTOR('',#1647,1.);
#990=VECTOR('',#1650,1.);
#991=VECTOR('',#1651,1.);
#992=VECTOR('',#1652,1.);
#993=VECTOR('',#1655,1.);
#994=VECTOR('',#1660,1.);
#995=VECTOR('',#1661,1.);
#996=VECTOR('',#1680,1.);
#997=VECTOR('',#1681,1.);
#998=VECTOR('',#1682,1.);
#999=VECTOR('',#1683,1.);
#1000=VECTOR('',#1684,1.);
#1001=VECTOR('',#1687,1.);
#1002=VECTOR('',#1688,1.);
#1003=VECTOR('',#1689,1.);
#1004=VECTOR('',#1692,1.);
#1005=VECTOR('',#1693,1.);
#1006=VECTOR('',#1694,1.);
#1007=VECTOR('',#1697,1.);
#1008=VECTOR('',#1698,1.);
#1009=VECTOR('',#1701,1.);
#1010=VECTOR('',#1706,1.);
#1011=VECTOR('',#1725,1.);
#1012=VECTOR('',#1740,1.);
#1013=VECTOR('',#1751,1.);
#1014=VECTOR('',#1762,1.);
#1015=EDGE_LOOP('',(#102,#103,#104,#105));
#1016=EDGE_LOOP('',(#106));
#1017=EDGE_LOOP('',(#107,#108,#109,#110,#111,#112,#113,#114,#115,#116,#117));
#1018=EDGE_LOOP('',(#118));
#1019=EDGE_LOOP('',(#119));
#1020=EDGE_LOOP('',(#120,#121,#122,#123,#124,#125,#126,#127,#128,#129,#130,
#131,#132,#133,#134,#135,#136,#137));
#1021=EDGE_LOOP('',(#138,#139,#140,#141));
#1022=EDGE_LOOP('',(#142,#143,#144,#145));
#1023=EDGE_LOOP('',(#146,#147,#148,#149));
#1024=EDGE_LOOP('',(#150,#151,#152,#153,#154,#155,#156,#157));
#1025=EDGE_LOOP('',(#158,#159,#160,#161,#162,#163));
#1026=EDGE_LOOP('',(#164,#165,#166,#167));
#1027=EDGE_LOOP('',(#168,#169,#170,#171));
#1028=EDGE_LOOP('',(#172,#173,#174,#175));
#1029=EDGE_LOOP('',(#176,#177,#178,#179));
#1030=EDGE_LOOP('',(#180,#181,#182,#183));
#1031=EDGE_LOOP('',(#184));
#1032=EDGE_LOOP('',(#185));
#1033=EDGE_LOOP('',(#186,#187,#188,#189,#190,#191,#192,#193));
#1034=EDGE_LOOP('',(#194,#195,#196,#197,#198,#199,#200,#201,#202,#203,#204,
#205,#206,#207,#208,#209,#210,#211));
#1035=EDGE_LOOP('',(#212,#213,#214,#215,#216,#217,#218,#219,#220,#221,#222));
#1036=EDGE_LOOP('',(#223));
#1037=EDGE_LOOP('',(#224));
#1038=EDGE_LOOP('',(#225));
#1039=EDGE_LOOP('',(#226,#227,#228,#229,#230,#231,#232,#233,#234,#235,#236,
#237,#238,#239,#240,#241,#242,#243,#244,#245));
#1040=EDGE_LOOP('',(#246,#247,#248,#249));
#1041=EDGE_LOOP('',(#250,#251,#252,#253));
#1042=EDGE_LOOP('',(#254,#255,#256,#257));
#1043=EDGE_LOOP('',(#258,#259,#260,#261));
#1044=EDGE_LOOP('',(#262,#263,#264,#265,#266));
#1045=EDGE_LOOP('',(#267,#268,#269,#270));
#1046=EDGE_LOOP('',(#271,#272,#273,#274));
#1047=EDGE_LOOP('',(#275,#276,#277,#278));
#1048=EDGE_LOOP('',(#279));
#1049=EDGE_LOOP('',(#280));
#1050=EDGE_LOOP('',(#281));
#1051=EDGE_LOOP('',(#282,#283,#284,#285,#286,#287,#288,#289));
#1052=EDGE_LOOP('',(#290,#291,#292,#293,#294,#295,#296,#297));
#1053=EDGE_LOOP('',(#298,#299,#300,#301));
#1054=EDGE_LOOP('',(#302,#303,#304,#305,#306,#307));
#1055=EDGE_LOOP('',(#308,#309,#310,#311));
#1056=EDGE_LOOP('',(#312,#313,#314,#315));
#1057=EDGE_LOOP('',(#316,#317,#318,#319,#320,#321,#322,#323));
#1058=EDGE_LOOP('',(#324));
#1059=EDGE_LOOP('',(#325));
#1060=EDGE_LOOP('',(#326,#327,#328,#329,#330,#331,#332,#333));
#1061=EDGE_LOOP('',(#334,#335,#336,#337));
#1062=EDGE_LOOP('',(#338,#339,#340,#341));
#1063=EDGE_LOOP('',(#342,#343,#344,#345));
#1064=EDGE_LOOP('',(#346,#347,#348,#349));
#1065=EDGE_LOOP('',(#350,#351,#352,#353));
#1066=EDGE_LOOP('',(#354,#355,#356,#357));
#1067=EDGE_LOOP('',(#358,#359,#360,#361));
#1068=EDGE_LOOP('',(#362,#363,#364,#365));
#1069=EDGE_LOOP('',(#366));
#1070=EDGE_LOOP('',(#367));
#1071=EDGE_LOOP('',(#368));
#1072=EDGE_LOOP('',(#369));
#1073=EDGE_LOOP('',(#370));
#1074=EDGE_LOOP('',(#371));
#1075=EDGE_LOOP('',(#372));
#1076=EDGE_LOOP('',(#373));
#1077=EDGE_LOOP('',(#374,#375,#376,#377,#378,#379,#380));
#1078=EDGE_LOOP('',(#381,#382,#383,#384,#385,#386));
#1079=EDGE_LOOP('',(#387,#388,#389,#390));
#1080=EDGE_LOOP('',(#391,#392,#393,#394));
#1081=EDGE_LOOP('',(#395));
#1082=EDGE_LOOP('',(#396,#397,#398,#399,#400,#401));
#1083=EDGE_LOOP('',(#402));
#1084=EDGE_LOOP('',(#403,#404,#405,#406,#407,#408));
#1085=EDGE_LOOP('',(#409,#410,#411,#412));
#1086=EDGE_LOOP('',(#413,#414,#415,#416));
#1087=EDGE_LOOP('',(#417,#418,#419,#420));
#1088=EDGE_LOOP('',(#421,#422,#423,#424));
#1089=EDGE_LOOP('',(#425,#426,#427,#428));
#1090=EDGE_LOOP('',(#429,#430,#431,#432));
#1091=EDGE_LOOP('',(#433));
#1092=EDGE_LOOP('',(#434));
#1093=EDGE_LOOP('',(#435,#436,#437,#438));
#1094=EDGE_LOOP('',(#439,#440,#441,#442));
#1095=EDGE_LOOP('',(#443));
#1096=EDGE_LOOP('',(#444));
#1097=EDGE_LOOP('',(#445));
#1098=EDGE_LOOP('',(#446));
#1099=EDGE_LOOP('',(#447));
#1100=EDGE_LOOP('',(#448));
#1101=EDGE_LOOP('',(#449));
#1102=EDGE_LOOP('',(#450,#451,#452,#453));
#1103=EDGE_LOOP('',(#454,#455,#456,#457));
#1104=EDGE_LOOP('',(#458,#459,#460,#461));
#1105=EDGE_LOOP('',(#462,#463,#464,#465));
#1106=FACE_BOUND('',#1015,.T.);
#1107=FACE_BOUND('',#1016,.T.);
#1108=FACE_BOUND('',#1017,.T.);
#1109=FACE_BOUND('',#1018,.T.);
#1110=FACE_BOUND('',#1019,.T.);
#1111=FACE_BOUND('',#1020,.T.);
#1112=FACE_BOUND('',#1021,.T.);
#1113=FACE_BOUND('',#1022,.T.);
#1114=FACE_BOUND('',#1023,.T.);
#1115=FACE_BOUND('',#1024,.T.);
#1116=FACE_BOUND('',#1025,.T.);
#1117=FACE_BOUND('',#1026,.T.);
#1118=FACE_BOUND('',#1027,.T.);
#1119=FACE_BOUND('',#1028,.T.);
#1120=FACE_BOUND('',#1029,.T.);
#1121=FACE_BOUND('',#1030,.T.);
#1122=FACE_BOUND('',#1031,.T.);
#1123=FACE_BOUND('',#1032,.T.);
#1124=FACE_BOUND('',#1033,.T.);
#1125=FACE_BOUND('',#1034,.T.);
#1126=FACE_BOUND('',#1035,.T.);
#1127=FACE_BOUND('',#1036,.T.);
#1128=FACE_BOUND('',#1037,.T.);
#1129=FACE_BOUND('',#1038,.T.);
#1130=FACE_BOUND('',#1039,.T.);
#1131=FACE_BOUND('',#1040,.T.);
#1132=FACE_BOUND('',#1041,.T.);
#1133=FACE_BOUND('',#1042,.T.);
#1134=FACE_BOUND('',#1043,.T.);
#1135=FACE_BOUND('',#1044,.T.);
#1136=FACE_BOUND('',#1045,.T.);
#1137=FACE_BOUND('',#1046,.T.);
#1138=FACE_BOUND('',#1047,.T.);
#1139=FACE_BOUND('',#1048,.T.);
#1140=FACE_BOUND('',#1049,.T.);
#1141=FACE_BOUND('',#1050,.T.);
#1142=FACE_BOUND('',#1051,.T.);
#1143=FACE_BOUND('',#1052,.T.);
#1144=FACE_BOUND('',#1053,.T.);
#1145=FACE_BOUND('',#1054,.T.);
#1146=FACE_BOUND('',#1055,.T.);
#1147=FACE_BOUND('',#1056,.T.);
#1148=FACE_BOUND('',#1057,.T.);
#1149=FACE_BOUND('',#1058,.T.);
#1150=FACE_BOUND('',#1059,.T.);
#1151=FACE_BOUND('',#1060,.T.);
#1152=FACE_BOUND('',#1061,.T.);
#1153=FACE_BOUND('',#1062,.T.);
#1154=FACE_BOUND('',#1063,.T.);
#1155=FACE_BOUND('',#1064,.T.);
#1156=FACE_BOUND('',#1065,.T.);
#1157=FACE_BOUND('',#1066,.T.);
#1158=FACE_BOUND('',#1067,.T.);
#1159=FACE_BOUND('',#1068,.T.);
#1160=FACE_BOUND('',#1069,.T.);
#1161=FACE_BOUND('',#1070,.T.);
#1162=FACE_BOUND('',#1071,.T.);
#1163=FACE_BOUND('',#1072,.T.);
#1164=FACE_BOUND('',#1073,.T.);
#1165=FACE_BOUND('',#1074,.T.);
#1166=FACE_BOUND('',#1075,.T.);
#1167=FACE_BOUND('',#1076,.T.);
#1168=FACE_BOUND('',#1077,.T.);
#1169=FACE_BOUND('',#1078,.T.);
#1170=FACE_BOUND('',#1079,.T.);
#1171=FACE_BOUND('',#1080,.T.);
#1172=FACE_BOUND('',#1081,.T.);
#1173=FACE_BOUND('',#1082,.T.);
#1174=FACE_BOUND('',#1083,.T.);
#1175=FACE_BOUND('',#1084,.T.);
#1176=FACE_BOUND('',#1085,.T.);
#1177=FACE_BOUND('',#1086,.T.);
#1178=FACE_BOUND('',#1087,.T.);
#1179=FACE_BOUND('',#1088,.T.);
#1180=FACE_BOUND('',#1089,.T.);
#1181=FACE_BOUND('',#1090,.T.);
#1182=FACE_BOUND('',#1091,.T.);
#1183=FACE_BOUND('',#1092,.T.);
#1184=FACE_BOUND('',#1093,.T.);
#1185=FACE_BOUND('',#1094,.T.);
#1186=FACE_BOUND('',#1095,.T.);
#1187=FACE_BOUND('',#1096,.T.);
#1188=FACE_BOUND('',#1097,.T.);
#1189=FACE_BOUND('',#1098,.T.);
#1190=FACE_BOUND('',#1099,.T.);
#1191=FACE_BOUND('',#1100,.T.);
#1192=FACE_BOUND('',#1101,.T.);
#1193=FACE_BOUND('',#1102,.T.);
#1194=FACE_BOUND('',#1103,.T.);
#1195=FACE_BOUND('',#1104,.T.);
#1196=FACE_BOUND('',#1105,.T.);
#1197=PLANE('',#1313);
#1198=PLANE('',#1314);
#1199=PLANE('',#1319);
#1200=PLANE('',#1330);
#1201=PLANE('',#1331);
#1202=PLANE('',#1332);
#1203=PLANE('',#1333);
#1204=PLANE('',#1334);
#1205=PLANE('',#1335);
#1206=PLANE('',#1336);
#1207=PLANE('',#1337);
#1208=PLANE('',#1338);
#1209=PLANE('',#1339);
#1210=PLANE('',#1343);
#1211=PLANE('',#1350);
#1212=PLANE('',#1355);
#1213=PLANE('',#1364);
#1214=PLANE('',#1367);
#1215=PLANE('',#1368);
#1216=PLANE('',#1371);
#1217=PLANE('',#1376);
#1218=PLANE('',#1380);
#1219=PLANE('',#1381);
#1220=PLANE('',#1382);
#1221=PLANE('',#1383);
#1222=PLANE('',#1384);
#1223=PLANE('',#1385);
#1224=PLANE('',#1395);
#1225=PLANE('',#1407);
#1226=PLANE('',#1410);
#1227=PLANE('',#1413);
#1228=PLANE('',#1414);
#1229=PLANE('',#1415);
#1230=PLANE('',#1419);
#1231=PLANE('',#1429);
#1232=PLANE('',#1430);
#1233=PLANE('',#1433);
#1234=ADVANCED_FACE('',(#1106),#1197,.F.);
#1235=ADVANCED_FACE('',(#1107,#1108),#1198,.T.);
#1236=ADVANCED_FACE('',(#1109,#1110,#1111),#1199,.F.);
#1237=ADVANCED_FACE('',(#1112),#22,.F.);
#1238=ADVANCED_FACE('',(#1113),#1200,.T.);
#1239=ADVANCED_FACE('',(#1114),#1201,.F.);
#1240=ADVANCED_FACE('',(#1115),#1202,.T.);
#1241=ADVANCED_FACE('',(#1116),#1203,.T.);
#1242=ADVANCED_FACE('',(#1117),#1204,.F.);
#1243=ADVANCED_FACE('',(#1118),#1205,.F.);
#1244=ADVANCED_FACE('',(#1119),#1206,.T.);
#1245=ADVANCED_FACE('',(#1120),#1207,.T.);
#1246=ADVANCED_FACE('',(#1121),#1208,.F.);
#1247=ADVANCED_FACE('',(#1122,#1123,#1124),#1209,.T.);
#1248=ADVANCED_FACE('',(#1125),#1210,.F.);
#1249=ADVANCED_FACE('',(#1126,#1127),#1211,.T.);
#1250=ADVANCED_FACE('',(#1128,#1129,#1130),#1212,.F.);
#1251=ADVANCED_FACE('',(#1131),#1213,.T.);
#1252=ADVANCED_FACE('',(#1132),#23,.F.);
#1253=ADVANCED_FACE('',(#1133),#1214,.F.);
#1254=ADVANCED_FACE('',(#1134),#1215,.T.);
#1255=ADVANCED_FACE('',(#1135),#24,.F.);
#1256=ADVANCED_FACE('',(#1136),#1216,.F.);
#1257=ADVANCED_FACE('',(#1137),#25,.F.);
#1258=ADVANCED_FACE('',(#1138),#26,.F.);
#1259=ADVANCED_FACE('',(#1139,#1140,#1141,#1142),#1217,.T.);
#1260=ADVANCED_FACE('',(#1143),#1218,.F.);
#1261=ADVANCED_FACE('',(#1144),#1219,.F.);
#1262=ADVANCED_FACE('',(#1145),#1220,.T.);
#1263=ADVANCED_FACE('',(#1146),#1221,.F.);
#1264=ADVANCED_FACE('',(#1147),#1222,.T.);
#1265=ADVANCED_FACE('',(#1148,#1149,#1150,#1151),#1223,.T.);
#1266=ADVANCED_FACE('',(#1152),#1224,.T.);
#1267=ADVANCED_FACE('',(#1153),#27,.F.);
#1268=ADVANCED_FACE('',(#1154),#28,.F.);
#1269=ADVANCED_FACE('',(#1155),#29,.F.);
#1270=ADVANCED_FACE('',(#1156),#30,.F.);
#1271=ADVANCED_FACE('',(#1157),#31,.F.);
#1272=ADVANCED_FACE('',(#1158),#32,.F.);
#1273=ADVANCED_FACE('',(#1159),#33,.F.);
#1274=ADVANCED_FACE('',(#1160,#1161),#34,.F.);
#1275=ADVANCED_FACE('',(#1162,#1163),#35,.F.);
#1276=ADVANCED_FACE('',(#1164,#1165),#36,.F.);
#1277=ADVANCED_FACE('',(#1166,#1167),#37,.F.);
#1278=ADVANCED_FACE('',(#1168),#1225,.F.);
#1279=ADVANCED_FACE('',(#1169),#1226,.T.);
#1280=ADVANCED_FACE('',(#1170),#1227,.F.);
#1281=ADVANCED_FACE('',(#1171),#1228,.T.);
#1282=ADVANCED_FACE('',(#1172,#1173),#1229,.F.);
#1283=ADVANCED_FACE('',(#1174,#1175),#1230,.T.);
#1284=ADVANCED_FACE('',(#1176),#38,.T.);
#1285=ADVANCED_FACE('',(#1177),#39,.T.);
#1286=ADVANCED_FACE('',(#1178),#40,.T.);
#1287=ADVANCED_FACE('',(#1179),#41,.T.);
#1288=ADVANCED_FACE('',(#1180),#42,.T.);
#1289=ADVANCED_FACE('',(#1181,#1182,#1183),#43,.F.);
#1290=ADVANCED_FACE('',(#1184),#1231,.F.);
#1291=ADVANCED_FACE('',(#1185),#1232,.T.);
#1292=ADVANCED_FACE('',(#1186,#1187),#44,.F.);
#1293=ADVANCED_FACE('',(#1188),#1233,.T.);
#1294=ADVANCED_FACE('',(#1189,#1190),#45,.F.);
#1295=ADVANCED_FACE('',(#1191,#1192),#46,.F.);
#1296=ADVANCED_FACE('',(#1193),#47,.F.);
#1297=ADVANCED_FACE('',(#1194),#48,.F.);
#1298=ADVANCED_FACE('',(#1195),#49,.F.);
#1299=ADVANCED_FACE('',(#1196),#50,.F.);
#1300=CLOSED_SHELL('',(#1234,#1235,#1236,#1237,#1238,#1239,#1240,#1241,
#1242,#1243,#1244,#1245,#1246,#1247,#1248,#1249,#1250,#1251,#1252,#1253,
#1254,#1255,#1256,#1257,#1258,#1259,#1260,#1261,#1262,#1263,#1264,#1265,
#1266,#1267,#1268,#1269,#1270,#1271,#1272,#1273,#1274,#1275,#1276,#1277,
#1278,#1279,#1280,#1281,#1282,#1283,#1284,#1285,#1286,#1287,#1288,#1289,
#1290,#1291,#1292,#1293,#1294,#1295,#1296,#1297,#1298,#1299));
#1301=STYLED_ITEM('',(#1302),#1309);
#1302=PRESENTATION_STYLE_ASSIGNMENT((#1303));
#1303=SURFACE_STYLE_USAGE(.BOTH.,#1304);
#1304=SURFACE_SIDE_STYLE('',(#1305));
#1305=SURFACE_STYLE_FILL_AREA(#1306);
#1306=FILL_AREA_STYLE('',(#1307));
#1307=FILL_AREA_STYLE_COLOUR('',#1308);
#1308=COLOUR_RGB('',0.917647058823529,0.725490196078431,0.490196078431373);
#1309=MANIFOLD_SOLID_BREP('arm',#1300);
#1310=SHAPE_DEFINITION_REPRESENTATION(#2197,#1311);
#1311=SHAPE_REPRESENTATION('arm',(#1312),#2192);
#1312=AXIS2_PLACEMENT_3D('',#1817,#1440,#1441);
#1313=AXIS2_PLACEMENT_3D('',#1818,#1442,#1443);
#1314=AXIS2_PLACEMENT_3D('',#1827,#1448,#1449);
#1315=AXIS2_PLACEMENT_3D('',#1828,#1450,#1451);
#1316=AXIS2_PLACEMENT_3D('',#1837,#1455,#1456);
#1317=AXIS2_PLACEMENT_3D('',#1841,#1458,#1459);
#1318=AXIS2_PLACEMENT_3D('',#1844,#1461,#1462);
#1319=AXIS2_PLACEMENT_3D('',#1849,#1465,#1466);
#1320=AXIS2_PLACEMENT_3D('',#1850,#1467,#1468);
#1321=AXIS2_PLACEMENT_3D('',#1852,#1469,#1470);
#1322=AXIS2_PLACEMENT_3D('',#1856,#1472,#1473);
#1323=AXIS2_PLACEMENT_3D('',#1860,#1475,#1476);
#1324=AXIS2_PLACEMENT_3D('',#1864,#1478,#1479);
#1325=AXIS2_PLACEMENT_3D('',#1868,#1481,#1482);
#1326=AXIS2_PLACEMENT_3D('',#1874,#1485,#1486);
#1327=AXIS2_PLACEMENT_3D('',#1880,#1489,#1490);
#1328=AXIS2_PLACEMENT_3D('',#1886,#1493,#1494);
#1329=AXIS2_PLACEMENT_3D('',#1887,#1495,#1496);
#1330=AXIS2_PLACEMENT_3D('',#1890,#1499,#1500);
#1331=AXIS2_PLACEMENT_3D('',#1896,#1504,#1505);
#1332=AXIS2_PLACEMENT_3D('',#1902,#1509,#1510);
#1333=AXIS2_PLACEMENT_3D('',#1911,#1516,#1517);
#1334=AXIS2_PLACEMENT_3D('',#1924,#1524,#1525);
#1335=AXIS2_PLACEMENT_3D('',#1933,#1530,#1531);
#1336=AXIS2_PLACEMENT_3D('',#1942,#1536,#1537);
#1337=AXIS2_PLACEMENT_3D('',#1951,#1542,#1543);
#1338=AXIS2_PLACEMENT_3D('',#1960,#1548,#1549);
#1339=AXIS2_PLACEMENT_3D('',#1969,#1554,#1555);
#1340=AXIS2_PLACEMENT_3D('',#1970,#1556,#1557);
#1341=AXIS2_PLACEMENT_3D('',#1972,#1558,#1559);
#1342=AXIS2_PLACEMENT_3D('',#1980,#1563,#1564);
#1343=AXIS2_PLACEMENT_3D('',#1984,#1567,#1568);
#1344=AXIS2_PLACEMENT_3D('',#1991,#1572,#1573);
#1345=AXIS2_PLACEMENT_3D('',#1995,#1575,#1576);
#1346=AXIS2_PLACEMENT_3D('',#1999,#1578,#1579);
#1347=AXIS2_PLACEMENT_3D('',#2003,#1581,#1582);
#1348=AXIS2_PLACEMENT_3D('',#2007,#1584,#1585);
#1349=AXIS2_PLACEMENT_3D('',#2013,#1589,#1590);
#1350=AXIS2_PLACEMENT_3D('',#2014,#1591,#1592);
#1351=AXIS2_PLACEMENT_3D('',#2026,#1598,#1599);
#1352=AXIS2_PLACEMENT_3D('',#2029,#1601,#1602);
#1353=AXIS2_PLACEMENT_3D('',#2033,#1604,#1605);
#1354=AXIS2_PLACEMENT_3D('',#2034,#1606,#1607);
#1355=AXIS2_PLACEMENT_3D('',#2036,#1608,#1609);
#1356=AXIS2_PLACEMENT_3D('',#2037,#1610,#1611);
#1357=AXIS2_PLACEMENT_3D('',#2039,#1612,#1613);
#1358=AXIS2_PLACEMENT_3D('',#2046,#1617,#1618);
#1359=AXIS2_PLACEMENT_3D('',#2050,#1620,#1621);
#1360=AXIS2_PLACEMENT_3D('',#2059,#1626,#1627);
#1361=AXIS2_PLACEMENT_3D('',#2060,#1628,#1629);
#1362=AXIS2_PLACEMENT_3D('',#2061,#1630,#1631);
#1363=AXIS2_PLACEMENT_3D('',#2062,#1632,#1633);
#1364=AXIS2_PLACEMENT_3D('',#2063,#1634,#1635);
#1365=AXIS2_PLACEMENT_3D('',#2069,#1639,#1640);
#1366=AXIS2_PLACEMENT_3D('',#2070,#1641,#1642);
#1367=AXIS2_PLACEMENT_3D('',#2073,#1644,#1645);
#1368=AXIS2_PLACEMENT_3D('',#2077,#1648,#1649);
#1369=AXIS2_PLACEMENT_3D('',#2083,#1653,#1654);
#1370=AXIS2_PLACEMENT_3D('',#2086,#1656,#1657);
#1371=AXIS2_PLACEMENT_3D('',#2087,#1658,#1659);
#1372=AXIS2_PLACEMENT_3D('',#2091,#1662,#1663);
#1373=AXIS2_PLACEMENT_3D('',#2092,#1664,#1665);
#1374=AXIS2_PLACEMENT_3D('',#2093,#1666,#1667);
#1375=AXIS2_PLACEMENT_3D('',#2094,#1668,#1669);
#1376=AXIS2_PLACEMENT_3D('',#2095,#1670,#1671);
#1377=AXIS2_PLACEMENT_3D('',#2096,#1672,#1673);
#1378=AXIS2_PLACEMENT_3D('',#2098,#1674,#1675);
#1379=AXIS2_PLACEMENT_3D('',#2100,#1676,#1677);
#1380=AXIS2_PLACEMENT_3D('',#2102,#1678,#1679);
#1381=AXIS2_PLACEMENT_3D('',#2110,#1685,#1686);
#1382=AXIS2_PLACEMENT_3D('',#2116,#1690,#1691);
#1383=AXIS2_PLACEMENT_3D('',#2120,#1695,#1696);
#1384=AXIS2_PLACEMENT_3D('',#2123,#1699,#1700);
#1385=AXIS2_PLACEMENT_3D('',#2125,#1702,#1703);
#1386=AXIS2_PLACEMENT_3D('',#2126,#1704,#1705);
#1387=AXIS2_PLACEMENT_3D('',#2129,#1707,#1708);
#1388=AXIS2_PLACEMENT_3D('',#2130,#1709,#1710);
#1389=AXIS2_PLACEMENT_3D('',#2131,#1711,#1712);
#1390=AXIS2_PLACEMENT_3D('',#2133,#1713,#1714);
#1391=AXIS2_PLACEMENT_3D('',#2135,#1715,#1716);
#1392=AXIS2_PLACEMENT_3D('',#2136,#1717,#1718);
#1393=AXIS2_PLACEMENT_3D('',#2137,#1719,#1720);
#1394=AXIS2_PLACEMENT_3D('',#2138,#1721,#1722);
#1395=AXIS2_PLACEMENT_3D('',#2139,#1723,#1724);
#1396=AXIS2_PLACEMENT_3D('',#2141,#1726,#1727);
#1397=AXIS2_PLACEMENT_3D('',#2142,#1728,#1729);
#1398=AXIS2_PLACEMENT_3D('',#2143,#1730,#1731);
#1399=AXIS2_PLACEMENT_3D('',#2144,#1732,#1733);
#1400=AXIS2_PLACEMENT_3D('',#2145,#1734,#1735);
#1401=AXIS2_PLACEMENT_3D('',#2146,#1736,#1737);
#1402=AXIS2_PLACEMENT_3D('',#2147,#1738,#1739);
#1403=AXIS2_PLACEMENT_3D('',#2149,#1741,#1742);
#1404=AXIS2_PLACEMENT_3D('',#2150,#1743,#1744);
#1405=AXIS2_PLACEMENT_3D('',#2151,#1745,#1746);
#1406=AXIS2_PLACEMENT_3D('',#2152,#1747,#1748);
#1407=AXIS2_PLACEMENT_3D('',#2153,#1749,#1750);
#1408=AXIS2_PLACEMENT_3D('',#2155,#1752,#1753);
#1409=AXIS2_PLACEMENT_3D('',#2156,#1754,#1755);
#1410=AXIS2_PLACEMENT_3D('',#2157,#1756,#1757);
#1411=AXIS2_PLACEMENT_3D('',#2158,#1758,#1759);
#1412=AXIS2_PLACEMENT_3D('',#2159,#1760,#1761);
#1413=AXIS2_PLACEMENT_3D('',#2161,#1763,#1764);
#1414=AXIS2_PLACEMENT_3D('',#2162,#1765,#1766);
#1415=AXIS2_PLACEMENT_3D('',#2163,#1767,#1768);
#1416=AXIS2_PLACEMENT_3D('',#2164,#1769,#1770);
#1417=AXIS2_PLACEMENT_3D('',#2166,#1771,#1772);
#1418=AXIS2_PLACEMENT_3D('',#2167,#1773,#1774);
#1419=AXIS2_PLACEMENT_3D('',#2168,#1775,#1776);
#1420=AXIS2_PLACEMENT_3D('',#2169,#1777,#1778);
#1421=AXIS2_PLACEMENT_3D('',#2171,#1779,#1780);
#1422=AXIS2_PLACEMENT_3D('',#2172,#1781,#1782);
#1423=AXIS2_PLACEMENT_3D('',#2173,#1783,#1784);
#1424=AXIS2_PLACEMENT_3D('',#2174,#1785,#1786);
#1425=AXIS2_PLACEMENT_3D('',#2175,#1787,#1788);
#1426=AXIS2_PLACEMENT_3D('',#2176,#1789,#1790);
#1427=AXIS2_PLACEMENT_3D('',#2177,#1791,#1792);
#1428=AXIS2_PLACEMENT_3D('',#2178,#1793,#1794);
#1429=AXIS2_PLACEMENT_3D('',#2179,#1795,#1796);
#1430=AXIS2_PLACEMENT_3D('',#2180,#1797,#1798);
#1431=AXIS2_PLACEMENT_3D('',#2181,#1799,#1800);
#1432=AXIS2_PLACEMENT_3D('',#2182,#1801,#1802);
#1433=AXIS2_PLACEMENT_3D('',#2184,#1803,#1804);
#1434=AXIS2_PLACEMENT_3D('',#2185,#1805,#1806);
#1435=AXIS2_PLACEMENT_3D('',#2186,#1807,#1808);
#1436=AXIS2_PLACEMENT_3D('',#2187,#1809,#1810);
#1437=AXIS2_PLACEMENT_3D('',#2188,#1811,#1812);
#1438=AXIS2_PLACEMENT_3D('',#2189,#1813,#1814);
#1439=AXIS2_PLACEMENT_3D('',#2190,#1815,#1816);
#1440=DIRECTION('',(0.,0.,1.));
#1441=DIRECTION('',(1.,0.,0.));
#1442=DIRECTION('',(1.,0.,-1.56105599637958E-16));
#1443=DIRECTION('',(-1.56105599637958E-16,0.,-1.));
#1444=DIRECTION('',(0.,-1.,0.));
#1445=DIRECTION('',(1.56105599637958E-16,0.,1.));
#1446=DIRECTION('',(0.,1.,0.));
#1447=DIRECTION('',(-1.56105599637958E-16,0.,-1.));
#1448=DIRECTION('',(0.,-1.,0.));
#1449=DIRECTION('',(1.,0.,0.));
#1450=DIRECTION('',(0.,-1.,0.));
#1451=DIRECTION('',(0.,0.,-1.));
#1452=DIRECTION('',(0.524097425664335,0.,0.851658316704544));
#1453=DIRECTION('',(1.,0.,0.));
#1454=DIRECTION('',(-2.42830932770157E-16,0.,-1.));
#1455=DIRECTION('',(0.,-1.,0.));
#1456=DIRECTION('',(0.,0.,-1.));
#1457=DIRECTION('',(-1.,0.,-1.21415466385078E-16));
#1458=DIRECTION('',(0.,-1.,0.));
#1459=DIRECTION('',(0.,0.,-1.));
#1460=DIRECTION('',(-1.,0.,1.36592399683213E-16));
#1461=DIRECTION('',(0.,-1.,0.));
#1462=DIRECTION('',(0.,0.,-1.));
#1463=DIRECTION('',(-1.,0.,1.56105599637958E-16));
#1464=DIRECTION('',(-0.894427190999916,0.,-0.447213595499958));
#1465=DIRECTION('',(0.,-1.,0.));
#1466=DIRECTION('',(0.,0.,-1.));
#1467=DIRECTION('',(0.,-1.,0.));
#1468=DIRECTION('',(0.,0.,-1.));
#1469=DIRECTION('',(0.,-1.,0.));
#1470=DIRECTION('',(0.,0.,-1.));
#1471=DIRECTION('',(-1.,0.,1.36592399683213E-16));
#1472=DIRECTION('',(0.,-1.,0.));
#1473=DIRECTION('',(0.,0.,-1.));
#1474=DIRECTION('',(1.,0.,1.21415466385078E-16));
#1475=DIRECTION('',(0.,-1.,0.));
#1476=DIRECTION('',(0.,0.,-1.));
#1477=DIRECTION('',(2.42830932770157E-16,0.,1.));
#1478=DIRECTION('',(0.,-1.,0.));
#1479=DIRECTION('',(0.,0.,-1.));
#1480=DIRECTION('',(1.,0.,1.21415466385078E-16));
#1481=DIRECTION('',(0.,-1.,0.));
#1482=DIRECTION('',(0.,0.,-1.));
#1483=DIRECTION('',(-1.,0.,1.36592399683213E-16));
#1484=DIRECTION('',(1.56105599637958E-16,0.,1.));
#1485=DIRECTION('',(0.,-1.,0.));
#1486=DIRECTION('',(0.,0.,-1.));
#1487=DIRECTION('',(1.,0.,-1.56105599637958E-16));
#1488=DIRECTION('',(1.56105599637958E-16,0.,1.));
#1489=DIRECTION('',(0.,-1.,0.));
#1490=DIRECTION('',(0.,0.,-1.));
#1491=DIRECTION('',(1.56105599637958E-16,0.,1.));
#1492=DIRECTION('',(-1.,0.,1.56105599637958E-16));
#1493=DIRECTION('',(0.,-1.,0.));
#1494=DIRECTION('',(0.,0.,-1.));
#1495=DIRECTION('',(0.,-1.,0.));
#1496=DIRECTION('',(0.,0.,-1.));
#1497=DIRECTION('',(0.,-1.,0.));
#1498=DIRECTION('',(0.,-1.,0.));
#1499=DIRECTION('',(-1.,0.,1.56105599637958E-16));
#1500=DIRECTION('',(1.56105599637958E-16,0.,1.));
#1501=DIRECTION('',(0.,-1.,0.));
#1502=DIRECTION('',(1.56105599637958E-16,0.,1.));
#1503=DIRECTION('',(0.,1.,0.));
#1504=DIRECTION('',(1.,0.,-1.56105599637958E-16));
#1505=DIRECTION('',(-1.56105599637958E-16,0.,-1.));
#1506=DIRECTION('',(0.,-1.,0.));
#1507=DIRECTION('',(-1.56105599637958E-16,0.,-1.));
#1508=DIRECTION('',(0.,1.,0.));
#1509=DIRECTION('',(-1.56105599637958E-16,0.,-1.));
#1510=DIRECTION('',(-1.,0.,1.56105599637958E-16));
#1511=DIRECTION('',(-1.,0.,1.56105599637958E-16));
#1512=DIRECTION('',(0.,1.,0.));
#1513=DIRECTION('',(-1.,0.,1.56105599637958E-16));
#1514=DIRECTION('',(0.,-1.,0.));
#1515=DIRECTION('',(0.,1.,0.));
#1516=DIRECTION('',(-1.,0.,2.42830932770157E-16));
#1517=DIRECTION('',(2.42830932770157E-16,0.,1.));
#1518=DIRECTION('',(-2.42830932770157E-16,0.,-1.));
#1519=DIRECTION('',(-2.42830932770157E-16,0.,-1.));
#1520=DIRECTION('',(-2.42830932770157E-16,0.,-1.));
#1521=DIRECTION('',(0.,-1.,0.));
#1522=DIRECTION('',(2.42830932770157E-16,0.,1.));
#1523=DIRECTION('',(0.,-1.,0.));
#1524=DIRECTION('',(-1.21415466385078E-16,0.,1.));
#1525=DIRECTION('',(1.,0.,1.21415466385078E-16));
#1526=DIRECTION('',(-1.,0.,-1.21415466385078E-16));
#1527=DIRECTION('',(0.,-1.,0.));
#1528=DIRECTION('',(1.,0.,1.21415466385078E-16));
#1529=DIRECTION('',(0.,-1.,0.));
#1530=DIRECTION('',(-1.,0.,-4.85661865540313E-16));
#1531=DIRECTION('',(-4.85661865540313E-16,0.,1.));
#1532=DIRECTION('',(-4.85661865540313E-16,0.,1.));
#1533=DIRECTION('',(0.,-1.,0.));
#1534=DIRECTION('',(4.85661865540313E-16,0.,-1.));
#1535=DIRECTION('',(0.,-1.,0.));
#1536=DIRECTION('',(-1.21415466385078E-16,0.,1.));
#1537=DIRECTION('',(1.,0.,1.21415466385078E-16));
#1538=DIRECTION('',(1.,0.,1.21415466385078E-16));
#1539=DIRECTION('',(0.,-1.,0.));
#1540=DIRECTION('',(-1.,0.,-1.21415466385078E-16));
#1541=DIRECTION('',(0.,-1.,0.));
#1542=DIRECTION('',(0.,-1.,0.));
#1543=DIRECTION('',(0.,0.,-1.));
#1544=DIRECTION('',(-1.,0.,0.));
#1545=DIRECTION('',(0.,0.,-1.));
#1546=DIRECTION('',(-1.,0.,0.));
#1547=DIRECTION('',(-2.42830932770157E-16,0.,-1.));
#1548=DIRECTION('',(0.,-1.,0.));
#1549=DIRECTION('',(0.,0.,-1.));
#1550=DIRECTION('',(-1.,0.,0.));
#1551=DIRECTION('',(0.,0.,-1.));
#1552=DIRECTION('',(-1.,0.,0.));
#1553=DIRECTION('',(2.42830932770157E-16,0.,1.));
#1554=DIRECTION('',(0.,0.,1.));
#1555=DIRECTION('',(1.,0.,0.));
#1556=DIRECTION('',(0.,0.,1.));
#1557=DIRECTION('',(1.,0.,0.));
#1558=DIRECTION('',(0.,0.,1.));
#1559=DIRECTION('',(1.,0.,0.));
#1560=DIRECTION('',(0.,-1.,0.));
#1561=DIRECTION('',(1.,0.,0.));
#1562=DIRECTION('',(-0.99654575824488,0.0830454798537401,0.));
#1563=DIRECTION('',(0.,0.,1.));
#1564=DIRECTION('',(1.,0.,0.));
#1565=DIRECTION('',(-0.99654575824488,-0.0830454798537399,0.));
#1566=DIRECTION('',(1.,0.,0.));
#1567=DIRECTION('',(0.,0.,1.));
#1568=DIRECTION('',(1.,0.,0.));
#1569=DIRECTION('',(0.99654575824488,-0.0830454798537401,0.));
#1570=DIRECTION('',(1.,0.,0.));
#1571=DIRECTION('',(0.,1.,0.));
#1572=DIRECTION('',(0.,0.,-1.));
#1573=DIRECTION('',(-1.,0.,0.));
#1574=DIRECTION('',(0.983777025667817,-0.179395551138212,0.));
#1575=DIRECTION('',(0.,0.,1.));
#1576=DIRECTION('',(-1.,0.,0.));
#1577=DIRECTION('',(-0.983777025667817,-0.179395551138212,0.));
#1578=DIRECTION('',(0.,0.,1.));
#1579=DIRECTION('',(1.,0.,0.));
#1580=DIRECTION('',(-0.983777025667817,0.179395551138213,0.));
#1581=DIRECTION('',(0.,0.,-1.));
#1582=DIRECTION('',(-1.,0.,0.));
#1583=DIRECTION('',(0.983777025667817,0.179395551138213,0.));
#1584=DIRECTION('',(0.,0.,-1.));
#1585=DIRECTION('',(-1.,0.,0.));
#1586=DIRECTION('',(0.,1.,0.));
#1587=DIRECTION('',(1.,0.,0.));
#1588=DIRECTION('',(0.99654575824488,0.0830454798537399,0.));
#1589=DIRECTION('',(0.,0.,1.));
#1590=DIRECTION('',(1.,0.,0.));
#1591=DIRECTION('',(0.,-1.,0.));
#1592=DIRECTION('',(1.,0.,0.));
#1593=DIRECTION('',(-2.42830932770157E-16,0.,-1.));
#1594=DIRECTION('',(1.,0.,0.));
#1595=DIRECTION('',(0.524097425664334,0.,-0.851658316704544));
#1596=DIRECTION('',(-0.894427190999916,0.,0.447213595499959));
#1597=DIRECTION('',(-1.,0.,1.56105599637958E-16));
#1598=DIRECTION('',(0.,-1.,0.));
#1599=DIRECTION('',(0.,0.,-1.));
#1600=DIRECTION('',(-1.,0.,1.36592399683213E-16));
#1601=DIRECTION('',(0.,-1.,0.));
#1602=DIRECTION('',(0.,0.,-1.));
#1603=DIRECTION('',(-1.,0.,-1.21415466385078E-16));
#1604=DIRECTION('',(0.,-1.,0.));
#1605=DIRECTION('',(0.,0.,-1.));
#1606=DIRECTION('',(0.,-1.,0.));
#1607=DIRECTION('',(0.,0.,-1.));
#1608=DIRECTION('',(0.,-1.,0.));
#1609=DIRECTION('',(1.,0.,0.));
#1610=DIRECTION('',(0.,-1.,0.));
#1611=DIRECTION('',(0.,0.,-1.));
#1612=DIRECTION('',(0.,-1.,0.));
#1613=DIRECTION('',(0.,0.,-1.));
#1614=DIRECTION('',(1.,0.,0.));
#1615=DIRECTION('',(-0.524097425664335,0.,-0.851658316704544));
#1616=DIRECTION('',(0.894427190999916,0.,0.447213595499958));
#1617=DIRECTION('',(0.,-1.,0.));
#1618=DIRECTION('',(0.,0.,-1.));
#1619=DIRECTION('',(-1.56105599637958E-16,0.,-1.));
#1620=DIRECTION('',(0.,-1.,0.));
#1621=DIRECTION('',(0.,0.,-1.));
#1622=DIRECTION('',(-1.,0.,1.56105599637958E-16));
#1623=DIRECTION('',(0.894427190999916,0.,-0.447213595499959));
#1624=DIRECTION('',(-0.524097425664334,0.,0.851658316704544));
#1625=DIRECTION('',(1.,0.,0.));
#1626=DIRECTION('',(0.,-1.,0.));
#1627=DIRECTION('',(0.,0.,-1.));
#1628=DIRECTION('',(0.,-1.,0.));
#1629=DIRECTION('',(0.,0.,-1.));
#1630=DIRECTION('',(0.,-1.,0.));
#1631=DIRECTION('',(0.,0.,-1.));
#1632=DIRECTION('',(0.,-1.,0.));
#1633=DIRECTION('',(0.,0.,-1.));
#1634=DIRECTION('',(-0.179395551138212,0.983777025667817,0.));
#1635=DIRECTION('',(0.983777025667817,0.179395551138212,0.));
#1636=DIRECTION('',(0.,0.,-1.));
#1637=DIRECTION('',(-0.983777025667817,-0.179395551138212,0.));
#1638=DIRECTION('',(0.,0.,-1.));
#1639=DIRECTION('',(0.,0.,-1.));
#1640=DIRECTION('',(1.,0.,0.));
#1641=DIRECTION('',(0.,0.,1.));
#1642=DIRECTION('',(1.,0.,0.));
#1643=DIRECTION('',(0.,0.,-1.));
#1644=DIRECTION('',(0.179395551138212,0.983777025667817,0.));
#1645=DIRECTION('',(0.983777025667817,-0.179395551138213,0.));
#1646=DIRECTION('',(-0.983777025667817,0.179395551138213,0.));
#1647=DIRECTION('',(0.,0.,-1.));
#1648=DIRECTION('',(0.179395551138212,0.983777025667817,0.));
#1649=DIRECTION('',(-0.983777025667817,0.179395551138212,0.));
#1650=DIRECTION('',(0.,0.,-1.));
#1651=DIRECTION('',(0.983777025667817,-0.179395551138212,0.));
#1652=DIRECTION('',(0.,0.,-1.));
#1653=DIRECTION('',(0.,0.,-1.));
#1654=DIRECTION('',(-1.,0.,0.));
#1655=DIRECTION('',(0.,0.,-1.));
#1656=DIRECTION('',(0.,0.,-1.));
#1657=DIRECTION('',(-1.,0.,0.));
#1658=DIRECTION('',(-0.179395551138212,0.983777025667817,0.));
#1659=DIRECTION('',(-0.983777025667817,-0.179395551138213,0.));
#1660=DIRECTION('',(0.,0.,-1.));
#1661=DIRECTION('',(0.983777025667817,0.179395551138213,0.));
#1662=DIRECTION('',(0.,0.,-1.));
#1663=DIRECTION('',(-1.,0.,0.));
#1664=DIRECTION('',(0.,0.,-1.));
#1665=DIRECTION('',(-1.,0.,0.));
#1666=DIRECTION('',(0.,0.,-1.));
#1667=DIRECTION('',(-1.,0.,0.));
#1668=DIRECTION('',(0.,0.,1.));
#1669=DIRECTION('',(-1.,0.,0.));
#1670=DIRECTION('',(0.,0.,-1.));
#1671=DIRECTION('',(1.,0.,0.));
#1672=DIRECTION('',(0.,0.,-1.));
#1673=DIRECTION('',(-1.,0.,0.));
#1674=DIRECTION('',(0.,0.,-1.));
#1675=DIRECTION('',(-1.,0.,0.));
#1676=DIRECTION('',(0.,0.,-1.));
#1677=DIRECTION('',(-1.,0.,0.));
#1678=DIRECTION('',(-1.56105599637958E-16,0.,-1.));
#1679=DIRECTION('',(-1.,0.,1.56105599637958E-16));
#1680=DIRECTION('',(0.,1.,0.));
#1681=DIRECTION('',(0.,1.,0.));
#1682=DIRECTION('',(0.,1.,0.));
#1683=DIRECTION('',(1.,0.,-1.56105599637958E-16));
#1684=DIRECTION('',(0.,-1.,0.));
#1685=DIRECTION('',(1.,0.,-1.56105599637958E-16));
#1686=DIRECTION('',(-1.56105599637958E-16,0.,-1.));
#1687=DIRECTION('',(1.56105599637958E-16,0.,1.));
#1688=DIRECTION('',(0.,1.,0.));
#1689=DIRECTION('',(0.,1.,0.));
#1690=DIRECTION('',(-1.,0.,2.42830932770157E-16));
#1691=DIRECTION('',(2.42830932770157E-16,0.,1.));
#1692=DIRECTION('',(2.42830932770157E-16,0.,1.));
#1693=DIRECTION('',(0.,-1.,0.));
#1694=DIRECTION('',(0.,-1.,0.));
#1695=DIRECTION('',(-1.21415466385078E-16,0.,1.));
#1696=DIRECTION('',(1.,0.,1.21415466385078E-16));
#1697=DIRECTION('',(0.,-1.,0.));
#1698=DIRECTION('',(0.,-1.,0.));
#1699=DIRECTION('',(-1.21415466385078E-16,0.,1.));
#1700=DIRECTION('',(1.,0.,1.21415466385078E-16));
#1701=DIRECTION('',(0.,-1.,0.));
#1702=DIRECTION('',(0.,-1.,0.));
#1703=DIRECTION('',(0.,0.,-1.));
#1704=DIRECTION('',(0.,-1.,0.));
#1705=DIRECTION('',(0.,0.,-1.));
#1706=DIRECTION('',(1.56105599637958E-16,0.,1.));
#1707=DIRECTION('',(0.,-1.,0.));
#1708=DIRECTION('',(0.,0.,-1.));
#1709=DIRECTION('',(0.,-1.,0.));
#1710=DIRECTION('',(0.,0.,-1.));
#1711=DIRECTION('',(0.,-1.,0.));
#1712=DIRECTION('',(0.,0.,-1.));
#1713=DIRECTION('',(0.,-1.,0.));
#1714=DIRECTION('',(0.,0.,-1.));
#1715=DIRECTION('',(0.,-1.,0.));
#1716=DIRECTION('',(0.,0.,-1.));
#1717=DIRECTION('',(0.,-1.,0.));
#1718=DIRECTION('',(0.,0.,-1.));
#1719=DIRECTION('',(0.,-1.,0.));
#1720=DIRECTION('',(0.,0.,-1.));
#1721=DIRECTION('',(0.,-1.,0.));
#1722=DIRECTION('',(0.,0.,-1.));
#1723=DIRECTION('',(-1.,0.,1.56105599637958E-16));
#1724=DIRECTION('',(1.56105599637958E-16,0.,1.));
#1725=DIRECTION('',(0.,-1.,0.));
#1726=DIRECTION('',(0.,1.,0.));
#1727=DIRECTION('',(0.,0.,1.));
#1728=DIRECTION('',(0.,1.,0.));
#1729=DIRECTION('',(0.,0.,1.));
#1730=DIRECTION('',(0.,-1.,0.));
#1731=DIRECTION('',(0.,0.,-1.));
#1732=DIRECTION('',(0.,-1.,0.));
#1733=DIRECTION('',(0.,0.,-1.));
#1734=DIRECTION('',(0.,-1.,0.));
#1735=DIRECTION('',(0.,0.,-1.));
#1736=DIRECTION('',(0.,1.,0.));
#1737=DIRECTION('',(0.,0.,1.));
#1738=DIRECTION('',(0.,1.,0.));
#1739=DIRECTION('',(0.,0.,1.));
#1740=DIRECTION('',(0.,1.,0.));
#1741=DIRECTION('',(0.,-1.,0.));
#1742=DIRECTION('',(0.,0.,-1.));
#1743=DIRECTION('',(0.,-1.,0.));
#1744=DIRECTION('',(0.,0.,-1.));
#1745=DIRECTION('',(0.,-1.,0.));
#1746=DIRECTION('',(0.,0.,-1.));
#1747=DIRECTION('',(0.,-1.,0.));
#1748=DIRECTION('',(0.,0.,-1.));
#1749=DIRECTION('',(-0.851658316704544,0.,0.524097425664335));
#1750=DIRECTION('',(0.,1.,0.));
#1751=DIRECTION('',(0.,-1.,0.));
#1752=DIRECTION('',(-0.851658316704544,0.,0.524097425664335));
#1753=DIRECTION('',(-0.524097425664335,0.,-0.851658316704544));
#1754=DIRECTION('',(-0.851658316704544,0.,0.524097425664335));
#1755=DIRECTION('',(0.524097425664335,0.,0.851658316704544));
#1756=DIRECTION('',(0.851658316704544,0.,0.524097425664334));
#1757=DIRECTION('',(0.,-1.,0.));
#1758=DIRECTION('',(0.851658316704544,0.,0.524097425664334));
#1759=DIRECTION('',(-0.524097425664334,0.,0.851658316704544));
#1760=DIRECTION('',(0.851658316704544,0.,0.524097425664334));
#1761=DIRECTION('',(0.524097425664334,0.,-0.851658316704544));
#1762=DIRECTION('',(0.,1.,0.));
#1763=DIRECTION('',(-0.447213595499958,0.,0.894427190999916));
#1764=DIRECTION('',(0.,1.,0.));
#1765=DIRECTION('',(0.447213595499958,0.,0.894427190999916));
#1766=DIRECTION('',(0.,-1.,0.));
#1767=DIRECTION('',(0.08304547985374,0.99654575824488,-2.01660113352289E-17));
#1768=DIRECTION('',(-2.42830932770157E-16,0.,-1.));
#1769=DIRECTION('',(0.08304547985374,0.99654575824488,-2.01660113352289E-17));
#1770=DIRECTION('',(0.99654575824488,-0.0830454798537401,-2.41992136022747E-16));
#1771=DIRECTION('',(0.08304547985374,0.99654575824488,-2.01660113352289E-17));
#1772=DIRECTION('',(-0.99654575824488,0.0830454798537401,-1.68050094460242E-18));
#1773=DIRECTION('',(0.08304547985374,0.99654575824488,-2.01660113352289E-17));
#1774=DIRECTION('',(0.99654575824488,-0.0830454798537401,1.68050094460242E-18));
#1775=DIRECTION('',(-0.0830454798537399,0.99654575824488,2.01660113352289E-17));
#1776=DIRECTION('',(2.42830932770157E-16,0.,1.));
#1777=DIRECTION('',(-0.0830454798537399,0.99654575824488,2.01660113352289E-17));
#1778=DIRECTION('',(-0.99654575824488,-0.0830454798537399,2.41992136022747E-16));
#1779=DIRECTION('',(-0.0830454798537399,0.99654575824488,2.01660113352289E-17));
#1780=DIRECTION('',(-0.99654575824488,-0.0830454798537399,-1.68050094460241E-18));
#1781=DIRECTION('',(-0.0830454798537399,0.99654575824488,2.01660113352289E-17));
#1782=DIRECTION('',(0.99654575824488,0.0830454798537399,1.68050094460241E-18));
#1783=DIRECTION('',(0.,0.,-1.));
#1784=DIRECTION('',(-1.,0.,0.));
#1785=DIRECTION('',(0.,1.,0.));
#1786=DIRECTION('',(0.,0.,1.));
#1787=DIRECTION('',(0.,1.,0.));
#1788=DIRECTION('',(0.,0.,1.));
#1789=DIRECTION('',(0.,-1.,0.));
#1790=DIRECTION('',(0.,0.,-1.));
#1791=DIRECTION('',(0.,-1.,0.));
#1792=DIRECTION('',(0.,0.,-1.));
#1793=DIRECTION('',(0.,-1.,0.));
#1794=DIRECTION('',(0.,0.,-1.));
#1795=DIRECTION('',(1.36592399683213E-16,0.,1.));
#1796=DIRECTION('',(1.,0.,-1.36592399683213E-16));
#1797=DIRECTION('',(1.36592399683213E-16,0.,1.));
#1798=DIRECTION('',(1.,0.,-1.36592399683213E-16));
#1799=DIRECTION('',(0.,0.,-1.));
#1800=DIRECTION('',(-1.,0.,0.));
#1801=DIRECTION('',(0.,0.,-1.));
#1802=DIRECTION('',(-1.,0.,0.));
#1803=DIRECTION('',(0.,0.,-1.));
#1804=DIRECTION('',(1.,0.,0.));
#1805=DIRECTION('',(0.,0.,-1.));
#1806=DIRECTION('',(-1.,0.,0.));
#1807=DIRECTION('',(0.,0.,-1.));
#1808=DIRECTION('',(-1.,0.,0.));
#1809=DIRECTION('',(-1.,0.,0.));
#1810=DIRECTION('',(0.,0.,1.));
#1811=DIRECTION('',(1.,0.,0.));
#1812=DIRECTION('',(0.,0.,-1.));
#1813=DIRECTION('',(-1.,0.,0.));
#1814=DIRECTION('',(0.,0.,1.));
#1815=DIRECTION('',(1.,0.,0.));
#1816=DIRECTION('',(0.,0.,-1.));
#1817=CARTESIAN_POINT('',(0.,0.,0.));
#1818=CARTESIAN_POINT('',(-0.05715,-0.003175,0.003175));
#1819=CARTESIAN_POINT('',(-0.05715,-0.003175,-0.009525));
#1820=CARTESIAN_POINT('',(-0.05715,-0.0015875,-0.009525));
#1821=CARTESIAN_POINT('',(-0.05715,-0.003175,-0.009525));
#1822=CARTESIAN_POINT('',(-0.05715,-0.0015875,-0.02159));
#1823=CARTESIAN_POINT('',(-0.05715,-0.0015875,-0.0127));
#1824=CARTESIAN_POINT('',(-0.05715,-0.003175,-0.0127));
#1825=CARTESIAN_POINT('',(-0.05715,-0.003175,-0.0127));
#1826=CARTESIAN_POINT('',(-0.05715,-0.003175,0.003175));
#1827=CARTESIAN_POINT('',(-0.034925,-0.003175,0.003175));
#1828=CARTESIAN_POINT('',(-0.053975,-0.003175,-0.0142875));
#1829=CARTESIAN_POINT('',(-0.053975,-0.003175,-0.015748));
#1830=CARTESIAN_POINT('',(-0.00254,-0.003175,0.));
#1831=CARTESIAN_POINT('',(-0.0127,-0.003175,-0.01651));
#1832=CARTESIAN_POINT('',(-0.00332153846153847,-0.003175,-0.00127));
#1833=CARTESIAN_POINT('',(-0.034925,-0.003175,-0.00127));
#1834=CARTESIAN_POINT('',(-0.0238125,-0.003175,-0.00127));
#1835=CARTESIAN_POINT('',(-0.0238125,-0.003175,0.003175));
#1836=CARTESIAN_POINT('',(-0.0238125,-0.003175,-0.0047625));
#1837=CARTESIAN_POINT('',(-0.0301625,-0.003175,-0.0047625));
#1838=CARTESIAN_POINT('',(-0.0301625,-0.003175,-0.0111125));
#1839=CARTESIAN_POINT('',(-0.034925,-0.003175,-0.0111125));
#1840=CARTESIAN_POINT('',(-0.0460375,-0.003175,-0.0111125));
#1841=CARTESIAN_POINT('',(-0.0460375,-0.003175,-0.0047625));
#1842=CARTESIAN_POINT('',(-0.050237630206315,-0.003175,-0.009525));
#1843=CARTESIAN_POINT('',(-0.05493688210845,-0.003175,-0.009525));
#1844=CARTESIAN_POINT('',(-0.0508,-0.003175,-0.0127));
#1845=CARTESIAN_POINT('',(-0.0508,-0.003175,-0.01905));
#1846=CARTESIAN_POINT('',(-0.034925,-0.003175,-0.01905));
#1847=CARTESIAN_POINT('',(-0.01778,-0.003175,-0.01905));
#1848=CARTESIAN_POINT('',(-0.022606,-0.003175,-0.021463));
#1849=CARTESIAN_POINT('',(-0.0381,-0.0015875,-0.02159));
#1850=CARTESIAN_POINT('',(-0.053975,-0.0015875,-0.0142875));
#1851=CARTESIAN_POINT('',(-0.053975,-0.0015875,-0.015748));
#1852=CARTESIAN_POINT('',(-0.053975,-0.0015875,0.0206375));
#1853=CARTESIAN_POINT('',(-0.053975,-0.0015875,0.019177));
#1854=CARTESIAN_POINT('',(-0.0381,-0.0015875,-0.009525));
#1855=CARTESIAN_POINT('',(-0.050237630206315,-0.0015875,-0.009525));
#1856=CARTESIAN_POINT('',(-0.0460375,-0.0015875,-0.0047625));
#1857=CARTESIAN_POINT('',(-0.0460375,-0.0015875,-0.0111125));
#1858=CARTESIAN_POINT('',(-0.0381,-0.0015875,-0.0111125));
#1859=CARTESIAN_POINT('',(-0.0301625,-0.0015875,-0.0111125));
#1860=CARTESIAN_POINT('',(-0.0301625,-0.0015875,-0.0047625));
#1861=CARTESIAN_POINT('',(-0.0238125,-0.0015875,-0.0047625));
#1862=CARTESIAN_POINT('',(-0.0238125,-0.0015875,0.003175));
#1863=CARTESIAN_POINT('',(-0.0238125,-0.0015875,0.0111125));
#1864=CARTESIAN_POINT('',(-0.0301625,-0.0015875,0.0111125));
#1865=CARTESIAN_POINT('',(-0.0301625,-0.0015875,0.0174625));
#1866=CARTESIAN_POINT('',(-0.0381,-0.0015875,0.0174625));
#1867=CARTESIAN_POINT('',(-0.0460375,-0.0015875,0.0174625));
#1868=CARTESIAN_POINT('',(-0.0460375,-0.0015875,0.0111125));
#1869=CARTESIAN_POINT('',(-0.0502376302063151,-0.0015875,0.015875));
#1870=CARTESIAN_POINT('',(-0.0381,-0.0015875,0.015875));
#1871=CARTESIAN_POINT('',(-0.05715,-0.0015875,0.015875));
#1872=CARTESIAN_POINT('',(-0.05715,-0.0015875,-0.02159));
#1873=CARTESIAN_POINT('',(-0.05715,-0.0015875,0.01905));
#1874=CARTESIAN_POINT('',(-0.0508,-0.0015875,0.01905));
#1875=CARTESIAN_POINT('',(-0.0508,-0.0015875,0.0254));
#1876=CARTESIAN_POINT('',(-0.0381,-0.0015875,0.0254));
#1877=CARTESIAN_POINT('',(-0.01905,-0.0015875,0.0254));
#1878=CARTESIAN_POINT('',(-0.01905,-0.0015875,-0.02159));
#1879=CARTESIAN_POINT('',(-0.01905,-0.0015875,0.0057022680902508));
#1880=CARTESIAN_POINT('',(-0.0177165,-0.0015875,0.003175));
#1881=CARTESIAN_POINT('',(-0.01905,-0.0015875,0.000647731909749189));
#1882=CARTESIAN_POINT('',(-0.01905,-0.0015875,-0.02159));
#1883=CARTESIAN_POINT('',(-0.01905,-0.0015875,-0.01905));
#1884=CARTESIAN_POINT('',(-0.034925,-0.0015875,-0.01905));
#1885=CARTESIAN_POINT('',(-0.0508,-0.0015875,-0.01905));
#1886=CARTESIAN_POINT('',(-0.0508,-0.0015875,-0.0127));
#1887=CARTESIAN_POINT('',(-0.0460375,0.01905,-0.0047625));
#1888=CARTESIAN_POINT('',(-0.050237630206315,0.01905,-0.009525));
#1889=CARTESIAN_POINT('',(-0.0460375,0.01905,-0.0111125));
#1890=CARTESIAN_POINT('',(-0.01905,1.3010426069826E-18,-0.02159));
#1891=CARTESIAN_POINT('',(-0.01905,0.0127,0.00064773190974919));
#1892=CARTESIAN_POINT('',(-0.01905,0.0015875,0.000647731909749189));
#1893=CARTESIAN_POINT('',(-0.01905,0.0015875,-0.02159));
#1894=CARTESIAN_POINT('',(-0.01905,0.0015875,-0.01905));
#1895=CARTESIAN_POINT('',(-0.01905,-0.003175,-0.01905));
#1896=CARTESIAN_POINT('',(-0.05715,-0.003175,0.003175));
#1897=CARTESIAN_POINT('',(-0.05715,-0.003175,0.015875));
#1898=CARTESIAN_POINT('',(-0.05715,-0.003175,0.015875));
#1899=CARTESIAN_POINT('',(-0.05715,-0.003175,0.003175));
#1900=CARTESIAN_POINT('',(-0.05715,-0.003175,0.01905));
#1901=CARTESIAN_POINT('',(-0.05715,-0.003175,0.01905));
#1902=CARTESIAN_POINT('',(-0.034925,-0.003175,-0.01905));
#1903=CARTESIAN_POINT('',(-0.034925,0.0015875,-0.01905));
#1904=CARTESIAN_POINT('',(-0.0508,0.0015875,-0.01905));
#1905=CARTESIAN_POINT('',(-0.0508,0.003175,-0.01905));
#1906=CARTESIAN_POINT('',(-0.0508,0.003175,-0.01905));
#1907=CARTESIAN_POINT('',(-0.034925,0.003175,-0.01905));
#1908=CARTESIAN_POINT('',(-0.01778,0.003175,-0.01905));
#1909=CARTESIAN_POINT('',(-0.01778,-0.003175,-0.01905));
#1910=CARTESIAN_POINT('',(-0.0508,-0.0015875,-0.01905));
#1911=CARTESIAN_POINT('',(-0.0238125,0.01905,0.003175));
#1912=CARTESIAN_POINT('',(-0.0238125,0.003175,0.003175));
#1913=CARTESIAN_POINT('',(-0.0238125,0.003175,0.0111125));
#1914=CARTESIAN_POINT('',(-0.0238125,0.003175,0.00762));
#1915=CARTESIAN_POINT('',(-0.0238125,0.003175,1.91518352863844E-33));
#1916=CARTESIAN_POINT('',(-0.0238125,0.003175,-0.00127));
#1917=CARTESIAN_POINT('',(-0.0238125,0.003175,0.003175));
#1918=CARTESIAN_POINT('',(-0.0238125,0.003175,-0.0047625));
#1919=CARTESIAN_POINT('',(-0.0238125,0.0015875,-0.0047625));
#1920=CARTESIAN_POINT('',(-0.0238125,0.0015875,-0.0047625));
#1921=CARTESIAN_POINT('',(-0.0238125,0.0015875,0.003175));
#1922=CARTESIAN_POINT('',(-0.0238125,0.0015875,0.0111125));
#1923=CARTESIAN_POINT('',(-0.0238125,0.01905,0.0111125));
#1924=CARTESIAN_POINT('',(-0.0381,0.01905,0.0174625));
#1925=CARTESIAN_POINT('',(-0.034925,0.003175,0.0174625));
#1926=CARTESIAN_POINT('',(-0.0301625,0.003175,0.0174625));
#1927=CARTESIAN_POINT('',(-0.0460375,0.003175,0.0174625));
#1928=CARTESIAN_POINT('',(-0.0301625,0.01905,0.0174625));
#1929=CARTESIAN_POINT('',(-0.0301625,0.0015875,0.0174625));
#1930=CARTESIAN_POINT('',(-0.0381,0.0015875,0.0174625));
#1931=CARTESIAN_POINT('',(-0.0460375,0.0015875,0.0174625));
#1932=CARTESIAN_POINT('',(-0.0460375,0.003175,0.0174625));
#1933=CARTESIAN_POINT('',(-0.0523875,0.01905,0.003175));
#1934=CARTESIAN_POINT('',(-0.0523875,0.0015875,0.003175));
#1935=CARTESIAN_POINT('',(-0.0523875,0.0015875,-0.0047625));
#1936=CARTESIAN_POINT('',(-0.0523875,0.0015875,0.0111125));
#1937=CARTESIAN_POINT('',(-0.0523875,0.01905,-0.0047625));
#1938=CARTESIAN_POINT('',(-0.0523875,0.003175,-0.0047625));
#1939=CARTESIAN_POINT('',(-0.0523875,0.003175,0.003175));
#1940=CARTESIAN_POINT('',(-0.0523875,0.003175,0.0111125));
#1941=CARTESIAN_POINT('',(-0.0523875,0.0015875,0.0111125));
#1942=CARTESIAN_POINT('',(-0.0381,0.01905,-0.0111125));
#1943=CARTESIAN_POINT('',(-0.0381,0.0015875,-0.0111125));
#1944=CARTESIAN_POINT('',(-0.0460375,0.0015875,-0.0111125));
#1945=CARTESIAN_POINT('',(-0.0301625,0.0015875,-0.0111125));
#1946=CARTESIAN_POINT('',(-0.0301625,0.003175,-0.0111125));
#1947=CARTESIAN_POINT('',(-0.0301625,0.003175,-0.0111125));
#1948=CARTESIAN_POINT('',(-0.034925,0.003175,-0.0111125));
#1949=CARTESIAN_POINT('',(-0.0460375,0.003175,-0.0111125));
#1950=CARTESIAN_POINT('',(-0.0460375,0.01905,-0.0111125));
#1951=CARTESIAN_POINT('',(0.,-0.00635,0.00635));
#1952=CARTESIAN_POINT('',(0.,-0.00635,0.));
#1953=CARTESIAN_POINT('',(0.03175,-0.00635,0.));
#1954=CARTESIAN_POINT('',(0.0142875,-0.00635,0.));
#1955=CARTESIAN_POINT('',(0.03175,-0.00635,0.00635));
#1956=CARTESIAN_POINT('',(0.03175,-0.00635,0.00635));
#1957=CARTESIAN_POINT('',(0.,-0.00635,0.00635));
#1958=CARTESIAN_POINT('',(0.0142875,-0.00635,0.00635));
#1959=CARTESIAN_POINT('',(0.0142875,-0.00635,0.00635));
#1960=CARTESIAN_POINT('',(0.,0.00635,0.00635));
#1961=CARTESIAN_POINT('',(0.,0.00635,0.00635));
#1962=CARTESIAN_POINT('',(0.03175,0.00635,0.00635));
#1963=CARTESIAN_POINT('',(0.0142875,0.00635,0.00635));
#1964=CARTESIAN_POINT('',(0.03175,0.00635,0.));
#1965=CARTESIAN_POINT('',(0.03175,0.00635,0.));
#1966=CARTESIAN_POINT('',(0.,0.00635,0.));
#1967=CARTESIAN_POINT('',(0.0142875,0.00635,0.));
#1968=CARTESIAN_POINT('',(0.0142875,0.00635,0.00635));
#1969=CARTESIAN_POINT('',(0.,1.7347234759768E-18,0.00635));
#1970=CARTESIAN_POINT('',(0.00381,-1.37930879464167E-19,0.00635));
#1971=CARTESIAN_POINT('',(0.00508,-1.37930879464167E-19,0.00635));
#1972=CARTESIAN_POINT('',(0.03048,-3.40406389279016E-18,0.00635));
#1973=CARTESIAN_POINT('',(0.03175,-3.40406389279016E-18,0.00635));
#1974=CARTESIAN_POINT('',(-0.00254,-0.003175,0.00635));
#1975=CARTESIAN_POINT('',(-0.00254,0.004445,0.00635));
#1976=CARTESIAN_POINT('',(-0.00254,-0.004445,0.00635));
#1977=CARTESIAN_POINT('',(-0.0238125,-0.004445,0.00635));
#1978=CARTESIAN_POINT('',(-0.0085725,-0.004445,0.00635));
#1979=CARTESIAN_POINT('',(-0.00042698275862069,-0.00512379310344828,0.00635));
#1980=CARTESIAN_POINT('',(0.03175,1.7347234759768E-18,0.00635));
#1981=CARTESIAN_POINT('',(-0.00042698275862069,0.00512379310344828,0.00635));
#1982=CARTESIAN_POINT('',(-0.0085725000000001,0.004445,0.00635));
#1983=CARTESIAN_POINT('',(0.,0.004445,0.00635));
#1984=CARTESIAN_POINT('',(0.,1.7347234759768E-18,0.));
#1985=CARTESIAN_POINT('',(0.0142875,-0.00635,0.));
#1986=CARTESIAN_POINT('',(-0.0085725,-0.004445,0.));
#1987=CARTESIAN_POINT('',(0.,-0.004445,0.));
#1988=CARTESIAN_POINT('',(-0.00254,-0.004445,0.));
#1989=CARTESIAN_POINT('',(-0.00254,1.7347234759768E-18,0.));
#1990=CARTESIAN_POINT('',(-0.00254,-1.95156391047391E-18,0.));
#1991=CARTESIAN_POINT('',(-6.88468379528295E-18,-1.95156391047391E-18,0.));
#1992=CARTESIAN_POINT('',(-0.000455664699891068,-0.00249879364519625,0.));
#1993=CARTESIAN_POINT('',(0.00675716765005446,-0.00381408156199594,0.));
#1994=CARTESIAN_POINT('',(0.01397,-0.00512936947879561,0.));
#1995=CARTESIAN_POINT('',(0.017145,-2.60208521396521E-18,0.));
#1996=CARTESIAN_POINT('',(0.02032,-0.00512936947879561,0.));
#1997=CARTESIAN_POINT('',(0.00155921166950206,-0.00855047189786497,0.));
#1998=CARTESIAN_POINT('',(0.034745664699891,-0.00249879364519625,0.));
#1999=CARTESIAN_POINT('',(0.03429,-1.95156391047391E-18,0.));
#2000=CARTESIAN_POINT('',(0.034745664699891,0.00249879364519625,0.));
#2001=CARTESIAN_POINT('',(0.00155921166950206,0.00855047189786497,0.));
#2002=CARTESIAN_POINT('',(0.02032,0.00512936947879561,0.));
#2003=CARTESIAN_POINT('',(0.017145,2.60208521396521E-18,0.));
#2004=CARTESIAN_POINT('',(0.01397,0.00512936947879561,0.));
#2005=CARTESIAN_POINT('',(0.00675716765005446,0.00381408156199594,0.));
#2006=CARTESIAN_POINT('',(-0.000455664699891068,0.00249879364519625,0.));
#2007=CARTESIAN_POINT('',(-6.88468379528295E-18,-1.95156391047391E-18,0.));
#2008=CARTESIAN_POINT('',(-0.00254,1.7347234759768E-18,0.));
#2009=CARTESIAN_POINT('',(-0.00254,0.004445,0.));
#2010=CARTESIAN_POINT('',(-0.0238125,0.004445,0.));
#2011=CARTESIAN_POINT('',(-0.0085725000000001,0.004445,0.));
#2012=CARTESIAN_POINT('',(-0.0238125,0.003175,0.));
#2013=CARTESIAN_POINT('',(0.03175,1.7347234759768E-18,0.));
#2014=CARTESIAN_POINT('',(-0.034925,-0.003175,0.003175));
#2015=CARTESIAN_POINT('',(-0.0238125,-0.003175,0.003175));
#2016=CARTESIAN_POINT('',(-0.0238125,-0.003175,0.0111125));
#2017=CARTESIAN_POINT('',(-0.0238125,-0.003175,0.00762));
#2018=CARTESIAN_POINT('',(-0.00254,-0.003175,0.00762));
#2019=CARTESIAN_POINT('',(-0.00332153846153847,-0.003175,0.00762));
#2020=CARTESIAN_POINT('',(-0.0127,-0.003175,0.02286));
#2021=CARTESIAN_POINT('',(-0.0127,-0.003175,0.02286));
#2022=CARTESIAN_POINT('',(-0.022606,-0.003175,0.027813));
#2023=CARTESIAN_POINT('',(-0.01778,-0.003175,0.0254));
#2024=CARTESIAN_POINT('',(-0.034925,-0.003175,0.0254));
#2025=CARTESIAN_POINT('',(-0.0508,-0.003175,0.0254));
#2026=CARTESIAN_POINT('',(-0.0508,-0.003175,0.01905));
#2027=CARTESIAN_POINT('',(-0.0549368821084499,-0.003175,0.015875));
#2028=CARTESIAN_POINT('',(-0.0502376302063151,-0.003175,0.015875));
#2029=CARTESIAN_POINT('',(-0.0460375,-0.003175,0.0111125));
#2030=CARTESIAN_POINT('',(-0.0460375,-0.003175,0.0174625));
#2031=CARTESIAN_POINT('',(-0.034925,-0.003175,0.0174625));
#2032=CARTESIAN_POINT('',(-0.0301625,-0.003175,0.0174625));
#2033=CARTESIAN_POINT('',(-0.0301625,-0.003175,0.0111125));
#2034=CARTESIAN_POINT('',(-0.053975,-0.003175,0.0206375));
#2035=CARTESIAN_POINT('',(-0.053975,-0.003175,0.019177));
#2036=CARTESIAN_POINT('',(-0.034925,0.003175,0.003175));
#2037=CARTESIAN_POINT('',(-0.053975,0.003175,0.0206375));
#2038=CARTESIAN_POINT('',(-0.053975,0.003175,0.019177));
#2039=CARTESIAN_POINT('',(-0.053975,0.003175,-0.0142875));
#2040=CARTESIAN_POINT('',(-0.053975,0.003175,-0.015748));
#2041=CARTESIAN_POINT('',(-0.00254,0.003175,-0.00127));
#2042=CARTESIAN_POINT('',(-0.00332153846153847,0.003175,-0.00127));
#2043=CARTESIAN_POINT('',(-0.0100182832618026,0.003175,-0.0121522103004292));
#2044=CARTESIAN_POINT('',(-0.0127,0.003175,-0.01651));
#2045=CARTESIAN_POINT('',(-0.0127,0.003175,-0.01651));
#2046=CARTESIAN_POINT('',(-0.0508,0.003175,-0.0127));
#2047=CARTESIAN_POINT('',(-0.05715,0.003175,-0.0127));
#2048=CARTESIAN_POINT('',(-0.05715,0.003175,0.003175));
#2049=CARTESIAN_POINT('',(-0.05715,0.003175,0.01905));
#2050=CARTESIAN_POINT('',(-0.0508,0.003175,0.01905));
#2051=CARTESIAN_POINT('',(-0.0508,0.003175,0.0254));
#2052=CARTESIAN_POINT('',(-0.034925,0.003175,0.0254));
#2053=CARTESIAN_POINT('',(-0.01778,0.003175,0.0254));
#2054=CARTESIAN_POINT('',(-0.01778,0.003175,0.0254));
#2055=CARTESIAN_POINT('',(-0.0127,0.003175,0.02286));
#2056=CARTESIAN_POINT('',(-0.0100182832618026,0.003175,0.0185022103004292));
#2057=CARTESIAN_POINT('',(-0.00332153846153847,0.003175,0.00762));
#2058=CARTESIAN_POINT('',(-0.034925,0.003175,0.00762));
#2059=CARTESIAN_POINT('',(-0.0301625,0.003175,0.0111125));
#2060=CARTESIAN_POINT('',(-0.0460375,0.003175,0.0111125));
#2061=CARTESIAN_POINT('',(-0.0460375,0.003175,-0.0047625));
#2062=CARTESIAN_POINT('',(-0.0301625,0.003175,-0.0047625));
#2063=CARTESIAN_POINT('',(0.0275328323499456,-0.00381408156199594,0.00254));
#2064=CARTESIAN_POINT('',(0.02032,-0.00512936947879561,0.00254));
#2065=CARTESIAN_POINT('',(0.02032,-0.00512936947879561,0.00254));
#2066=CARTESIAN_POINT('',(0.0275328323499456,-0.00381408156199594,0.00254));
#2067=CARTESIAN_POINT('',(0.034745664699891,-0.00249879364519625,0.00254));
#2068=CARTESIAN_POINT('',(0.034745664699891,-0.00249879364519625,0.00254));
#2069=CARTESIAN_POINT('',(0.03429,-1.95156391047391E-18,0.00254));
#2070=CARTESIAN_POINT('',(0.03429,-1.95156391047391E-18,0.00254));
#2071=CARTESIAN_POINT('',(0.034745664699891,0.00249879364519625,0.00254));
#2072=CARTESIAN_POINT('',(0.034745664699891,0.00249879364519625,0.00254));
#2073=CARTESIAN_POINT('',(0.0275328323499456,0.00381408156199594,0.00254));
#2074=CARTESIAN_POINT('',(0.0275328323499456,0.00381408156199594,0.00254));
#2075=CARTESIAN_POINT('',(0.02032,0.00512936947879561,0.00254));
#2076=CARTESIAN_POINT('',(0.02032,0.00512936947879561,0.00254));
#2077=CARTESIAN_POINT('',(0.00675716765005446,-0.00381408156199594,0.00254));
#2078=CARTESIAN_POINT('',(-0.000455664699891068,-0.00249879364519625,0.00254));
#2079=CARTESIAN_POINT('',(-0.000455664699891068,-0.00249879364519625,0.00254));
#2080=CARTESIAN_POINT('',(0.00675716765005446,-0.00381408156199594,0.00254));
#2081=CARTESIAN_POINT('',(0.01397,-0.00512936947879561,0.00254));
#2082=CARTESIAN_POINT('',(0.01397,-0.00512936947879561,0.00254));
#2083=CARTESIAN_POINT('',(-6.88468379528295E-18,-1.95156391047391E-18,0.00254));
#2084=CARTESIAN_POINT('',(-0.000455664699891068,0.00249879364519625,0.00254));
#2085=CARTESIAN_POINT('',(-0.000455664699891068,0.00249879364519625,0.00254));
#2086=CARTESIAN_POINT('',(-6.88468379528295E-18,-1.95156391047391E-18,0.00254));
#2087=CARTESIAN_POINT('',(0.00675716765005446,0.00381408156199594,0.00254));
#2088=CARTESIAN_POINT('',(0.01397,0.00512936947879561,0.00254));
#2089=CARTESIAN_POINT('',(0.01397,0.00512936947879561,0.00254));
#2090=CARTESIAN_POINT('',(0.00675716765005446,0.00381408156199594,0.00254));
#2091=CARTESIAN_POINT('',(0.017145,2.60208521396521E-18,0.00254));
#2092=CARTESIAN_POINT('',(0.017145,2.60208521396521E-18,0.00254));
#2093=CARTESIAN_POINT('',(0.017145,-2.60208521396521E-18,0.00254));
#2094=CARTESIAN_POINT('',(0.017145,-2.60208521396521E-18,0.00254));
#2095=CARTESIAN_POINT('',(0.,3.46944695195361E-18,0.00254));
#2096=CARTESIAN_POINT('',(0.00381,-1.37930879464167E-19,0.00254));
#2097=CARTESIAN_POINT('',(0.00254,-1.37930879464167E-19,0.00254));
#2098=CARTESIAN_POINT('',(0.03048,-3.40406389279016E-18,0.00254));
#2099=CARTESIAN_POINT('',(0.02921,-3.40406389279016E-18,0.00254));
#2100=CARTESIAN_POINT('',(0.017145,-2.83538042920278E-18,0.00254));
#2101=CARTESIAN_POINT('',(0.013335,-2.83538042920278E-18,0.00254));
#2102=CARTESIAN_POINT('',(-0.034925,-0.003175,0.0254));
#2103=CARTESIAN_POINT('',(-0.0508,-0.003175,0.0254));
#2104=CARTESIAN_POINT('',(-0.01778,0.003175,0.0254));
#2105=CARTESIAN_POINT('',(-0.0508,-0.003175,0.0254));
#2106=CARTESIAN_POINT('',(-0.0508,0.0015875,0.0254));
#2107=CARTESIAN_POINT('',(-0.0381,0.0015875,0.0254));
#2108=CARTESIAN_POINT('',(-0.01905,0.0015875,0.0254));
#2109=CARTESIAN_POINT('',(-0.01905,1.3010426069826E-18,0.0254));
#2110=CARTESIAN_POINT('',(-0.05715,-0.003175,0.003175));
#2111=CARTESIAN_POINT('',(-0.05715,0.0015875,-0.02159));
#2112=CARTESIAN_POINT('',(-0.05715,0.0015875,-0.0127));
#2113=CARTESIAN_POINT('',(-0.05715,0.0015875,0.01905));
#2114=CARTESIAN_POINT('',(-0.05715,-0.003175,0.01905));
#2115=CARTESIAN_POINT('',(-0.05715,0.0015875,-0.0127));
#2116=CARTESIAN_POINT('',(-0.0238125,0.01905,0.003175));
#2117=CARTESIAN_POINT('',(-0.0238125,-0.003175,0.003175));
#2118=CARTESIAN_POINT('',(-0.0238125,0.01905,0.0111125));
#2119=CARTESIAN_POINT('',(-0.0238125,-0.003175,-0.0047625));
#2120=CARTESIAN_POINT('',(-0.0381,0.01905,0.0174625));
#2121=CARTESIAN_POINT('',(-0.0301625,0.01905,0.0174625));
#2122=CARTESIAN_POINT('',(-0.0460375,-0.0015875,0.0174625));
#2123=CARTESIAN_POINT('',(-0.0381,0.01905,-0.0111125));
#2124=CARTESIAN_POINT('',(-0.0301625,-0.0015875,-0.0111125));
#2125=CARTESIAN_POINT('',(-0.0381,0.0015875,-0.02159));
#2126=CARTESIAN_POINT('',(-0.0177165,0.0015875,0.003175));
#2127=CARTESIAN_POINT('',(-0.01905,0.0015875,0.00570226809025081));
#2128=CARTESIAN_POINT('',(-0.01905,0.0015875,-0.02159));
#2129=CARTESIAN_POINT('',(-0.0508,0.0015875,0.01905));
#2130=CARTESIAN_POINT('',(-0.0508,0.0015875,-0.0127));
#2131=CARTESIAN_POINT('',(-0.053975,0.0015875,0.0206375));
#2132=CARTESIAN_POINT('',(-0.053975,0.0015875,0.019177));
#2133=CARTESIAN_POINT('',(-0.053975,0.0015875,-0.0142875));
#2134=CARTESIAN_POINT('',(-0.053975,0.0015875,-0.015748));
#2135=CARTESIAN_POINT('',(-0.0460375,0.0015875,-0.0047625));
#2136=CARTESIAN_POINT('',(-0.0460375,0.0015875,0.0111125));
#2137=CARTESIAN_POINT('',(-0.0301625,0.0015875,0.0111125));
#2138=CARTESIAN_POINT('',(-0.0301625,0.0015875,-0.0047625));
#2139=CARTESIAN_POINT('',(-0.01905,1.3010426069826E-18,-0.02159));
#2140=CARTESIAN_POINT('',(-0.01905,0.0127,0.00570226809025081));
#2141=CARTESIAN_POINT('',(-0.0301625,0.01905,-0.0047625));
#2142=CARTESIAN_POINT('',(-0.0301625,0.01905,-0.0047625));
#2143=CARTESIAN_POINT('',(-0.0301625,0.01905,0.0111125));
#2144=CARTESIAN_POINT('',(-0.0301625,0.01905,0.0111125));
#2145=CARTESIAN_POINT('',(-0.0460375,0.01905,-0.0047625));
#2146=CARTESIAN_POINT('',(-0.0460375,0.01905,0.0111125));
#2147=CARTESIAN_POINT('',(-0.0460375,0.01905,0.0111125));
#2148=CARTESIAN_POINT('',(-0.0502376302063151,0.01905,0.015875));
#2149=CARTESIAN_POINT('',(-0.053975,0.022225,-0.0142875));
#2150=CARTESIAN_POINT('',(-0.053975,0.022225,0.0206375));
#2151=CARTESIAN_POINT('',(-0.053975,0.022225,-0.0142875));
#2152=CARTESIAN_POINT('',(-0.053975,0.022225,0.0206375));
#2153=CARTESIAN_POINT('',(-0.00254,1.7347234759768E-18,0.));
#2154=CARTESIAN_POINT('',(-0.0127,-0.003175,-0.01651));
#2155=CARTESIAN_POINT('',(-0.00332153846153847,0.004445,-0.00127));
#2156=CARTESIAN_POINT('',(-0.00332153846153847,-0.004445,-0.00127));
#2157=CARTESIAN_POINT('',(-0.0127,-0.003175,0.02286));
#2158=CARTESIAN_POINT('',(-0.00332153846153848,-0.004445,0.00762));
#2159=CARTESIAN_POINT('',(-0.00332153846153847,0.004445,0.00762));
#2160=CARTESIAN_POINT('',(-0.0127,0.003175,0.02286));
#2161=CARTESIAN_POINT('',(-0.0127,-0.003175,-0.01651));
#2162=CARTESIAN_POINT('',(-0.01778,-0.003175,0.0254));
#2163=CARTESIAN_POINT('',(0.0142875,-0.00635,0.00635));
#2164=CARTESIAN_POINT('',(-0.0177165,-0.003683,0.003175));
#2165=CARTESIAN_POINT('',(-0.014859,-0.003921125,0.003175));
#2166=CARTESIAN_POINT('',(-0.0085725,-0.004445,0.00762));
#2167=CARTESIAN_POINT('',(-0.0085725,-0.004445,-0.00127));
#2168=CARTESIAN_POINT('',(-0.0238125,0.003175,0.003175));
#2169=CARTESIAN_POINT('',(-0.0177165,0.003683,0.003175));
#2170=CARTESIAN_POINT('',(-0.020574,0.003444875,0.003175));
#2171=CARTESIAN_POINT('',(-0.0085725000000001,0.004445,-0.00127));
#2172=CARTESIAN_POINT('',(-0.0085725000000001,0.004445,0.00762));
#2173=CARTESIAN_POINT('',(0.03175,1.7347234759768E-18,0.00635));
#2174=CARTESIAN_POINT('',(-0.0508,-0.003175,0.01905));
#2175=CARTESIAN_POINT('',(-0.0508,-0.003175,0.01905));
#2176=CARTESIAN_POINT('',(-0.0508,-0.003175,-0.0127));
#2177=CARTESIAN_POINT('',(-0.0508,-0.003175,-0.0127));
#2178=CARTESIAN_POINT('',(-0.0177165,0.0127,0.003175));
#2179=CARTESIAN_POINT('',(-0.0549368821084499,-0.0013716,0.015875));
#2180=CARTESIAN_POINT('',(-0.05493688210845,-0.0013716,-0.009525));
#2181=CARTESIAN_POINT('',(0.017145,-2.83538042920278E-18,0.004445));
#2182=CARTESIAN_POINT('',(0.017145,-2.83538042920278E-18,0.004445));
#2183=CARTESIAN_POINT('',(0.013335,-2.83538042920278E-18,0.004445));
#2184=CARTESIAN_POINT('',(0.017145,0.,0.004445));
#2185=CARTESIAN_POINT('',(0.03048,-3.40406389279016E-18,0.02794));
#2186=CARTESIAN_POINT('',(0.00381,-1.37930879464167E-19,0.02794));
#2187=CARTESIAN_POINT('',(-0.034925,-0.004445,0.00762));
#2188=CARTESIAN_POINT('',(0.,-0.004445,-0.00127));
#2189=CARTESIAN_POINT('',(-0.034925,0.004445,-0.00127));
#2190=CARTESIAN_POINT('',(0.,0.004445,0.00762));
#2191=MECHANICAL_DESIGN_GEOMETRIC_PRESENTATION_REPRESENTATION('',(#1301),
#2192);
#2192=(
GEOMETRIC_REPRESENTATION_CONTEXT(3)
GLOBAL_UNCERTAINTY_ASSIGNED_CONTEXT((#2193))
GLOBAL_UNIT_ASSIGNED_CONTEXT((#2196,#2195,#2194))
REPRESENTATION_CONTEXT('arm','TOP_LEVEL_ASSEMBLY_PART')
);
#2193=UNCERTAINTY_MEASURE_WITH_UNIT(LENGTH_MEASURE(1.E-8),#2196,
'DISTANCE_ACCURACY_VALUE','Maximum Tolerance applied to model');
#2194=(
NAMED_UNIT(*)
SI_UNIT($,.STERADIAN.)
SOLID_ANGLE_UNIT()
);
#2195=(
NAMED_UNIT(*)
PLANE_ANGLE_UNIT()
SI_UNIT($,.RADIAN.)
);
#2196=(
LENGTH_UNIT()
NAMED_UNIT(*)
SI_UNIT($,.METRE.)
);
#2197=PRODUCT_DEFINITION_SHAPE('','',#2198);
#2198=PRODUCT_DEFINITION('','',#2200,#2199);
#2199=PRODUCT_DEFINITION_CONTEXT('',#2206,'design');
#2200=PRODUCT_DEFINITION_FORMATION_WITH_SPECIFIED_SOURCE('','',#2202,
 .NOT_KNOWN.);
#2201=PRODUCT_RELATED_PRODUCT_CATEGORY('','',(#2202));
#2202=PRODUCT('arm','arm','arm',(#2204));
#2203=PRODUCT_CATEGORY('','');
#2204=PRODUCT_CONTEXT('',#2206,'mechanical');
#2205=APPLICATION_PROTOCOL_DEFINITION('international standard',
'ap242_managed_model_based_3d_engineering',2020,#2206);
#2206=APPLICATION_CONTEXT('managed model based 3d engineering');
ENDSEC;
END-ISO-10303-21;
