ISO-10303-21;
HEADER;
FILE_DESCRIPTION (( 'STEP AP214' ),
    '1' );
FILE_NAME ('base_part.STEP',
    '2026-05-24T04:27:49',
    ( '' ),
    ( '' ),
    'SwSTEP 2.0',
    'SolidWorks 2025',
    '' );
FILE_SCHEMA (( 'AUTOMOTIVE_DESIGN' ));
ENDSEC;

DATA;
#1 = DIRECTION ( 'NONE',  ( -1.000000000000000000, 0.000000000000000000, 0.000000000000000000 ) ) ;
#2 = ORIENTED_EDGE ( 'NONE', *, *, #854, .F. ) ;
#3 = FACE_OUTER_BOUND ( 'NONE', #650, .T. ) ;
#4 = CIRCLE ( 'NONE', #330, 0.07499999999999988620 ) ;
#5 = VERTEX_POINT ( 'NONE', #379 ) ;
#6 = VECTOR ( 'NONE', #164, 39.37007874015748143 ) ;
#7 = ADVANCED_FACE ( 'NONE', ( #709 ), #577, .F. ) ;
#8 = CARTESIAN_POINT ( 'NONE',  ( -1.485000000000000098, 0.3750000000000004996, -0.7500000000000001110 ) ) ;
#9 = ORIENTED_EDGE ( 'NONE', *, *, #382, .T. ) ;
#10 = CARTESIAN_POINT ( 'NONE',  ( 0.8250000000000001776, 0.2999999999999999334, 0.2500000000000000555 ) ) ;
#11 = AXIS2_PLACEMENT_3D ( 'NONE', #541, #805, #672 ) ;
#12 = DIRECTION ( 'NONE',  ( -1.000000000000000000, 0.000000000000000000, 0.000000000000000000 ) ) ;
#13 = ORIENTED_EDGE ( 'NONE', *, *, #161, .T. ) ;
#14 = DIRECTION ( 'NONE',  ( 0.000000000000000000, 0.000000000000000000, 1.000000000000000000 ) ) ;
#15 = LINE ( 'NONE', #8, #640 ) ;
#16 = VERTEX_POINT ( 'NONE', #122 ) ;
#17 = DIRECTION ( 'NONE',  ( -0.9837770256678169956, -0.1793955511382128998, 0.000000000000000000 ) ) ;
#18 = VECTOR ( 'NONE', #450, 39.37007874015748143 ) ;
#19 = DIRECTION ( 'NONE',  ( 1.000000000000000000, 0.000000000000000000, 0.000000000000000000 ) ) ;
#20 = VERTEX_POINT ( 'NONE', #773 ) ;
#21 = DIRECTION ( 'NONE',  ( -0.000000000000000000, -0.000000000000000000, 1.000000000000000000 ) ) ;
#22 = ADVANCED_FACE ( 'NONE', ( #181 ), #808, .F. ) ;
#23 = AXIS2_PLACEMENT_3D ( 'NONE', #341, #215, #478 ) ;
#24 = ADVANCED_FACE ( 'NONE', ( #662 ), #533, .T. ) ;
#25 = LINE ( 'NONE', #813, #529 ) ;
#26 = EDGE_LOOP ( 'NONE', ( #550, #815, #37, #67, #159, #425, #187, #590, #355 ) ) ;
#27 = CARTESIAN_POINT ( 'NONE',  ( -0.6929395551138213261, -0.09837770256679481684, 0.1250000000000000000 ) ) ;
#28 = LINE ( 'NONE', #362, #400 ) ;
#29 = DIRECTION ( 'NONE',  ( 0.9837770256678171066, 0.1793955511382126777, 0.000000000000000000 ) ) ;
#30 = EDGE_LOOP ( 'NONE', ( #675, #273, #74, #836, #476, #229 ) ) ;
#31 = DIRECTION ( 'NONE',  ( 1.000000000000000000, 0.000000000000000000, 0.000000000000000000 ) ) ;
#32 = ORIENTED_EDGE ( 'NONE', *, *, #231, .F. ) ;
#33 = VECTOR ( 'NONE', #495, 39.37007874015748143 ) ;
#34 = DIRECTION ( 'NONE',  ( 1.000000000000000000, 0.000000000000000000, 0.000000000000000000 ) ) ;
#35 = VECTOR ( 'NONE', #731, 39.37007874015748143 ) ;
#36 = FACE_OUTER_BOUND ( 'NONE', #712, .T. ) ;
#37 = ORIENTED_EDGE ( 'NONE', *, *, #669, .T. ) ;
#38 = EDGE_CURVE ( 'NONE', #397, #5, #205, .T. ) ;
#39 = CARTESIAN_POINT ( 'NONE',  ( 0.7750000000000000222, 0.000000000000000000, 0.1250000000000000000 ) ) ;
#40 = ORIENTED_EDGE ( 'NONE', *, *, #789, .F. ) ;
#41 = DIRECTION ( 'NONE',  ( 1.000000000000000000, 0.000000000000000000, 0.000000000000000000 ) ) ;
#42 = DIRECTION ( 'NONE',  ( 1.000000000000000000, 9.106159978880873451E-16, 0.000000000000000000 ) ) ;
#43 = ORIENTED_EDGE ( 'NONE', *, *, #854, .T. ) ;
#44 = VECTOR ( 'NONE', #766, 39.37007874015748143 ) ;
#45 = DIRECTION ( 'NONE',  ( -1.000000000000000000, 0.000000000000000000, -0.000000000000000000 ) ) ;
#46 = LINE ( 'NONE', #440, #776 ) ;
#47 = CARTESIAN_POINT ( 'NONE',  ( -0.1249999999999985983, -0.2019436802675439180, 0.1250000000000000000 ) ) ;
#48 = VERTEX_POINT ( 'NONE', #730 ) ;
#49 = DIRECTION ( 'NONE',  ( -0.000000000000000000, 0.000000000000000000, 1.000000000000000000 ) ) ;
#50 =( GEOMETRIC_REPRESENTATION_CONTEXT ( 3 ) GLOBAL_UNCERTAINTY_ASSIGNED_CONTEXT ( ( #200 ) ) GLOBAL_UNIT_ASSIGNED_CONTEXT ( ( #173, #295, #825 ) ) REPRESENTATION_CONTEXT ( 'NONE', 'WORKASPACE' ) );
#51 = LINE ( 'NONE', #758, #33 ) ;
#52 = ORIENTED_EDGE ( 'NONE', *, *, #658, .F. ) ;
#53 = AXIS2_PLACEMENT_3D ( 'NONE', #456, #66, #317 ) ;
#54 = DIRECTION ( 'NONE',  ( -0.000000000000000000, -0.000000000000000000, -1.000000000000000000 ) ) ;
#55 = EDGE_CURVE ( 'NONE', #402, #174, #58, .T. ) ;
#56 = LINE ( 'NONE', #453, #311 ) ;
#57 = ORIENTED_EDGE ( 'NONE', *, *, #814, .F. ) ;
#58 = CIRCLE ( 'NONE', #351, 0.07500000000000002498 ) ;
#59 = DIRECTION ( 'NONE',  ( 0.000000000000000000, 0.000000000000000000, 1.000000000000000000 ) ) ;
#60 = FACE_OUTER_BOUND ( 'NONE', #446, .T. ) ;
#61 = ORIENTED_EDGE ( 'NONE', *, *, #399, .T. ) ;
#62 = AXIS2_PLACEMENT_3D ( 'NONE', #358, #684, #630 ) ;
#63 = LINE ( 'NONE', #134, #346 ) ;
#64 = VERTEX_POINT ( 'NONE', #668 ) ;
#65 = STYLED_ITEM ( 'NONE', ( #613 ), #642 ) ;
#66 = DIRECTION ( 'NONE',  ( -0.000000000000000000, 0.000000000000000000, 1.000000000000000000 ) ) ;
#67 = ORIENTED_EDGE ( 'NONE', *, *, #263, .T. ) ;
#68 = VECTOR ( 'NONE', #386, 39.37007874015748143 ) ;
#69 = DIRECTION ( 'NONE',  ( 0.000000000000000000, 0.000000000000000000, 1.000000000000000000 ) ) ;
#70 = ORIENTED_EDGE ( 'NONE', *, *, #77, .F. ) ;
#71 = ADVANCED_BREP_SHAPE_REPRESENTATION ( 'base_part', ( #642, #184 ), #73 ) ;
#72 = DIRECTION ( 'NONE',  ( -0.000000000000000000, -0.000000000000000000, 1.000000000000000000 ) ) ;
#73 =( GEOMETRIC_REPRESENTATION_CONTEXT ( 3 ) GLOBAL_UNCERTAINTY_ASSIGNED_CONTEXT ( ( #474 ) ) GLOBAL_UNIT_ASSIGNED_CONTEXT ( ( #641, #581, #258 ) ) REPRESENTATION_CONTEXT ( 'NONE', 'WORKASPACE' ) );
#74 = ORIENTED_EDGE ( 'NONE', *, *, #726, .F. ) ;
#75 = CARTESIAN_POINT ( 'NONE',  ( -0.1250000000000013600, 0.2019436802675439180, 0.1250000000000000000 ) ) ;
#76 = VECTOR ( 'NONE', #754, 39.37007874015748143 ) ;
#77 = EDGE_CURVE ( 'NONE', #737, #281, #146, .T. ) ;
#78 = CARTESIAN_POINT ( 'NONE',  ( 0.1250000000000000000, 0.2019436802675439180, 0.1250000000000000000 ) ) ;
#79 = ORIENTED_EDGE ( 'NONE', *, *, #391, .T. ) ;
#80 = FACE_OUTER_BOUND ( 'NONE', #682, .T. ) ;
#81 = VECTOR ( 'NONE', #442, 39.37007874015748854 ) ;
#82 = CARTESIAN_POINT ( 'NONE',  ( 0.000000000000000000, 0.000000000000000000, -0.7500000000000001110 ) ) ;
#83 = ORIENTED_EDGE ( 'NONE', *, *, #150, .T. ) ;
#84 = CARTESIAN_POINT ( 'NONE',  ( -1.422499999999999654, -0.2489509972887453126, -0.7499999999999998890 ) ) ;
#85 = CARTESIAN_POINT ( 'NONE',  ( 0.6750000000000000444, 0.000000000000000000, 0.1250000000000000000 ) ) ;
#86 = VERTEX_POINT ( 'NONE', #139 ) ;
#87 = CIRCLE ( 'NONE', #62, 0.07499999999999988620 ) ;
#88 = DIRECTION ( 'NONE',  ( 0.000000000000000000, 0.000000000000000000, -1.000000000000000000 ) ) ;
#89 = ADVANCED_FACE ( 'NONE', ( #80 ), #338, .F. ) ;
#90 = VECTOR ( 'NONE', #331, 39.37007874015748143 ) ;
#91 = APPLICATION_CONTEXT ( 'automotive_design' ) ;
#92 = DIRECTION ( 'NONE',  ( 0.000000000000000000, 0.000000000000000000, -1.000000000000000000 ) ) ;
#93 = DIRECTION ( 'NONE',  ( -0.000000000000000000, -0.000000000000000000, 1.000000000000000000 ) ) ;
#94 = ORIENTED_EDGE ( 'NONE', *, *, #658, .T. ) ;
#95 = CARTESIAN_POINT ( 'NONE',  ( -0.6750000000000000444, -8.741913579725642299E-15, 0.2500000000000000000 ) ) ;
#96 = DIRECTION ( 'NONE',  ( -1.000000000000000000, 0.000000000000000000, 0.000000000000000000 ) ) ;
#97 = VECTOR ( 'NONE', #278, 39.37007874015748143 ) ;
#98 = DIRECTION ( 'NONE',  ( -0.000000000000000000, -0.000000000000000000, -1.000000000000000000 ) ) ;
#99 = VERTEX_POINT ( 'NONE', #683 ) ;
#100 = DIRECTION ( 'NONE',  ( 1.000000000000000000, 0.000000000000000000, 0.000000000000000000 ) ) ;
#101 = ORIENTED_EDGE ( 'NONE', *, *, #127, .T. ) ;
#102 = EDGE_CURVE ( 'NONE', #826, #415, #534, .T. ) ;
#103 = DIRECTION ( 'NONE',  ( 0.000000000000000000, 0.000000000000000000, 1.000000000000000000 ) ) ;
#104 = SURFACE_STYLE_USAGE ( .BOTH. , #288 ) ;
#105 = ORIENTED_EDGE ( 'NONE', *, *, #55, .T. ) ;
#106 = DIRECTION ( 'NONE',  ( -0.000000000000000000, -1.000000000000000000, -0.000000000000000000 ) ) ;
#107 = FACE_OUTER_BOUND ( 'NONE', #340, .T. ) ;
#108 = ORIENTED_EDGE ( 'NONE', *, *, #801, .F. ) ;
#109 = LINE ( 'NONE', #39, #44 ) ;
#110 = LINE ( 'NONE', #428, #622 ) ;
#111 = DIRECTION ( 'NONE',  ( 1.000000000000000000, 0.000000000000000000, 0.000000000000000000 ) ) ;
#112 = ORIENTED_EDGE ( 'NONE', *, *, #801, .T. ) ;
#113 = CIRCLE ( 'NONE', #591, 0.07499999999999988620 ) ;
#114 = CARTESIAN_POINT ( 'NONE',  ( 0.6750000000000000444, 0.000000000000000000, 0.1250000000000000000 ) ) ;
#115 = CARTESIAN_POINT ( 'NONE',  ( 0.9000000000000001332, -0.1750000000000000167, -0.7499999999999998890 ) ) ;
#116 = VERTEX_POINT ( 'NONE', #404 ) ;
#117 = DIRECTION ( 'NONE',  ( 1.000000000000000000, 0.000000000000000000, 0.000000000000000000 ) ) ;
#118 = EDGE_CURVE ( 'NONE', #540, #16, #245, .T. ) ;
#119 = EDGE_CURVE ( 'NONE', #725, #468, #463, .T. ) ;
#120 = EDGE_CURVE ( 'NONE', #512, #826, #746, .T. ) ;
#121 = VECTOR ( 'NONE', #747, 39.37007874015748143 ) ;
#122 = CARTESIAN_POINT ( 'NONE',  ( -0.6929395551138213261, -0.09837770256679481684, 0.2500000000000000000 ) ) ;
#123 = DIRECTION ( 'NONE',  ( -0.000000000000000000, 0.000000000000000000, 1.000000000000000000 ) ) ;
#124 = ORIENTED_EDGE ( 'NONE', *, *, #375, .F. ) ;
#125 = CARTESIAN_POINT ( 'NONE',  ( 0.9000000000000002442, -0.1750000000000001832, -0.1250000000000000000 ) ) ;
#126 = VERTEX_POINT ( 'NONE', #811 ) ;
#127 = EDGE_CURVE ( 'NONE', #242, #540, #208, .T. ) ;
#128 = DIRECTION ( 'NONE',  ( 1.000000000000000000, 0.000000000000000000, 0.000000000000000000 ) ) ;
#129 = EDGE_LOOP ( 'NONE', ( #218, #850, #370, #444, #94, #145, #760, #637, #792, #831 ) ) ;
#130 = CARTESIAN_POINT ( 'NONE',  ( 0.8250000000000000666, -0.1750000000000000167, 0.2500000000000000000 ) ) ;
#131 = ORIENTED_EDGE ( 'NONE', *, *, #77, .T. ) ;
#132 = AXIS2_PLACEMENT_3D ( 'NONE', #592, #589, #384 ) ;
#133 = EDGE_CURVE ( 'NONE', #755, #312, #727, .T. ) ;
#134 = CARTESIAN_POINT ( 'NONE',  ( 0.8250000000000001776, 0.3749999999999999445, 0.000000000000000000 ) ) ;
#135 = ORIENTED_EDGE ( 'NONE', *, *, #203, .T. ) ;
#136 = AXIS2_PLACEMENT_3D ( 'NONE', #841, #246, #509 ) ;
#137 = DIRECTION ( 'NONE',  ( 0.000000000000000000, 0.000000000000000000, -1.000000000000000000 ) ) ;
#138 = VERTEX_POINT ( 'NONE', #275 ) ;
#139 = CARTESIAN_POINT ( 'NONE',  ( -1.485000000000000098, 0.2999999999999999889, -0.7500000000000001110 ) ) ;
#140 = EDGE_CURVE ( 'NONE', #595, #191, #580, .T. ) ;
#141 = DIRECTION ( 'NONE',  ( 1.000000000000000000, -2.290857856322233139E-16, 0.000000000000000000 ) ) ;
#142 = VERTEX_POINT ( 'NONE', #84 ) ;
#143 = DIRECTION ( 'NONE',  ( 0.000000000000000000, -1.000000000000000000, 0.000000000000000000 ) ) ;
#144 = FACE_OUTER_BOUND ( 'NONE', #437, .T. ) ;
#145 = ORIENTED_EDGE ( 'NONE', *, *, #479, .T. ) ;
#146 = LINE ( 'NONE', #538, #687 ) ;
#147 = EDGE_CURVE ( 'NONE', #643, #198, #271, .T. ) ;
#148 = CARTESIAN_POINT ( 'NONE',  ( -1.410000000000000364, -0.2500000000000000000, 0.2500000000000000000 ) ) ;
#149 = ORIENTED_EDGE ( 'NONE', *, *, #648, .F. ) ;
#150 = EDGE_CURVE ( 'NONE', #337, #657, #411, .T. ) ;
#151 = DIRECTION ( 'NONE',  ( 1.000000000000000000, 1.821231995776174690E-15, 0.000000000000000000 ) ) ;
#152 = DIRECTION ( 'NONE',  ( 0.000000000000000000, 0.000000000000000000, 1.000000000000000000 ) ) ;
#153 = EDGE_LOOP ( 'NONE', ( #2, #554, #720, #632, #583, #655 ) ) ;
#154 = AXIS2_PLACEMENT_3D ( 'NONE', #287, #490, #162 ) ;
#155 = DIRECTION ( 'NONE',  ( 1.000000000000000000, 0.000000000000000000, 0.000000000000000000 ) ) ;
#156 = AXIS2_PLACEMENT_3D ( 'NONE', #280, #206, #12 ) ;
#157 = DIRECTION ( 'NONE',  ( 1.000000000000000000, 0.000000000000000000, 0.000000000000000000 ) ) ;
#158 = FACE_OUTER_BOUND ( 'NONE', #686, .T. ) ;
#159 = ORIENTED_EDGE ( 'NONE', *, *, #231, .T. ) ;
#160 = CARTESIAN_POINT ( 'NONE',  ( 0.6750000000000000444, 0.000000000000000000, 0.1250000000000000000 ) ) ;
#161 = EDGE_CURVE ( 'NONE', #116, #755, #345, .T. ) ;
#162 = DIRECTION ( 'NONE',  ( 0.9837770256678198821, -0.1793955511381978285, 0.000000000000000000 ) ) ;
#163 = VECTOR ( 'NONE', #88, 39.37007874015748143 ) ;
#164 = DIRECTION ( 'NONE',  ( -0.000000000000000000, -0.000000000000000000, 1.000000000000000000 ) ) ;
#165 = EDGE_LOOP ( 'NONE', ( #572, #443, #741, #257 ) ) ;
#166 = DIRECTION ( 'NONE',  ( -0.000000000000000000, -0.000000000000000000, 1.000000000000000000 ) ) ;
#167 = LINE ( 'NONE', #625, #818 ) ;
#168 = DIRECTION ( 'NONE',  ( 0.9837770256678171066, 0.1793955511382126777, 0.000000000000000000 ) ) ;
#169 = ORIENTED_EDGE ( 'NONE', *, *, #133, .F. ) ;
#170 = CYLINDRICAL_SURFACE ( 'NONE', #704, 0.2374999999999996558 ) ;
#171 = DIRECTION ( 'NONE',  ( 2.185478394931410821E-16, 1.000000000000000000, 0.000000000000000000 ) ) ;
#172 = MECHANICAL_DESIGN_GEOMETRIC_PRESENTATION_REPRESENTATION (  '', ( #65 ), #50 ) ;
#173 =( CONVERSION_BASED_UNIT ( 'INCH', #571 ) LENGTH_UNIT ( ) NAMED_UNIT ( #721 ) );
#174 = VERTEX_POINT ( 'NONE', #219 ) ;
#175 = DIRECTION ( 'NONE',  ( 0.000000000000000000, 0.000000000000000000, 1.000000000000000000 ) ) ;
#176 = CARTESIAN_POINT ( 'NONE',  ( -0.1249999999999985983, -0.2019436802675439180, 0.1250000000000000000 ) ) ;
#177 = EDGE_LOOP ( 'NONE', ( #135, #285, #768, #131 ) ) ;
#178 = PRODUCT_DEFINITION_CONTEXT ( 'detailed design', #484, 'design' ) ;
#179 = DIRECTION ( 'NONE',  ( 0.000000000000000000, 0.000000000000000000, 1.000000000000000000 ) ) ;
#180 = EDGE_CURVE ( 'NONE', #126, #360, #283, .T. ) ;
#181 = FACE_OUTER_BOUND ( 'NONE', #406, .T. ) ;
#182 = CARTESIAN_POINT ( 'NONE',  ( -1.435000000000000053, -0.1750000000000001832, -0.1250000000000000000 ) ) ;
#183 = ORIENTED_EDGE ( 'NONE', *, *, #735, .T. ) ;
#184 = AXIS2_PLACEMENT_3D ( 'NONE', #185, #771, #252 ) ;
#185 = CARTESIAN_POINT ( 'NONE',  ( 0.000000000000000000, 0.000000000000000000, 0.000000000000000000 ) ) ;
#186 = CARTESIAN_POINT ( 'NONE',  ( -1.285000000000000364, 0.2500000000000000000, -0.7500000000000001110 ) ) ;
#187 = ORIENTED_EDGE ( 'NONE', *, *, #634, .T. ) ;
#188 = ADVANCED_FACE ( 'NONE', ( #366 ), #624, .T. ) ;
#189 = FACE_OUTER_BOUND ( 'NONE', #165, .T. ) ;
#190 = VECTOR ( 'NONE', #639, 39.37007874015748143 ) ;
#191 = VERTEX_POINT ( 'NONE', #769 ) ;
#192 = CARTESIAN_POINT ( 'NONE',  ( 0.8250000000000000666, -0.2500000000000000000, 0.2500000000000000000 ) ) ;
#193 = ORIENTED_EDGE ( 'NONE', *, *, #856, .T. ) ;
#194 = EDGE_CURVE ( 'NONE', #421, #138, #693, .T. ) ;
#195 = APPLICATION_PROTOCOL_DEFINITION ( 'draft international standard', 'automotive_design', 1998, #91 ) ;
#196 = VECTOR ( 'NONE', #92, 39.37007874015748143 ) ;
#197 = DIRECTION ( 'NONE',  ( 1.000000000000000000, 0.000000000000000000, 0.000000000000000000 ) ) ;
#198 = VERTEX_POINT ( 'NONE', #27 ) ;
#199 = AXIS2_PLACEMENT_3D ( 'NONE', #78, #336, #605 ) ;
#200 = UNCERTAINTY_MEASURE_WITH_UNIT (LENGTH_MEASURE( 1.000000000000000082E-05 ), #173, 'distance_accuracy_value', 'NONE');
#201 = LINE ( 'NONE', #268, #35 ) ;
#202 = ORIENTED_EDGE ( 'NONE', *, *, #289, .T. ) ;
#203 = EDGE_CURVE ( 'NONE', #281, #20, #569, .T. ) ;
#204 = DIRECTION ( 'NONE',  ( -1.000000000000000000, 0.000000000000000000, 0.000000000000000000 ) ) ;
#205 = CIRCLE ( 'NONE', #646, 0.07500000000000002498 ) ;
#206 = DIRECTION ( 'NONE',  ( -0.000000000000000000, -0.000000000000000000, 1.000000000000000000 ) ) ;
#207 = ORIENTED_EDGE ( 'NONE', *, *, #828, .F. ) ;
#208 = LINE ( 'NONE', #469, #383 ) ;
#209 = PLANE ( 'NONE',  #266 ) ;
#210 = CIRCLE ( 'NONE', #486, 0.1000000000000000194 ) ;
#211 = ORIENTED_EDGE ( 'NONE', *, *, #102, .F. ) ;
#212 = DIRECTION ( 'NONE',  ( 0.000000000000000000, 0.000000000000000000, -1.000000000000000000 ) ) ;
#213 = DIRECTION ( 'NONE',  ( -1.000000000000000000, -1.821231995776178240E-15, 0.000000000000000000 ) ) ;
#214 = EDGE_LOOP ( 'NONE', ( #454, #302, #614, #385, #505, #348, #105, #729, #183, #603 ) ) ;
#215 = DIRECTION ( 'NONE',  ( 0.000000000000000000, 0.000000000000000000, 1.000000000000000000 ) ) ;
#216 = AXIS2_PLACEMENT_3D ( 'NONE', #234, #757, #45 ) ;
#217 = CARTESIAN_POINT ( 'NONE',  ( -1.422499999999999654, -0.2489509972887453126, -0.1249999999999999584 ) ) ;
#218 = ORIENTED_EDGE ( 'NONE', *, *, #314, .T. ) ;
#219 = CARTESIAN_POINT ( 'NONE',  ( 0.8250000000000000666, -0.2499999999999998057, -0.1250000000000000000 ) ) ;
#220 = ADVANCED_FACE ( 'NONE', ( #817 ), #628, .T. ) ;
#221 = ADVANCED_FACE ( 'NONE', ( #238, #501 ), #292, .F. ) ;
#222 = PLANE ( 'NONE',  #489 ) ;
#223 = ORIENTED_EDGE ( 'NONE', *, *, #38, .T. ) ;
#224 = VECTOR ( 'NONE', #171, 39.37007874015748143 ) ;
#225 = DIRECTION ( 'NONE',  ( 0.000000000000000000, 0.000000000000000000, -1.000000000000000000 ) ) ;
#226 = CIRCLE ( 'NONE', #156, 0.07500000000000002498 ) ;
#227 = CARTESIAN_POINT ( 'NONE',  ( 0.6750000000000000444, 0.000000000000000000, 0.1250000000000000000 ) ) ;
#228 = DIRECTION ( 'NONE',  ( 0.1793955511382126777, -0.9837770256678171066, 0.000000000000000000 ) ) ;
#229 = ORIENTED_EDGE ( 'NONE', *, *, #699, .F. ) ;
#230 = DIRECTION ( 'NONE',  ( -1.000000000000000000, 0.000000000000000000, 0.000000000000000000 ) ) ;
#231 = EDGE_CURVE ( 'NONE', #99, #643, #371, .T. ) ;
#232 = LINE ( 'NONE', #570, #710 ) ;
#233 = ORIENTED_EDGE ( 'NONE', *, *, #521, .T. ) ;
#234 = CARTESIAN_POINT ( 'NONE',  ( 0.000000000000000000, 0.000000000000000000, 0.2500000000000000000 ) ) ;
#235 = DIRECTION ( 'NONE',  ( 0.000000000000000000, 0.000000000000000000, 1.000000000000000000 ) ) ;
#236 = CARTESIAN_POINT ( 'NONE',  ( 0.1250000000000000000, 0.2019436802675439180, 0.1250000000000000000 ) ) ;
#237 = ORIENTED_EDGE ( 'NONE', *, *, #180, .F. ) ;
#238 = FACE_BOUND ( 'NONE', #692, .T. ) ;
#239 = VERTEX_POINT ( 'NONE', #297 ) ;
#240 = CARTESIAN_POINT ( 'NONE',  ( -1.410000000000000364, -0.1750000000000000167, -0.1249999999999999584 ) ) ;
#241 = AXIS2_PLACEMENT_3D ( 'NONE', #519, #511, #128 ) ;
#242 = VERTEX_POINT ( 'NONE', #707 ) ;
#243 = ADVANCED_FACE ( 'NONE', ( #493 ), #170, .F. ) ;
#244 = DIRECTION ( 'NONE',  ( -0.000000000000000000, 0.000000000000000000, 1.000000000000000000 ) ) ;
#245 = CIRCLE ( 'NONE', #316, 0.1000000000000042660 ) ;
#246 = DIRECTION ( 'NONE',  ( -0.000000000000000000, -0.000000000000000000, 1.000000000000000000 ) ) ;
#247 = PLANE ( 'NONE',  #132 ) ;
#248 = ORIENTED_EDGE ( 'NONE', *, *, #648, .T. ) ;
#249 = EDGE_CURVE ( 'NONE', #843, #337, #376, .T. ) ;
#250 = LINE ( 'NONE', #526, #765 ) ;
#251 = VERTEX_POINT ( 'NONE', #361 ) ;
#252 = DIRECTION ( 'NONE',  ( 1.000000000000000000, 0.000000000000000000, 0.000000000000000000 ) ) ;
#253 = CARTESIAN_POINT ( 'NONE',  ( -1.410000000000000364, -0.2499999999999998057, -0.1250000000000000000 ) ) ;
#254 = ORIENTED_EDGE ( 'NONE', *, *, #350, .F. ) ;
#255 = FACE_OUTER_BOUND ( 'NONE', #847, .T. ) ;
#256 = AXIS2_PLACEMENT_3D ( 'NONE', #303, #175, #286 ) ;
#257 = ORIENTED_EDGE ( 'NONE', *, *, #399, .F. ) ;
#258 =( NAMED_UNIT ( * ) SI_UNIT ( $, .STERADIAN. ) SOLID_ANGLE_UNIT ( ) );
#259 = CYLINDRICAL_SURFACE ( 'NONE', #597, 0.07500000000000002498 ) ;
#260 = ORIENTED_EDGE ( 'NONE', *, *, #689, .T. ) ;
#261 = CIRCLE ( 'NONE', #848, 0.1000000000000000194 ) ;
#262 = EDGE_CURVE ( 'NONE', #496, #312, #109, .T. ) ;
#263 = EDGE_CURVE ( 'NONE', #822, #99, #629, .T. ) ;
#264 = CARTESIAN_POINT ( 'NONE',  ( 0.1249999999999997641, -0.2019436802675436404, 0.2500000000000000000 ) ) ;
#265 = ORIENTED_EDGE ( 'NONE', *, *, #147, .F. ) ;
#266 = AXIS2_PLACEMENT_3D ( 'NONE', #471, #799, #736 ) ;
#267 = CARTESIAN_POINT ( 'NONE',  ( 0.6750000000000000444, 0.000000000000000000, 0.2500000000000000000 ) ) ;
#268 = CARTESIAN_POINT ( 'NONE',  ( 0.9000000000000001332, -0.2500000000000000555, 0.2500000000000000000 ) ) ;
#269 = VERTEX_POINT ( 'NONE', #827 ) ;
#270 = DIRECTION ( 'NONE',  ( 0.000000000000000000, 0.000000000000000000, -1.000000000000000000 ) ) ;
#271 = CIRCLE ( 'NONE', #23, 0.1000000000000042660 ) ;
#272 = CARTESIAN_POINT ( 'NONE',  ( 0.8989509972887453904, 0.3125000000000000000, -0.7500000000000001110 ) ) ;
#273 = ORIENTED_EDGE ( 'NONE', *, *, #576, .F. ) ;
#274 = ADVANCED_FACE ( 'NONE', ( #436 ), #701, .T. ) ;
#275 = CARTESIAN_POINT ( 'NONE',  ( -1.285000000000000364, 0.2499999999999998057, -0.1250000000000000000 ) ) ;
#276 = DIRECTION ( 'NONE',  ( 0.000000000000000000, 0.000000000000000000, 1.000000000000000000 ) ) ;
#277 = ORIENTED_EDGE ( 'NONE', *, *, #659, .T. ) ;
#278 = DIRECTION ( 'NONE',  ( 1.000000000000000000, 0.000000000000000000, 0.000000000000000000 ) ) ;
#279 = PRODUCT ( 'base_part', 'base_part', '', ( #392 ) ) ;
#280 = CARTESIAN_POINT ( 'NONE',  ( 0.8250000000000001776, 0.3250000000000000111, -0.1250000000000000278 ) ) ;
#281 = VERTEX_POINT ( 'NONE', #574 ) ;
#282 = EDGE_CURVE ( 'NONE', #843, #138, #113, .T. ) ;
#283 = LINE ( 'NONE', #416, #665 ) ;
#284 = DIRECTION ( 'NONE',  ( -0.9837770256678171066, 0.1793955511382126777, -0.000000000000000000 ) ) ;
#285 = ORIENTED_EDGE ( 'NONE', *, *, #578, .F. ) ;
#286 = DIRECTION ( 'NONE',  ( 1.000000000000000000, 0.000000000000000000, 0.000000000000000000 ) ) ;
#287 = CARTESIAN_POINT ( 'NONE',  ( -0.1249999999999985983, -0.2019436802675439180, 0.1250000000000000000 ) ) ;
#288 = SURFACE_SIDE_STYLE ('',( #691 ) ) ;
#289 = EDGE_CURVE ( 'NONE', #451, #563, #784, .T. ) ;
#290 = VERTEX_POINT ( 'NONE', #497 ) ;
#291 = VECTOR ( 'NONE', #698, 39.37007874015748143 ) ;
#292 = PLANE ( 'NONE',  #216 ) ;
#293 = AXIS2_PLACEMENT_3D ( 'NONE', #401, #339, #602 ) ;
#294 = DIRECTION ( 'NONE',  ( 0.000000000000000000, 0.000000000000000000, -1.000000000000000000 ) ) ;
#295 =( NAMED_UNIT ( * ) PLANE_ANGLE_UNIT ( ) SI_UNIT ( $, .RADIAN. ) );
#296 = ORIENTED_EDGE ( 'NONE', *, *, #455, .F. ) ;
#297 = CARTESIAN_POINT ( 'NONE',  ( -1.360000000000000320, 0.1750000000000000167, -0.7500000000000001110 ) ) ;
#298 = EDGE_LOOP ( 'NONE', ( #587, #57, #265, #9 ) ) ;
#299 = VECTOR ( 'NONE', #832, 39.37007874015748143 ) ;
#300 = FACE_OUTER_BOUND ( 'NONE', #325, .T. ) ;
#301 = CARTESIAN_POINT ( 'NONE',  ( 0.1249999999999997641, -0.2019436802675436404, 0.1250000000000000000 ) ) ;
#302 = ORIENTED_EDGE ( 'NONE', *, *, #282, .T. ) ;
#303 = CARTESIAN_POINT ( 'NONE',  ( 0.000000000000000000, 0.000000000000000000, 0.1250000000000000000 ) ) ;
#304 = EDGE_CURVE ( 'NONE', #116, #496, #439, .T. ) ;
#305 = CYLINDRICAL_SURFACE ( 'NONE', #431, 0.07500000000000002498 ) ;
#306 = FILL_AREA_STYLE ('',( #424 ) ) ;
#307 = ORIENTED_EDGE ( 'NONE', *, *, #419, .T. ) ;
#308 = DIRECTION ( 'NONE',  ( 1.000000000000000000, 0.000000000000000000, 0.000000000000000000 ) ) ;
#309 = VECTOR ( 'NONE', #363, 39.37007874015748143 ) ;
#310 = CARTESIAN_POINT ( 'NONE',  ( -0.1249999999999985983, -0.2019436802675439180, 0.2500000000000000000 ) ) ;
#311 = VECTOR ( 'NONE', #123, 39.37007874015748143 ) ;
#312 = VERTEX_POINT ( 'NONE', #761 ) ;
#313 = DIRECTION ( 'NONE',  ( 0.000000000000000000, 0.000000000000000000, 1.000000000000000000 ) ) ;
#314 = EDGE_CURVE ( 'NONE', #430, #86, #356, .T. ) ;
#315 = ADVANCED_FACE ( 'NONE', ( #322 ), #319, .F. ) ;
#316 = AXIS2_PLACEMENT_3D ( 'NONE', #95, #604, #483 ) ;
#317 = DIRECTION ( 'NONE',  ( 1.000000000000000000, 0.000000000000000000, 0.000000000000000000 ) ) ;
#318 = ORIENTED_EDGE ( 'NONE', *, *, #521, .F. ) ;
#319 = CYLINDRICAL_SURFACE ( 'NONE', #565, 0.1000000000000042660 ) ;
#320 = EDGE_LOOP ( 'NONE', ( #202, #441, #532, #357 ) ) ;
#321 = APPLICATION_PROTOCOL_DEFINITION ( 'draft international standard', 'automotive_design', 1998, #484 ) ;
#322 = FACE_OUTER_BOUND ( 'NONE', #298, .T. ) ;
#323 = ORIENTED_EDGE ( 'NONE', *, *, #816, .T. ) ;
#324 = CARTESIAN_POINT ( 'NONE',  ( -1.485000000000000098, -0.2499999999999995559, -0.7500000000000001110 ) ) ;
#325 = EDGE_LOOP ( 'NONE', ( #800, #487, #627, #500 ) ) ;
#326 = PRODUCT_DEFINITION ( 'UNKNOWN', '', #734, #178 ) ;
#327 = EDGE_CURVE ( 'NONE', #174, #826, #777, .T. ) ;
#328 = PLANE ( 'NONE',  #199 ) ;
#329 = ORIENTED_EDGE ( 'NONE', *, *, #703, .F. ) ;
#330 = AXIS2_PLACEMENT_3D ( 'NONE', #240, #294, #96 ) ;
#331 = DIRECTION ( 'NONE',  ( -1.000000000000000000, 0.000000000000000000, 0.000000000000000000 ) ) ;
#332 = ORIENTED_EDGE ( 'NONE', *, *, #304, .F. ) ;
#333 = AXIS2_PLACEMENT_3D ( 'NONE', #681, #228, #29 ) ;
#334 = CARTESIAN_POINT ( 'NONE',  ( -1.485000000000000098, -0.2500000000000000000, 0.2500000000000000000 ) ) ;
#335 = ADVANCED_FACE ( 'NONE', ( #651 ), #644, .T. ) ;
#336 = DIRECTION ( 'NONE',  ( 0.1793955511382126777, 0.9837770256678171066, 0.000000000000000000 ) ) ;
#337 = VERTEX_POINT ( 'NONE', #846 ) ;
#338 = PLANE ( 'NONE',  #423 ) ;
#339 = DIRECTION ( 'NONE',  ( 0.000000000000000000, 0.000000000000000000, 1.000000000000000000 ) ) ;
#340 = EDGE_LOOP ( 'NONE', ( #296, #149, #52, #558 ) ) ;
#341 = CARTESIAN_POINT ( 'NONE',  ( -0.6750000000000000444, -8.741913579725642299E-15, 0.1250000000000000000 ) ) ;
#342 = CIRCLE ( 'NONE', #470, 0.07500000000000002498 ) ;
#343 = LINE ( 'NONE', #795, #449 ) ;
#344 = VERTEX_POINT ( 'NONE', #785 ) ;
#345 = LINE ( 'NONE', #612, #615 ) ;
#346 = VECTOR ( 'NONE', #54, 39.37007874015748143 ) ;
#347 = CARTESIAN_POINT ( 'NONE',  ( 0.1250000000000000000, -0.2019436802675439180, 0.1250000000000000000 ) ) ;
#348 = ORIENTED_EDGE ( 'NONE', *, *, #752, .F. ) ;
#349 = CARTESIAN_POINT ( 'NONE',  ( -1.485000000000000098, -0.2500000000000000000, 0.2500000000000000000 ) ) ;
#350 = EDGE_CURVE ( 'NONE', #142, #435, #56, .T. ) ;
#351 = AXIS2_PLACEMENT_3D ( 'NONE', #738, #270, #204 ) ;
#352 = ADVANCED_FACE ( 'NONE', ( #60 ), #842, .T. ) ;
#353 = LINE ( 'NONE', #115, #291 ) ;
#354 = CARTESIAN_POINT ( 'NONE',  ( 0.8989509972887453904, 0.3125000000000000000, -0.1250000000000000278 ) ) ;
#355 = ORIENTED_EDGE ( 'NONE', *, *, #635, .T. ) ;
#356 = LINE ( 'NONE', #324, #190 ) ;
#357 = ORIENTED_EDGE ( 'NONE', *, *, #788, .T. ) ;
#358 = CARTESIAN_POINT ( 'NONE',  ( -1.435000000000000053, -0.1750000000000001832, -0.7500000000000001110 ) ) ;
#359 = CARTESIAN_POINT ( 'NONE',  ( -1.485000000000000098, -0.2500000000000000000, 0.2500000000000000000 ) ) ;
#360 = VERTEX_POINT ( 'NONE', #523 ) ;
#361 = CARTESIAN_POINT ( 'NONE',  ( -0.1249999999999985983, -0.2019436802675439180, 0.1250000000000000000 ) ) ;
#362 = CARTESIAN_POINT ( 'NONE',  ( -1.360000000000000320, 0.1750000000000000167, -0.1250000000000000000 ) ) ;
#363 = DIRECTION ( 'NONE',  ( -0.000000000000000000, -0.000000000000000000, 1.000000000000000000 ) ) ;
#364 = ORIENTED_EDGE ( 'NONE', *, *, #120, .F. ) ;
#365 = ADVANCED_FACE ( 'NONE', ( #852 ), #247, .F. ) ;
#366 = FACE_OUTER_BOUND ( 'NONE', #153, .T. ) ;
#367 = AXIS2_PLACEMENT_3D ( 'NONE', #506, #179, #31 ) ;
#368 = CARTESIAN_POINT ( 'NONE',  ( 0.6929395551138213261, -0.09837770256678174396, 0.2500000000000000000 ) ) ;
#369 = LINE ( 'NONE', #236, #6 ) ;
#370 = ORIENTED_EDGE ( 'NONE', *, *, #528, .T. ) ;
#371 = LINE ( 'NONE', #560, #81 ) ;
#372 = CARTESIAN_POINT ( 'NONE',  ( 0.000000000000000000, 0.000000000000000000, 0.2500000000000000000 ) ) ;
#373 = ADVANCED_FACE ( 'NONE', ( #255 ), #719, .T. ) ;
#374 = ORIENTED_EDGE ( 'NONE', *, *, #839, .F. ) ;
#375 = EDGE_CURVE ( 'NONE', #435, #337, #722, .T. ) ;
#376 = LINE ( 'NONE', #426, #477 ) ;
#377 = ORIENTED_EDGE ( 'NONE', *, *, #120, .T. ) ;
#378 = AXIS2_PLACEMENT_3D ( 'NONE', #433, #762, #690 ) ;
#379 = CARTESIAN_POINT ( 'NONE',  ( 0.8250000000000000666, 0.3749999999999999445, 0.2500000000000000000 ) ) ;
#380 = DIRECTION ( 'NONE',  ( 0.000000000000000000, 0.000000000000000000, -1.000000000000000000 ) ) ;
#381 = ORIENTED_EDGE ( 'NONE', *, *, #418, .F. ) ;
#382 = EDGE_CURVE ( 'NONE', #643, #540, #849, .T. ) ;
#383 = VECTOR ( 'NONE', #733, 39.37007874015748854 ) ;
#384 = DIRECTION ( 'NONE',  ( -2.185478394931410575E-16, -1.000000000000000000, 0.000000000000000000 ) ) ;
#385 = ORIENTED_EDGE ( 'NONE', *, *, #455, .T. ) ;
#386 = DIRECTION ( 'NONE',  ( 0.000000000000000000, -0.000000000000000000, 1.000000000000000000 ) ) ;
#387 = VERTEX_POINT ( 'NONE', #253 ) ;
#388 = ADVANCED_FACE ( 'NONE', ( #189 ), #259, .F. ) ;
#389 = CARTESIAN_POINT ( 'NONE',  ( -1.410000000000000364, -0.1750000000000000167, 0.2500000000000000000 ) ) ;
#390 = ORIENTED_EDGE ( 'NONE', *, *, #327, .F. ) ;
#391 = EDGE_CURVE ( 'NONE', #99, #242, #250, .T. ) ;
#392 = PRODUCT_CONTEXT ( 'NONE', #91, 'mechanical' ) ;
#393 = AXIS2_PLACEMENT_3D ( 'NONE', #797, #143, #466 ) ;
#394 = DIRECTION ( 'NONE',  ( -0.000000000000000000, -0.000000000000000000, 1.000000000000000000 ) ) ;
#395 = ORIENTED_EDGE ( 'NONE', *, *, #714, .T. ) ;
#396 = LINE ( 'NONE', #728, #837 ) ;
#397 = VERTEX_POINT ( 'NONE', #790 ) ;
#398 = DIRECTION ( 'NONE',  ( -1.000000000000000000, 0.000000000000000000, 0.000000000000000000 ) ) ;
#399 = EDGE_CURVE ( 'NONE', #138, #48, #717, .T. ) ;
#400 = VECTOR ( 'NONE', #504, 39.37007874015748143 ) ;
#401 = CARTESIAN_POINT ( 'NONE',  ( -1.285000000000000364, 0.1750000000000000167, -0.7500000000000001110 ) ) ;
#402 = VERTEX_POINT ( 'NONE', #125 ) ;
#403 = AXIS2_PLACEMENT_3D ( 'NONE', #85, #394, #674 ) ;
#404 = CARTESIAN_POINT ( 'NONE',  ( 0.6929395551138213261, -0.09837770256678174396, 0.1250000000000000000 ) ) ;
#405 = FACE_OUTER_BOUND ( 'NONE', #129, .T. ) ;
#406 = EDGE_LOOP ( 'NONE', ( #207, #395, #410, #745 ) ) ;
#407 = AXIS2_PLACEMENT_3D ( 'NONE', #751, #422, #432 ) ;
#408 = CARTESIAN_POINT ( 'NONE',  ( 0.8250000000000000666, -0.1750000000000000167, 0.2500000000000000000 ) ) ;
#409 = CARTESIAN_POINT ( 'NONE',  ( 0.1250000000000000000, -0.2019436802675439180, 0.2500000000000000000 ) ) ;
#410 = ORIENTED_EDGE ( 'NONE', *, *, #314, .F. ) ;
#411 = LINE ( 'NONE', #676, #163 ) ;
#412 = DIRECTION ( 'NONE',  ( -1.000000000000000000, 0.000000000000000000, 0.000000000000000000 ) ) ;
#413 = AXIS2_PLACEMENT_3D ( 'NONE', #499, #152, #111 ) ;
#414 = LINE ( 'NONE', #301, #588 ) ;
#415 = VERTEX_POINT ( 'NONE', #649 ) ;
#416 = CARTESIAN_POINT ( 'NONE',  ( -1.410000000000000364, 0.3749999999999999445, 0.000000000000000000 ) ) ;
#417 = CIRCLE ( 'NONE', #293, 0.07500000000000002498 ) ;
#418 = EDGE_CURVE ( 'NONE', #86, #126, #503, .T. ) ;
#419 = EDGE_CURVE ( 'NONE', #5, #725, #63, .T. ) ;
#420 = CARTESIAN_POINT ( 'NONE',  ( -1.360000000000000320, 0.1750000000000012657, -0.1250000000000000000 ) ) ;
#421 = VERTEX_POINT ( 'NONE', #579 ) ;
#422 = DIRECTION ( 'NONE',  ( 0.000000000000000000, 0.000000000000000000, 1.000000000000000000 ) ) ;
#423 = AXIS2_PLACEMENT_3D ( 'NONE', #75, #601, #17 ) ;
#424 = FILL_AREA_STYLE_COLOUR ( '', #779 ) ;
#425 = ORIENTED_EDGE ( 'NONE', *, *, #147, .T. ) ;
#426 = CARTESIAN_POINT ( 'NONE',  ( -1.360000000000000320, 3.313233585608515774, -0.1250000000000000000 ) ) ;
#427 = EDGE_CURVE ( 'NONE', #468, #595, #396, .T. ) ;
#428 = CARTESIAN_POINT ( 'NONE',  ( -1.485000000000000098, 0.2999999999999999889, 0.2500000000000000000 ) ) ;
#429 = LINE ( 'NONE', #695, #309 ) ;
#430 = VERTEX_POINT ( 'NONE', #660 ) ;
#431 = AXIS2_PLACEMENT_3D ( 'NONE', #562, #824, #157 ) ;
#432 = DIRECTION ( 'NONE',  ( 1.000000000000000000, 0.000000000000000000, 0.000000000000000000 ) ) ;
#433 = CARTESIAN_POINT ( 'NONE',  ( -1.410000000000000364, -0.1750000000000000167, -0.7499999999999998890 ) ) ;
#434 =( LENGTH_UNIT ( ) NAMED_UNIT ( * ) SI_UNIT ( $, .METRE. ) );
#435 = VERTEX_POINT ( 'NONE', #217 ) ;
#436 = FACE_OUTER_BOUND ( 'NONE', #764, .T. ) ;
#437 = EDGE_LOOP ( 'NONE', ( #502, #332, #13, #515 ) ) ;
#438 = ADVANCED_FACE ( 'NONE', ( #740 ), #531, .F. ) ;
#439 = CIRCLE ( 'NONE', #452, 0.1000000000000000194 ) ;
#440 = CARTESIAN_POINT ( 'NONE',  ( -1.360000000000000320, 0.2500000000000000000, -0.7500000000000001110 ) ) ;
#441 = ORIENTED_EDGE ( 'NONE', *, *, #659, .F. ) ;
#442 = DIRECTION ( 'NONE',  ( -0.9837770256678169956, -0.1793955511382128998, 0.000000000000000000 ) ) ;
#443 = ORIENTED_EDGE ( 'NONE', *, *, #816, .F. ) ;
#444 = ORIENTED_EDGE ( 'NONE', *, *, #119, .T. ) ;
#445 = DIRECTION ( 'NONE',  ( 1.000000000000000000, 0.000000000000000000, 0.000000000000000000 ) ) ;
#446 = EDGE_LOOP ( 'NONE', ( #716, #124, #254, #329 ) ) ;
#447 = CIRCLE ( 'NONE', #413, 0.2374999999999996558 ) ;
#448 = EDGE_CURVE ( 'NONE', #563, #755, #666, .T. ) ;
#449 = VECTOR ( 'NONE', #93, 39.37007874015748143 ) ;
#450 = DIRECTION ( 'NONE',  ( -0.000000000000000000, -0.000000000000000000, 1.000000000000000000 ) ) ;
#451 = VERTEX_POINT ( 'NONE', #610 ) ;
#452 = AXIS2_PLACEMENT_3D ( 'NONE', #160, #688, #100 ) ;
#453 = CARTESIAN_POINT ( 'NONE',  ( -1.422499999999999654, -0.2489509972887453126, -0.4375000000000000000 ) ) ;
#454 = ORIENTED_EDGE ( 'NONE', *, *, #249, .F. ) ;
#455 = EDGE_CURVE ( 'NONE', #421, #595, #226, .T. ) ;
#456 = CARTESIAN_POINT ( 'NONE',  ( -1.435000000000000053, -0.1750000000000001832, -0.1250000000000000000 ) ) ;
#457 = ORIENTED_EDGE ( 'NONE', *, *, #528, .F. ) ;
#458 = CIRCLE ( 'NONE', #378, 0.07499999999999988620 ) ;
#459 = CARTESIAN_POINT ( 'NONE',  ( 0.9000000000000002442, 0.2999999999999999334, -0.7499999999999998890 ) ) ;
#460 = AXIS2_PLACEMENT_3D ( 'NONE', #480, #72, #19 ) ;
#461 = CARTESIAN_POINT ( 'NONE',  ( -0.6929395551138218812, 0.09837770256678174396, 0.1250000000000000000 ) ) ;
#462 = ORIENTED_EDGE ( 'NONE', *, *, #448, .F. ) ;
#463 = CIRCLE ( 'NONE', #507, 0.07500000000000002498 ) ;
#464 = CARTESIAN_POINT ( 'NONE',  ( -0.6929395551138218812, 0.09837770256678174396, 0.2500000000000000000 ) ) ;
#465 = ORIENTED_EDGE ( 'NONE', *, *, #262, .T. ) ;
#466 = DIRECTION ( 'NONE',  ( 0.000000000000000000, -0.000000000000000000, -1.000000000000000000 ) ) ;
#467 = CARTESIAN_POINT ( 'NONE',  ( 0.7750000000000000222, 0.000000000000000000, 0.1250000000000000000 ) ) ;
#468 = VERTEX_POINT ( 'NONE', #272 ) ;
#469 = CARTESIAN_POINT ( 'NONE',  ( -0.1250000000000013600, 0.2019436802675439180, 0.2500000000000000000 ) ) ;
#470 = AXIS2_PLACEMENT_3D ( 'NONE', #553, #98, #42 ) ;
#471 = CARTESIAN_POINT ( 'NONE',  ( -1.360000000000000320, 3.313233585608515774, -0.1250000000000000000 ) ) ;
#472 = ORIENTED_EDGE ( 'NONE', *, *, #772, .F. ) ;
#473 = DIRECTION ( 'NONE',  ( -0.000000000000000000, -0.000000000000000000, 1.000000000000000000 ) ) ;
#474 = UNCERTAINTY_MEASURE_WITH_UNIT (LENGTH_MEASURE( 1.000000000000000082E-05 ), #641, 'distance_accuracy_value', 'NONE');
#475 = DIRECTION ( 'NONE',  ( -0.000000000000000000, -0.000000000000000000, 1.000000000000000000 ) ) ;
#476 = ORIENTED_EDGE ( 'NONE', *, *, #735, .F. ) ;
#477 = VECTOR ( 'NONE', #106, 39.37007874015748143 ) ;
#478 = DIRECTION ( 'NONE',  ( -1.000000000000000000, 0.000000000000000000, 0.000000000000000000 ) ) ;
#479 = EDGE_CURVE ( 'NONE', #344, #48, #549, .T. ) ;
#480 = CARTESIAN_POINT ( 'NONE',  ( 0.6750000000000000444, 0.000000000000000000, 0.1250000000000000000 ) ) ;
#481 = ORIENTED_EDGE ( 'NONE', *, *, #714, .F. ) ;
#482 = EDGE_CURVE ( 'NONE', #48, #239, #417, .T. ) ;
#483 = DIRECTION ( 'NONE',  ( -1.000000000000000000, 0.000000000000000000, 0.000000000000000000 ) ) ;
#484 = APPLICATION_CONTEXT ( 'automotive_design' ) ;
#485 = CARTESIAN_POINT ( 'NONE',  ( 0.6929395551138213261, 0.09837770256678174396, 0.1250000000000000000 ) ) ;
#486 = AXIS2_PLACEMENT_3D ( 'NONE', #227, #103, #41 ) ;
#487 = ORIENTED_EDGE ( 'NONE', *, *, #788, .F. ) ;
#488 = DIRECTION ( 'NONE',  ( -1.000000000000000000, 0.000000000000000000, 0.000000000000000000 ) ) ;
#489 = AXIS2_PLACEMENT_3D ( 'NONE', #359, #618, #821 ) ;
#490 = DIRECTION ( 'NONE',  ( -0.1793955511381978285, -0.9837770256678198821, 0.000000000000000000 ) ) ;
#491 = LINE ( 'NONE', #47, #76 ) ;
#492 = ORIENTED_EDGE ( 'NONE', *, *, #448, .T. ) ;
#493 = FACE_OUTER_BOUND ( 'NONE', #320, .T. ) ;
#494 = ADVANCED_FACE ( 'NONE', ( #144 ), #744, .F. ) ;
#495 = DIRECTION ( 'NONE',  ( -0.000000000000000000, -1.000000000000000000, -0.000000000000000000 ) ) ;
#496 = VERTEX_POINT ( 'NONE', #467 ) ;
#497 = CARTESIAN_POINT ( 'NONE',  ( 0.1249999999999997641, -0.2019436802675436404, 0.1250000000000000000 ) ) ;
#498 = DIRECTION ( 'NONE',  ( -0.000000000000000000, -0.000000000000000000, 1.000000000000000000 ) ) ;
#499 = CARTESIAN_POINT ( 'NONE',  ( 0.000000000000000000, 0.000000000000000000, 0.1250000000000000000 ) ) ;
#500 = ORIENTED_EDGE ( 'NONE', *, *, #814, .T. ) ;
#501 = FACE_OUTER_BOUND ( 'NONE', #804, .T. ) ;
#502 = ORIENTED_EDGE ( 'NONE', *, *, #262, .F. ) ;
#503 = CIRCLE ( 'NONE', #241, 0.07499999999999988620 ) ;
#504 = DIRECTION ( 'NONE',  ( -0.000000000000000000, -0.000000000000000000, 1.000000000000000000 ) ) ;
#505 = ORIENTED_EDGE ( 'NONE', *, *, #140, .T. ) ;
#506 = CARTESIAN_POINT ( 'NONE',  ( 0.8250000000000001776, 0.2999999999999999334, -0.7499999999999998890 ) ) ;
#507 = AXIS2_PLACEMENT_3D ( 'NONE', #607, #545, #151 ) ;
#508 = ADVANCED_FACE ( 'NONE', ( #656 ), #328, .F. ) ;
#509 = DIRECTION ( 'NONE',  ( 1.000000000000000000, 0.000000000000000000, 0.000000000000000000 ) ) ;
#510 = ADVANCED_FACE ( 'NONE', ( #539 ), #594, .T. ) ;
#511 = DIRECTION ( 'NONE',  ( -0.000000000000000000, -0.000000000000000000, -1.000000000000000000 ) ) ;
#512 = VERTEX_POINT ( 'NONE', #148 ) ;
#513 = DIRECTION ( 'NONE',  ( 0.000000000000000000, -0.000000000000000000, -1.000000000000000000 ) ) ;
#514 = DIRECTION ( 'NONE',  ( -0.000000000000000000, -0.000000000000000000, 1.000000000000000000 ) ) ;
#515 = ORIENTED_EDGE ( 'NONE', *, *, #133, .T. ) ;
#516 = VECTOR ( 'NONE', #59, 39.37007874015748143 ) ;
#517 = DIRECTION ( 'NONE',  ( 1.000000000000000000, 0.000000000000000000, 0.000000000000000000 ) ) ;
#518 = AXIS2_PLACEMENT_3D ( 'NONE', #389, #380, #654 ) ;
#519 = CARTESIAN_POINT ( 'NONE',  ( -1.410000000000000364, 0.2999999999999999889, -0.7500000000000001110 ) ) ;
#520 = ORIENTED_EDGE ( 'NONE', *, *, #559, .F. ) ;
#521 = EDGE_CURVE ( 'NONE', #397, #415, #201, .T. ) ;
#522 = AXIS2_PLACEMENT_3D ( 'NONE', #114, #823, #697 ) ;
#523 = CARTESIAN_POINT ( 'NONE',  ( -1.410000000000000364, 0.3749999999999999445, 0.2500000000000000000 ) ) ;
#524 = EDGE_LOOP ( 'NONE', ( #472, #465, #193, #70 ) ) ;
#525 = LINE ( 'NONE', #459, #516 ) ;
#526 = CARTESIAN_POINT ( 'NONE',  ( -0.1250000000000011380, 0.2019436802675436127, 0.1250000000000000000 ) ) ;
#527 = ORIENTED_EDGE ( 'NONE', *, *, #699, .T. ) ;
#528 = EDGE_CURVE ( 'NONE', #126, #725, #15, .T. ) ;
#529 = VECTOR ( 'NONE', #284, 39.37007874015748143 ) ;
#530 = AXIS2_PLACEMENT_3D ( 'NONE', #182, #586, #1 ) ;
#531 = CYLINDRICAL_SURFACE ( 'NONE', #460, 0.1000000000000000194 ) ;
#532 = ORIENTED_EDGE ( 'NONE', *, *, #653, .F. ) ;
#533 = PLANE ( 'NONE',  #393 ) ;
#534 = CIRCLE ( 'NONE', #844, 0.07500000000000002498 ) ;
#535 = CARTESIAN_POINT ( 'NONE',  ( -1.360000000000000320, 3.313233585608515774, -0.1250000000000000000 ) ) ;
#536 = ORIENTED_EDGE ( 'NONE', *, *, #743, .T. ) ;
#537 = ADVANCED_FACE ( 'NONE', ( #3 ), #209, .T. ) ;
#538 = CARTESIAN_POINT ( 'NONE',  ( 0.6929395551138213261, 0.09837770256678174396, 0.1250000000000000000 ) ) ;
#539 = FACE_OUTER_BOUND ( 'NONE', #214, .T. ) ;
#540 = VERTEX_POINT ( 'NONE', #464 ) ;
#541 = CARTESIAN_POINT ( 'NONE',  ( 0.8250000000000001776, 0.2999999999999999334, -0.1250000000000000278 ) ) ;
#542 = PRESENTATION_LAYER_ASSIGNMENT (  '', '', ( #65 ) ) ;
#543 = DIRECTION ( 'NONE',  ( 1.000000000000000000, 0.000000000000000000, -0.000000000000000000 ) ) ;
#544 = EDGE_LOOP ( 'NONE', ( #619, #61, #810, #248 ) ) ;
#545 = DIRECTION ( 'NONE',  ( -0.000000000000000000, -0.000000000000000000, -1.000000000000000000 ) ) ;
#546 = PRODUCT_RELATED_PRODUCT_CATEGORY ( 'part', '', ( #279 ) ) ;
#547 = DIRECTION ( 'NONE',  ( -0.000000000000000000, -0.000000000000000000, 1.000000000000000000 ) ) ;
#548 = ADVANCED_FACE ( 'NONE', ( #405 ), #670, .F. ) ;
#549 = LINE ( 'NONE', #809, #90 ) ;
#550 = ORIENTED_EDGE ( 'NONE', *, *, #304, .T. ) ;
#551 = DIRECTION ( 'NONE',  ( 1.000000000000000000, 0.000000000000000000, 0.000000000000000000 ) ) ;
#552 = CARTESIAN_POINT ( 'NONE',  ( -1.410000000000000364, -0.2500000000000000000, 0.2500000000000000000 ) ) ;
#553 = CARTESIAN_POINT ( 'NONE',  ( 0.8250000000000001776, 0.3250000000000000111, -0.7500000000000001110 ) ) ;
#554 = ORIENTED_EDGE ( 'NONE', *, *, #140, .F. ) ;
#555 = CARTESIAN_POINT ( 'NONE',  ( -1.360000000000000320, 0.2499999999999998057, -0.1250000000000000000 ) ) ;
#556 = CARTESIAN_POINT ( 'NONE',  ( 0.8250000000000000666, 0.3749999999999999445, -0.7500000000000001110 ) ) ;
#557 = FACE_OUTER_BOUND ( 'NONE', #853, .T. ) ;
#558 = ORIENTED_EDGE ( 'NONE', *, *, #427, .T. ) ;
#559 = EDGE_CURVE ( 'NONE', #360, #269, #748, .T. ) ;
#560 = CARTESIAN_POINT ( 'NONE',  ( -0.1250000000000013600, 0.2019436802675439180, 0.1250000000000000000 ) ) ;
#561 = VECTOR ( 'NONE', #168, 39.37007874015748143 ) ;
#562 = CARTESIAN_POINT ( 'NONE',  ( 0.8250000000000001776, 0.3250000000000000111, -0.7499999999999998890 ) ) ;
#563 = VERTEX_POINT ( 'NONE', #264 ) ;
#564 = CARTESIAN_POINT ( 'NONE',  ( 0.000000000000000000, 0.000000000000000000, 0.1250000000000000000 ) ) ;
#565 = AXIS2_PLACEMENT_3D ( 'NONE', #782, #774, #445 ) ;
#566 = DIRECTION ( 'NONE',  ( -1.000000000000000000, 0.000000000000000000, 0.000000000000000000 ) ) ;
#567 = DIRECTION ( 'NONE',  ( -0.000000000000000000, -0.000000000000000000, 1.000000000000000000 ) ) ;
#568 = ORIENTED_EDGE ( 'NONE', *, *, #780, .T. ) ;
#569 = LINE ( 'NONE', #620, #299 ) ;
#570 = CARTESIAN_POINT ( 'NONE',  ( -0.6929395551138213261, -0.09837770256679481684, 0.1250000000000000000 ) ) ;
#571 = LENGTH_MEASURE_WITH_UNIT ( LENGTH_MEASURE( 0.02539999999999999897 ), #434 );
#572 = ORIENTED_EDGE ( 'NONE', *, *, #282, .F. ) ;
#573 = CIRCLE ( 'NONE', #834, 0.07499999999999988620 ) ;
#574 = CARTESIAN_POINT ( 'NONE',  ( 0.6929395551138214371, 0.09837770256678174396, 0.2500000000000000000 ) ) ;
#575 = LINE ( 'NONE', #819, #224 ) ;
#576 = EDGE_CURVE ( 'NONE', #430, #64, #343, .T. ) ;
#577 = CYLINDRICAL_SURFACE ( 'NONE', #136, 0.2375000000000003220 ) ;
#578 = EDGE_CURVE ( 'NONE', #822, #20, #369, .T. ) ;
#579 = CARTESIAN_POINT ( 'NONE',  ( 0.8250000000000000666, 0.2499999999999998057, -0.1250000000000000000 ) ) ;
#580 = CIRCLE ( 'NONE', #11, 0.07500000000000002498 ) ;
#581 =( NAMED_UNIT ( * ) PLANE_ANGLE_UNIT ( ) SI_UNIT ( $, .RADIAN. ) );
#582 = DIRECTION ( 'NONE',  ( 0.000000000000000000, -0.000000000000000000, 1.000000000000000000 ) ) ;
#583 = ORIENTED_EDGE ( 'NONE', *, *, #419, .F. ) ;
#584 = DIRECTION ( 'NONE',  ( 0.9837770256678198821, -0.1793955511381978285, -0.000000000000000000 ) ) ;
#585 = ADVANCED_FACE ( 'NONE', ( #36 ), #222, .F. ) ;
#586 = DIRECTION ( 'NONE',  ( -0.000000000000000000, -0.000000000000000000, 1.000000000000000000 ) ) ;
#587 = ORIENTED_EDGE ( 'NONE', *, *, #118, .T. ) ;
#588 = VECTOR ( 'NONE', #567, 39.37007874015748143 ) ;
#589 = DIRECTION ( 'NONE',  ( -1.000000000000000000, 2.185478394931410575E-16, 0.000000000000000000 ) ) ;
#590 = ORIENTED_EDGE ( 'NONE', *, *, #653, .T. ) ;
#591 = AXIS2_PLACEMENT_3D ( 'NONE', #838, #225, #488 ) ;
#592 = CARTESIAN_POINT ( 'NONE',  ( 0.9000000000000001332, -0.2500000000000000555, -0.7499999999999998890 ) ) ;
#593 = ORIENTED_EDGE ( 'NONE', *, *, #845, .F. ) ;
#594 = PLANE ( 'NONE',  #680 ) ;
#595 = VERTEX_POINT ( 'NONE', #354 ) ;
#596 = AXIS2_PLACEMENT_3D ( 'NONE', #372, #235, #34 ) ;
#597 = AXIS2_PLACEMENT_3D ( 'NONE', #711, #313, #724 ) ;
#598 = ADVANCED_FACE ( 'NONE', ( #557 ), #759, .F. ) ;
#599 = DIRECTION ( 'NONE',  ( 0.9837770256678171066, 0.1793955511382126777, 0.000000000000000000 ) ) ;
#600 = ORIENTED_EDGE ( 'NONE', *, *, #161, .F. ) ;
#601 = DIRECTION ( 'NONE',  ( -0.1793955511382129275, 0.9837770256678171066, 0.000000000000000000 ) ) ;
#602 = DIRECTION ( 'NONE',  ( 1.000000000000000000, 0.000000000000000000, 0.000000000000000000 ) ) ;
#603 = ORIENTED_EDGE ( 'NONE', *, *, #375, .T. ) ;
#604 = DIRECTION ( 'NONE',  ( 0.000000000000000000, 0.000000000000000000, 1.000000000000000000 ) ) ;
#605 = DIRECTION ( 'NONE',  ( -0.9837770256678171066, 0.1793955511382126777, 0.000000000000000000 ) ) ;
#606 = ORIENTED_EDGE ( 'NONE', *, *, #382, .F. ) ;
#607 = CARTESIAN_POINT ( 'NONE',  ( 0.8250000000000001776, 0.2999999999999999334, -0.7500000000000001110 ) ) ;
#608 = CLOSED_SHELL ( 'NONE', ( #438, #22, #585, #221, #494, #598, #243, #770, #315, #89, #7, #508, #220, #537, #510, #24, #679, #365, #548, #274, #388, #352, #335, #188, #812, #373 ) ) ;
#609 = AXIS2_PLACEMENT_3D ( 'NONE', #130, #582, #197 ) ;
#610 = CARTESIAN_POINT ( 'NONE',  ( -0.1249999999999985983, -0.2019436802675439180, 0.2500000000000000000 ) ) ;
#611 = EDGE_LOOP ( 'NONE', ( #706, #43, #233, #536 ) ) ;
#612 = CARTESIAN_POINT ( 'NONE',  ( 0.6929395551138213261, -0.09837770256678174396, 0.1250000000000000000 ) ) ;
#613 = PRESENTATION_STYLE_ASSIGNMENT (( #104 ) ) ;
#614 = ORIENTED_EDGE ( 'NONE', *, *, #194, .F. ) ;
#615 = VECTOR ( 'NONE', #21, 39.37007874015748143 ) ;
#616 = DIRECTION ( 'NONE',  ( -0.000000000000000000, -0.000000000000000000, 1.000000000000000000 ) ) ;
#617 = PLANE ( 'NONE',  #154 ) ;
#618 = DIRECTION ( 'NONE',  ( 0.000000000000000000, 1.000000000000000000, 0.000000000000000000 ) ) ;
#619 = ORIENTED_EDGE ( 'NONE', *, *, #194, .T. ) ;
#620 = CARTESIAN_POINT ( 'NONE',  ( 0.1250000000000000000, 0.2019436802675439180, 0.2500000000000000000 ) ) ;
#621 = LINE ( 'NONE', #840, #121 ) ;
#622 = VECTOR ( 'NONE', #753, 39.37007874015748143 ) ;
#623 = ORIENTED_EDGE ( 'NONE', *, *, #263, .F. ) ;
#624 = CYLINDRICAL_SURFACE ( 'NONE', #367, 0.07500000000000002498 ) ;
#625 = CARTESIAN_POINT ( 'NONE',  ( -1.360000000000000320, -0.2499999999999998057, -0.1250000000000000000 ) ) ;
#626 = CARTESIAN_POINT ( 'NONE',  ( -1.360000000000000320, -0.1750000000000001832, -0.7500000000000001110 ) ) ;
#627 = ORIENTED_EDGE ( 'NONE', *, *, #634, .F. ) ;
#628 = PLANE ( 'NONE',  #522 ) ;
#629 = CIRCLE ( 'NONE', #256, 0.2375000000000003220 ) ;
#630 = DIRECTION ( 'NONE',  ( 1.000000000000000000, 0.000000000000000000, 0.000000000000000000 ) ) ;
#631 = LINE ( 'NONE', #347, #561 ) ;
#632 = ORIENTED_EDGE ( 'NONE', *, *, #119, .F. ) ;
#633 = CARTESIAN_POINT ( 'NONE',  ( -1.410000000000000364, 0.2999999999999999889, 0.000000000000000000 ) ) ;
#634 = EDGE_CURVE ( 'NONE', #198, #251, #491, .T. ) ;
#635 = EDGE_CURVE ( 'NONE', #290, #116, #631, .T. ) ;
#636 = DIRECTION ( 'NONE',  ( -0.000000000000000000, -0.000000000000000000, 1.000000000000000000 ) ) ;
#637 = ORIENTED_EDGE ( 'NONE', *, *, #789, .T. ) ;
#638 = VECTOR ( 'NONE', #584, 39.37007874015748143 ) ;
#639 = DIRECTION ( 'NONE',  ( 0.000000000000000000, 1.000000000000000000, 0.000000000000000000 ) ) ;
#640 = VECTOR ( 'NONE', #141, 39.37007874015748143 ) ;
#641 =( CONVERSION_BASED_UNIT ( 'INCH', #787 ) LENGTH_UNIT ( ) NAMED_UNIT ( #794 ) );
#642 = MANIFOLD_SOLID_BREP ( 'Fillet2', #608 ) ;
#643 = VERTEX_POINT ( 'NONE', #749 ) ;
#644 = CYLINDRICAL_SURFACE ( 'NONE', #518, 0.07499999999999988620 ) ;
#645 = ORIENTED_EDGE ( 'NONE', *, *, #102, .T. ) ;
#646 = AXIS2_PLACEMENT_3D ( 'NONE', #10, #473, #742 ) ;
#647 = DIRECTION ( 'NONE',  ( 0.000000000000000000, 0.000000000000000000, 1.000000000000000000 ) ) ;
#648 = EDGE_CURVE ( 'NONE', #344, #421, #429, .T. ) ;
#649 = CARTESIAN_POINT ( 'NONE',  ( 0.9000000000000001332, -0.1750000000000000167, 0.2500000000000000000 ) ) ;
#650 = EDGE_LOOP ( 'NONE', ( #40, #323, #671, #83 ) ) ;
#651 = FACE_OUTER_BOUND ( 'NONE', #30, .T. ) ;
#652 = ORIENTED_EDGE ( 'NONE', *, *, #127, .F. ) ;
#653 = EDGE_CURVE ( 'NONE', #251, #290, #447, .T. ) ;
#654 = DIRECTION ( 'NONE',  ( -1.000000000000000000, 0.000000000000000000, 0.000000000000000000 ) ) ;
#655 = ORIENTED_EDGE ( 'NONE', *, *, #38, .F. ) ;
#656 = FACE_OUTER_BOUND ( 'NONE', #177, .T. ) ;
#657 = VERTEX_POINT ( 'NONE', #626 ) ;
#658 = EDGE_CURVE ( 'NONE', #468, #344, #342, .T. ) ;
#659 = EDGE_CURVE ( 'NONE', #290, #563, #414, .T. ) ;
#660 = CARTESIAN_POINT ( 'NONE',  ( -1.485000000000000098, -0.1750000000000000167, -0.7500000000000001110 ) ) ;
#661 = ORIENTED_EDGE ( 'NONE', *, *, #327, .T. ) ;
#662 = FACE_OUTER_BOUND ( 'NONE', #544, .T. ) ;
#663 = CIRCLE ( 'NONE', #596, 0.2375000000000003220 ) ;
#664 = VECTOR ( 'NONE', #599, 39.37007874015748143 ) ;
#665 = VECTOR ( 'NONE', #244, 39.37007874015748143 ) ;
#666 = LINE ( 'NONE', #409, #664 ) ;
#667 = ORIENTED_EDGE ( 'NONE', *, *, #118, .F. ) ;
#668 = CARTESIAN_POINT ( 'NONE',  ( -1.485000000000000098, -0.1750000000000000167, 0.2500000000000000000 ) ) ;
#669 = EDGE_CURVE ( 'NONE', #737, #822, #25, .T. ) ;
#670 = PLANE ( 'NONE',  #820 ) ;
#671 = ORIENTED_EDGE ( 'NONE', *, *, #249, .T. ) ;
#672 = DIRECTION ( 'NONE',  ( -1.000000000000000000, 0.000000000000000000, 0.000000000000000000 ) ) ;
#673 = PRODUCT_DEFINITION_SHAPE ( 'NONE', 'NONE',  #326 ) ;
#674 = DIRECTION ( 'NONE',  ( 1.000000000000000000, 0.000000000000000000, 0.000000000000000000 ) ) ;
#675 = ORIENTED_EDGE ( 'NONE', *, *, #689, .F. ) ;
#676 = CARTESIAN_POINT ( 'NONE',  ( -1.360000000000000320, -0.1750000000000001832, -0.7500000000000001110 ) ) ;
#677 = AXIS2_PLACEMENT_3D ( 'NONE', #685, #763, #513 ) ;
#678 = LINE ( 'NONE', #552, #196 ) ;
#679 = ADVANCED_FACE ( 'NONE', ( #158 ), #830, .F. ) ;
#680 = AXIS2_PLACEMENT_3D ( 'NONE', #535, #137, #803 ) ;
#681 = CARTESIAN_POINT ( 'NONE',  ( 0.1250000000000000000, -0.2019436802675439180, 0.1250000000000000000 ) ) ;
#682 = EDGE_LOOP ( 'NONE', ( #101, #606, #32, #79 ) ) ;
#683 = CARTESIAN_POINT ( 'NONE',  ( -0.1250000000000011380, 0.2019436802675436127, 0.1250000000000000000 ) ) ;
#684 = DIRECTION ( 'NONE',  ( -0.000000000000000000, -0.000000000000000000, -1.000000000000000000 ) ) ;
#685 = CARTESIAN_POINT ( 'NONE',  ( 0.000000000000000000, 0.3749999999999999445, 0.000000000000000000 ) ) ;
#686 = EDGE_LOOP ( 'NONE', ( #457, #807, #568, #307 ) ) ;
#687 = VECTOR ( 'NONE', #616, 39.37007874015748143 ) ;
#688 = DIRECTION ( 'NONE',  ( 0.000000000000000000, 0.000000000000000000, 1.000000000000000000 ) ) ;
#689 = EDGE_CURVE ( 'NONE', #64, #512, #573, .T. ) ;
#690 = DIRECTION ( 'NONE',  ( 1.000000000000000000, 0.000000000000000000, 0.000000000000000000 ) ) ;
#691 = SURFACE_STYLE_FILL_AREA ( #306 ) ;
#692 = EDGE_LOOP ( 'NONE', ( #732, #708, #169, #462, #700, #593, #667, #652, #108 ) ) ;
#693 = LINE ( 'NONE', #555, #855 ) ;
#694 = DIRECTION ( 'NONE',  ( 0.000000000000000000, -1.000000000000000000, 0.000000000000000000 ) ) ;
#695 = CARTESIAN_POINT ( 'NONE',  ( 0.8250000000000001776, 0.2500000000000000000, -0.1250000000000000278 ) ) ;
#696 = ORIENTED_EDGE ( 'NONE', *, *, #780, .F. ) ;
#697 = DIRECTION ( 'NONE',  ( 1.000000000000000000, 0.000000000000000000, -0.000000000000000000 ) ) ;
#698 = DIRECTION ( 'NONE',  ( -0.000000000000000000, -0.000000000000000000, -1.000000000000000000 ) ) ;
#699 = EDGE_CURVE ( 'NONE', #512, #387, #678, .T. ) ;
#700 = ORIENTED_EDGE ( 'NONE', *, *, #289, .F. ) ;
#701 = CYLINDRICAL_SURFACE ( 'NONE', #739, 0.07499999999999988620 ) ;
#702 = ORIENTED_EDGE ( 'NONE', *, *, #743, .F. ) ;
#703 = EDGE_CURVE ( 'NONE', #657, #142, #87, .T. ) ;
#704 = AXIS2_PLACEMENT_3D ( 'NONE', #564, #166, #117 ) ;
#705 = LINE ( 'NONE', #176, #791 ) ;
#706 = ORIENTED_EDGE ( 'NONE', *, *, #752, .T. ) ;
#707 = CARTESIAN_POINT ( 'NONE',  ( -0.1250000000000011380, 0.2019436802675436127, 0.2500000000000000000 ) ) ;
#708 = ORIENTED_EDGE ( 'NONE', *, *, #856, .F. ) ;
#709 = FACE_OUTER_BOUND ( 'NONE', #786, .T. ) ;
#710 = VECTOR ( 'NONE', #636, 39.37007874015748143 ) ;
#711 = CARTESIAN_POINT ( 'NONE',  ( -1.285000000000000364, 0.1750000000000000167, 0.000000000000000000 ) ) ;
#712 = EDGE_LOOP ( 'NONE', ( #364, #527, #374, #661 ) ) ;
#713 = AXIS2_PLACEMENT_3D ( 'NONE', #806, #475, #213 ) ;
#714 = EDGE_CURVE ( 'NONE', #269, #86, #110, .T. ) ;
#715 = DIRECTION ( 'NONE',  ( 0.000000000000000000, 0.000000000000000000, -1.000000000000000000 ) ) ;
#716 = ORIENTED_EDGE ( 'NONE', *, *, #150, .F. ) ;
#717 = LINE ( 'NONE', #186, #793 ) ;
#718 = ORIENTED_EDGE ( 'NONE', *, *, #55, .F. ) ;
#719 = CYLINDRICAL_SURFACE ( 'NONE', #609, 0.07500000000000002498 ) ;
#720 = ORIENTED_EDGE ( 'NONE', *, *, #427, .F. ) ;
#721 = DIMENSIONAL_EXPONENTS ( 1.000000000000000000, 0.000000000000000000, 0.000000000000000000, 0.000000000000000000, 0.000000000000000000, 0.000000000000000000, 0.000000000000000000 ) ;
#722 = CIRCLE ( 'NONE', #530, 0.07499999999999988620 ) ;
#723 =( LENGTH_UNIT ( ) NAMED_UNIT ( * ) SI_UNIT ( $, .METRE. ) );
#724 = DIRECTION ( 'NONE',  ( 1.000000000000000000, 0.000000000000000000, 0.000000000000000000 ) ) ;
#725 = VERTEX_POINT ( 'NONE', #556 ) ;
#726 = EDGE_CURVE ( 'NONE', #142, #430, #458, .T. ) ;
#727 = CIRCLE ( 'NONE', #798, 0.1000000000000000194 ) ;
#728 = CARTESIAN_POINT ( 'NONE',  ( 0.8989509972887453904, 0.3125000000000000000, -0.7500000000000001110 ) ) ;
#729 = ORIENTED_EDGE ( 'NONE', *, *, #839, .T. ) ;
#730 = CARTESIAN_POINT ( 'NONE',  ( -1.285000000000000364, 0.2500000000000000000, -0.7500000000000001110 ) ) ;
#731 = DIRECTION ( 'NONE',  ( -2.185478394931410575E-16, -1.000000000000000000, -0.000000000000000000 ) ) ;
#732 = ORIENTED_EDGE ( 'NONE', *, *, #203, .F. ) ;
#733 = DIRECTION ( 'NONE',  ( -0.9837770256678169956, -0.1793955511382128998, 0.000000000000000000 ) ) ;
#734 = PRODUCT_DEFINITION_FORMATION_WITH_SPECIFIED_SOURCE ( 'ANY', '', #279, .NOT_KNOWN. ) ;
#735 = EDGE_CURVE ( 'NONE', #387, #435, #4, .T. ) ;
#736 = DIRECTION ( 'NONE',  ( 0.000000000000000000, 0.000000000000000000, -1.000000000000000000 ) ) ;
#737 = VERTEX_POINT ( 'NONE', #485 ) ;
#738 = CARTESIAN_POINT ( 'NONE',  ( 0.8250000000000000666, -0.1750000000000000167, -0.1249999999999999584 ) ) ;
#739 = AXIS2_PLACEMENT_3D ( 'NONE', #633, #49, #308 ) ;
#740 = FACE_OUTER_BOUND ( 'NONE', #524, .T. ) ;
#741 = ORIENTED_EDGE ( 'NONE', *, *, #482, .F. ) ;
#742 = DIRECTION ( 'NONE',  ( -1.000000000000000000, 0.000000000000000000, 0.000000000000000000 ) ) ;
#743 = EDGE_CURVE ( 'NONE', #415, #402, #353, .T. ) ;
#744 = CYLINDRICAL_SURFACE ( 'NONE', #403, 0.1000000000000000194 ) ;
#745 = ORIENTED_EDGE ( 'NONE', *, *, #576, .T. ) ;
#746 = LINE ( 'NONE', #334, #97 ) ;
#747 = DIRECTION ( 'NONE',  ( 1.000000000000000000, 0.000000000000000000, 0.000000000000000000 ) ) ;
#748 = CIRCLE ( 'NONE', #713, 0.07499999999999988620 ) ;
#749 = CARTESIAN_POINT ( 'NONE',  ( -0.6929395551138218812, 0.09837770256678174396, 0.1250000000000000000 ) ) ;
#750 = ORIENTED_EDGE ( 'NONE', *, *, #578, .T. ) ;
#751 = CARTESIAN_POINT ( 'NONE',  ( 0.000000000000000000, 0.000000000000000000, 0.2500000000000000000 ) ) ;
#752 = EDGE_CURVE ( 'NONE', #402, #191, #575, .T. ) ;
#753 = DIRECTION ( 'NONE',  ( 0.000000000000000000, -0.000000000000000000, -1.000000000000000000 ) ) ;
#754 = DIRECTION ( 'NONE',  ( 0.9837770256678198821, -0.1793955511381978285, -0.000000000000000000 ) ) ;
#755 = VERTEX_POINT ( 'NONE', #368 ) ;
#756 = AXIS2_PLACEMENT_3D ( 'NONE', #349, #551, #212 ) ;
#757 = DIRECTION ( 'NONE',  ( 0.000000000000000000, 0.000000000000000000, -1.000000000000000000 ) ) ;
#758 = CARTESIAN_POINT ( 'NONE',  ( -1.485000000000000098, -0.2500000000000000000, 0.2500000000000000000 ) ) ;
#759 = PLANE ( 'NONE',  #333 ) ;
#760 = ORIENTED_EDGE ( 'NONE', *, *, #482, .T. ) ;
#761 = CARTESIAN_POINT ( 'NONE',  ( 0.7750000000000000222, 0.000000000000000000, 0.2500000000000000000 ) ) ;
#762 = DIRECTION ( 'NONE',  ( -0.000000000000000000, -0.000000000000000000, -1.000000000000000000 ) ) ;
#763 = DIRECTION ( 'NONE',  ( 0.000000000000000000, -1.000000000000000000, 0.000000000000000000 ) ) ;
#764 = EDGE_LOOP ( 'NONE', ( #381, #481, #520, #237 ) ) ;
#765 = VECTOR ( 'NONE', #514, 39.37007874015748143 ) ;
#766 = DIRECTION ( 'NONE',  ( -0.000000000000000000, -0.000000000000000000, 1.000000000000000000 ) ) ;
#767 = CARTESIAN_POINT ( 'NONE',  ( 0.8250000000000000666, -0.2500000000000000000, 0.2500000000000000000 ) ) ;
#768 = ORIENTED_EDGE ( 'NONE', *, *, #669, .F. ) ;
#769 = CARTESIAN_POINT ( 'NONE',  ( 0.9000000000000003553, 0.3000000000000000999, -0.1250000000000000000 ) ) ;
#770 = ADVANCED_FACE ( 'NONE', ( #300 ), #617, .F. ) ;
#771 = DIRECTION ( 'NONE',  ( 0.000000000000000000, 0.000000000000000000, 1.000000000000000000 ) ) ;
#772 = EDGE_CURVE ( 'NONE', #496, #737, #210, .T. ) ;
#773 = CARTESIAN_POINT ( 'NONE',  ( 0.1250000000000000000, 0.2019436802675439180, 0.2500000000000000000 ) ) ;
#774 = DIRECTION ( 'NONE',  ( -0.000000000000000000, -0.000000000000000000, 1.000000000000000000 ) ) ;
#775 = CARTESIAN_POINT ( 'NONE',  ( -1.410000000000000364, -0.1750000000000000167, 0.2500000000000000000 ) ) ;
#776 = VECTOR ( 'NONE', #694, 39.37007874015748143 ) ;
#777 = LINE ( 'NONE', #192, #68 ) ;
#778 = ORIENTED_EDGE ( 'NONE', *, *, #391, .F. ) ;
#779 = COLOUR_RGB ( '',0.7921568627450980005, 0.8196078431372548767, 0.9333333333333333481 ) ;
#780 = EDGE_CURVE ( 'NONE', #360, #5, #621, .T. ) ;
#781 = SHAPE_DEFINITION_REPRESENTATION ( #673, #71 ) ;
#782 = CARTESIAN_POINT ( 'NONE',  ( -0.6750000000000000444, -8.741913579725642299E-15, 0.1250000000000000000 ) ) ;
#783 = ORIENTED_EDGE ( 'NONE', *, *, #559, .T. ) ;
#784 = CIRCLE ( 'NONE', #407, 0.2374999999999996558 ) ;
#785 = CARTESIAN_POINT ( 'NONE',  ( 0.8250000000000001776, 0.2500000000000000000, -0.7500000000000001110 ) ) ;
#786 = EDGE_LOOP ( 'NONE', ( #112, #778, #623, #750 ) ) ;
#787 = LENGTH_MEASURE_WITH_UNIT ( LENGTH_MEASURE( 0.02539999999999999897 ), #723 );
#788 = EDGE_CURVE ( 'NONE', #251, #451, #705, .T. ) ;
#789 = EDGE_CURVE ( 'NONE', #239, #657, #46, .T. ) ;
#790 = CARTESIAN_POINT ( 'NONE',  ( 0.9000000000000002442, 0.2999999999999999334, 0.2500000000000000000 ) ) ;
#791 = VECTOR ( 'NONE', #498, 39.37007874015748143 ) ;
#792 = ORIENTED_EDGE ( 'NONE', *, *, #703, .T. ) ;
#793 = VECTOR ( 'NONE', #715, 39.37007874015748143 ) ;
#794 = DIMENSIONAL_EXPONENTS ( 1.000000000000000000, 0.000000000000000000, 0.000000000000000000, 0.000000000000000000, 0.000000000000000000, 0.000000000000000000, 0.000000000000000000 ) ;
#795 = CARTESIAN_POINT ( 'NONE',  ( -1.485000000000000098, -0.1750000000000000167, 0.2500000000000000000 ) ) ;
#796 = ORIENTED_EDGE ( 'NONE', *, *, #828, .T. ) ;
#797 = CARTESIAN_POINT ( 'NONE',  ( 0.000000000000000000, 0.2500000000000000000, 0.000000000000000000 ) ) ;
#798 = AXIS2_PLACEMENT_3D ( 'NONE', #267, #14, #155 ) ;
#799 = DIRECTION ( 'NONE',  ( 1.000000000000000000, -0.000000000000000000, 0.000000000000000000 ) ) ;
#800 = ORIENTED_EDGE ( 'NONE', *, *, #845, .T. ) ;
#801 = EDGE_CURVE ( 'NONE', #20, #242, #663, .T. ) ;
#802 = DIRECTION ( 'NONE',  ( -0.000000000000000000, -0.000000000000000000, 1.000000000000000000 ) ) ;
#803 = DIRECTION ( 'NONE',  ( -1.000000000000000000, 0.000000000000000000, -0.000000000000000000 ) ) ;
#804 = EDGE_LOOP ( 'NONE', ( #696, #783, #796, #260, #377, #645, #318, #223 ) ) ;
#805 = DIRECTION ( 'NONE',  ( 0.000000000000000000, 0.000000000000000000, -1.000000000000000000 ) ) ;
#806 = CARTESIAN_POINT ( 'NONE',  ( -1.410000000000000364, 0.2999999999999999889, 0.2500000000000000000 ) ) ;
#807 = ORIENTED_EDGE ( 'NONE', *, *, #180, .T. ) ;
#808 = PLANE ( 'NONE',  #756 ) ;
#809 = CARTESIAN_POINT ( 'NONE',  ( 0.9000000000000002442, 0.2500000000000000000, -0.7500000000000001110 ) ) ;
#810 = ORIENTED_EDGE ( 'NONE', *, *, #479, .F. ) ;
#811 = CARTESIAN_POINT ( 'NONE',  ( -1.410000000000000364, 0.3750000000000004996, -0.7500000000000001110 ) ) ;
#812 = ADVANCED_FACE ( 'NONE', ( #107 ), #305, .T. ) ;
#813 = CARTESIAN_POINT ( 'NONE',  ( 0.1250000000000000000, 0.2019436802675439180, 0.1250000000000000000 ) ) ;
#814 = EDGE_CURVE ( 'NONE', #198, #16, #232, .T. ) ;
#815 = ORIENTED_EDGE ( 'NONE', *, *, #772, .T. ) ;
#816 = EDGE_CURVE ( 'NONE', #239, #843, #28, .T. ) ;
#817 = FACE_OUTER_BOUND ( 'NONE', #26, .T. ) ;
#818 = VECTOR ( 'NONE', #566, 39.37007874015748143 ) ;
#819 = CARTESIAN_POINT ( 'NONE',  ( 0.9000000000000010214, 3.313233585608515330, -0.1250000000000000000 ) ) ;
#820 = AXIS2_PLACEMENT_3D ( 'NONE', #82, #276, #543 ) ;
#821 = DIRECTION ( 'NONE',  ( 0.000000000000000000, -0.000000000000000000, 1.000000000000000000 ) ) ;
#822 = VERTEX_POINT ( 'NONE', #835 ) ;
#823 = DIRECTION ( 'NONE',  ( 0.000000000000000000, 0.000000000000000000, 1.000000000000000000 ) ) ;
#824 = DIRECTION ( 'NONE',  ( 0.000000000000000000, 0.000000000000000000, 1.000000000000000000 ) ) ;
#825 =( NAMED_UNIT ( * ) SI_UNIT ( $, .STERADIAN. ) SOLID_ANGLE_UNIT ( ) );
#826 = VERTEX_POINT ( 'NONE', #767 ) ;
#827 = CARTESIAN_POINT ( 'NONE',  ( -1.485000000000000098, 0.2999999999999999889, 0.2500000000000000000 ) ) ;
#828 = EDGE_CURVE ( 'NONE', #269, #64, #51, .T. ) ;
#829 = LINE ( 'NONE', #310, #638 ) ;
#830 = PLANE ( 'NONE',  #677 ) ;
#831 = ORIENTED_EDGE ( 'NONE', *, *, #726, .T. ) ;
#832 = DIRECTION ( 'NONE',  ( -0.9837770256678171066, 0.1793955511382126777, -0.000000000000000000 ) ) ;
#833 = ORIENTED_EDGE ( 'NONE', *, *, #635, .F. ) ;
#834 = AXIS2_PLACEMENT_3D ( 'NONE', #775, #547, #412 ) ;
#835 = CARTESIAN_POINT ( 'NONE',  ( 0.1250000000000000000, 0.2019436802675439180, 0.1250000000000000000 ) ) ;
#836 = ORIENTED_EDGE ( 'NONE', *, *, #350, .T. ) ;
#837 = VECTOR ( 'NONE', #69, 39.37007874015748143 ) ;
#838 = CARTESIAN_POINT ( 'NONE',  ( -1.285000000000000364, 0.1750000000000000167, -0.1250000000000000000 ) ) ;
#839 = EDGE_CURVE ( 'NONE', #174, #387, #167, .T. ) ;
#840 = CARTESIAN_POINT ( 'NONE',  ( -1.485000000000000098, 0.3749999999999999445, 0.2500000000000000000 ) ) ;
#841 = CARTESIAN_POINT ( 'NONE',  ( 0.000000000000000000, 0.000000000000000000, 0.1250000000000000000 ) ) ;
#842 = CYLINDRICAL_SURFACE ( 'NONE', #53, 0.07499999999999988620 ) ;
#843 = VERTEX_POINT ( 'NONE', #420 ) ;
#844 = AXIS2_PLACEMENT_3D ( 'NONE', #408, #802, #398 ) ;
#845 = EDGE_CURVE ( 'NONE', #16, #451, #829, .T. ) ;
#846 = CARTESIAN_POINT ( 'NONE',  ( -1.360000000000000320, -0.1750000000000001832, -0.1250000000000000000 ) ) ;
#847 = EDGE_LOOP ( 'NONE', ( #718, #702, #211, #390 ) ) ;
#848 = AXIS2_PLACEMENT_3D ( 'NONE', #851, #647, #517 ) ;
#849 = LINE ( 'NONE', #461, #18 ) ;
#850 = ORIENTED_EDGE ( 'NONE', *, *, #418, .T. ) ;
#851 = CARTESIAN_POINT ( 'NONE',  ( 0.6750000000000000444, 0.000000000000000000, 0.2500000000000000000 ) ) ;
#852 = FACE_OUTER_BOUND ( 'NONE', #611, .T. ) ;
#853 = EDGE_LOOP ( 'NONE', ( #492, #600, #833, #277 ) ) ;
#854 = EDGE_CURVE ( 'NONE', #191, #397, #525, .T. ) ;
#855 = VECTOR ( 'NONE', #230, 39.37007874015748143 ) ;
#856 = EDGE_CURVE ( 'NONE', #312, #281, #261, .T. ) ;
ENDSEC;
END-ISO-10303-21;
