ISO-10303-21;
HEADER;
FILE_DESCRIPTION (( 'STEP AP214' ),
    '1' );
FILE_NAME ('handle.STEP',
    '2026-05-27T06:57:15',
    ( '' ),
    ( '' ),
    'SwSTEP 2.0',
    'SolidWorks 2025',
    '' );
FILE_SCHEMA (( 'AUTOMOTIVE_DESIGN' ));
ENDSEC;

DATA;
#1 = CARTESIAN_POINT ( 'NONE',  ( 11.62500000000000355, 17.00000000000000000, 6.500000000000000000 ) ) ;
#2 = EDGE_CURVE ( 'NONE', #528, #84, #813, .T. ) ;
#3 = PLANE ( 'NONE',  #472 ) ;
#4 = VERTEX_POINT ( 'NONE', #335 ) ;
#5 = DIRECTION ( 'NONE',  ( 1.000000000000000000, 0.000000000000000000, 0.000000000000000000 ) ) ;
#6 = DIRECTION ( 'NONE',  ( 0.000000000000000000, 0.000000000000000000, -1.000000000000000000 ) ) ;
#7 = CIRCLE ( 'NONE', #130, 1.904999999999999583 ) ;
#8 = DIRECTION ( 'NONE',  ( -1.000000000000000000, -0.000000000000000000, -0.000000000000000000 ) ) ;
#9 = CARTESIAN_POINT ( 'NONE',  ( 9.525000000000000355, 7.000000000000000000, -6.499999999999999112 ) ) ;
#10 = AXIS2_PLACEMENT_3D ( 'NONE', #123, #818, #422 ) ;
#11 = EDGE_LOOP ( 'NONE', ( #720, #403, #799, #679 ) ) ;
#12 = DIRECTION ( 'NONE',  ( -1.000000000000000000, 0.000000000000000000, 0.000000000000000000 ) ) ;
#13 = CARTESIAN_POINT ( 'NONE',  ( 9.525000000000002132, 17.00000000000000000, 10.31000000000000050 ) ) ;
#14 = ORIENTED_EDGE ( 'NONE', *, *, #28, .T. ) ;
#15 = EDGE_CURVE ( 'NONE', #270, #382, #292, .T. ) ;
#16 = CARTESIAN_POINT ( 'NONE',  ( 11.62500000000000355, 17.00000000000000000, -10.31000000000000050 ) ) ;
#17 = LINE ( 'NONE', #31, #255 ) ;
#18 = ORIENTED_EDGE ( 'NONE', *, *, #100, .T. ) ;
#19 = DIRECTION ( 'NONE',  ( 0.000000000000000000, 0.000000000000000000, -1.000000000000000000 ) ) ;
#20 = ORIENTED_EDGE ( 'NONE', *, *, #452, .T. ) ;
#21 = ADVANCED_FACE ( 'NONE', ( #272, #57, #746 ), #482, .F. ) ;
#22 = CIRCLE ( 'NONE', #764, 3.000000000000000000 ) ;
#23 = PLANE ( 'NONE',  #211 ) ;
#24 = CARTESIAN_POINT ( 'NONE',  ( 0.000000000000000000, -6.502874503472445676E-16, -10.31000000000000050 ) ) ;
#25 = ORIENTED_EDGE ( 'NONE', *, *, #709, .F. ) ;
#26 = FACE_OUTER_BOUND ( 'NONE', #756, .T. ) ;
#27 = AXIS2_PLACEMENT_3D ( 'NONE', #158, #569, #222 ) ;
#28 = EDGE_CURVE ( 'NONE', #209, #701, #414, .T. ) ;
#29 = DIRECTION ( 'NONE',  ( 1.000000000000000000, -0.000000000000000000, -0.000000000000000000 ) ) ;
#30 = ORIENTED_EDGE ( 'NONE', *, *, #669, .T. ) ;
#31 = CARTESIAN_POINT ( 'NONE',  ( 19.05000000000000071, 0.000000000000000000, 6.500000000000000000 ) ) ;
#32 = CIRCLE ( 'NONE', #150, 2.100000000000000977 ) ;
#33 = AXIS2_PLACEMENT_3D ( 'NONE', #751, #362, #213 ) ;
#34 = ADVANCED_FACE ( 'NONE', ( #826 ), #897, .F. ) ;
#35 = CARTESIAN_POINT ( 'NONE',  ( 9.525000000000002132, 17.00000000000000000, -10.31000000000000050 ) ) ;
#36 = ORIENTED_EDGE ( 'NONE', *, *, #517, .F. ) ;
#37 = DIRECTION ( 'NONE',  ( 0.000000000000000000, 0.000000000000000000, -1.000000000000000000 ) ) ;
#38 = CARTESIAN_POINT ( 'NONE',  ( 19.05000000000000071, 24.98364733855697750, 8.405000000000002913 ) ) ;
#39 = EDGE_LOOP ( 'NONE', ( #309, #634, #832, #518 ) ) ;
#40 = CARTESIAN_POINT ( 'NONE',  ( 11.62500000000000355, 17.00000000000000000, -6.499999999999999112 ) ) ;
#41 = CARTESIAN_POINT ( 'NONE',  ( 19.05000000000000071, 25.77405735396984099, 10.13828503355190769 ) ) ;
#42 = AXIS2_PLACEMENT_3D ( 'NONE', #13, #845, #834 ) ;
#43 = VERTEX_POINT ( 'NONE', #205 ) ;
#44 = EDGE_CURVE ( 'NONE', #825, #836, #387, .T. ) ;
#45 = FACE_BOUND ( 'NONE', #645, .T. ) ;
#46 = CARTESIAN_POINT ( 'NONE',  ( 11.62500000000000178, 7.000000000000000000, 6.500000000000000000 ) ) ;
#47 = ORIENTED_EDGE ( 'NONE', *, *, #85, .T. ) ;
#48 = ORIENTED_EDGE ( 'NONE', *, *, #448, .T. ) ;
#49 = LINE ( 'NONE', #458, #494 ) ;
#50 = EDGE_CURVE ( 'NONE', #654, #865, #198, .T. ) ;
#51 = ORIENTED_EDGE ( 'NONE', *, *, #762, .F. ) ;
#52 = VERTEX_POINT ( 'NONE', #763 ) ;
#53 = CARTESIAN_POINT ( 'NONE',  ( 19.05000000000000071, 25.77405735396983744, -10.13828503355190591 ) ) ;
#54 = AXIS2_PLACEMENT_3D ( 'NONE', #193, #116, #805 ) ;
#55 = EDGE_CURVE ( 'NONE', #382, #574, #96, .T. ) ;
#56 = AXIS2_PLACEMENT_3D ( 'NONE', #136, #879, #754 ) ;
#57 = FACE_BOUND ( 'NONE', #753, .T. ) ;
#58 = CARTESIAN_POINT ( 'NONE',  ( 0.000000000000000000, 40.63047254401026720, -3.363485083149966304 ) ) ;
#59 = UNCERTAINTY_MEASURE_WITH_UNIT (LENGTH_MEASURE( 1.000000000000000082E-05 ), #235, 'distance_accuracy_value', 'NONE');
#60 = ORIENTED_EDGE ( 'NONE', *, *, #890, .T. ) ;
#61 = ADVANCED_FACE ( 'NONE', ( #131 ), #426, .F. ) ;
#62 = AXIS2_PLACEMENT_3D ( 'NONE', #603, #664, #798 ) ;
#63 = CARTESIAN_POINT ( 'NONE',  ( 19.05000000000000071, -3.251437251736221852E-16, -8.404999999999999361 ) ) ;
#64 = DIRECTION ( 'NONE',  ( -1.000000000000000000, -0.000000000000000000, -0.000000000000000000 ) ) ;
#65 = ORIENTED_EDGE ( 'NONE', *, *, #120, .F. ) ;
#66 = ORIENTED_EDGE ( 'NONE', *, *, #234, .F. ) ;
#67 = AXIS2_PLACEMENT_3D ( 'NONE', #876, #105, #532 ) ;
#68 = ORIENTED_EDGE ( 'NONE', *, *, #685, .F. ) ;
#69 = CARTESIAN_POINT ( 'NONE',  ( 9.525000000000000355, 7.000000000000000000, 10.31000000000000050 ) ) ;
#70 = ORIENTED_EDGE ( 'NONE', *, *, #160, .T. ) ;
#71 = ORIENTED_EDGE ( 'NONE', *, *, #312, .F. ) ;
#72 = CARTESIAN_POINT ( 'NONE',  ( 9.525000000000003908, 24.98364733855697750, 8.405000000000002913 ) ) ;
#73 = EDGE_CURVE ( 'NONE', #181, #138, #692, .T. ) ;
#74 = CARTESIAN_POINT ( 'NONE',  ( 9.525000000000002132, 17.00000000000000000, -6.499999999999999112 ) ) ;
#75 = DIRECTION ( 'NONE',  ( -0.000000000000000000, -0.000000000000000000, -1.000000000000000000 ) ) ;
#76 = ORIENTED_EDGE ( 'NONE', *, *, #469, .F. ) ;
#77 = EDGE_CURVE ( 'NONE', #836, #825, #883, .T. ) ;
#78 = ORIENTED_EDGE ( 'NONE', *, *, #850, .F. ) ;
#79 = DIRECTION ( 'NONE',  ( 0.000000000000000000, 1.000000000000000000, 0.000000000000000000 ) ) ;
#80 = DIRECTION ( 'NONE',  ( 1.000000000000000000, 0.000000000000000000, 0.000000000000000000 ) ) ;
#81 = CARTESIAN_POINT ( 'NONE',  ( 19.05000000000000071, 25.77405735400292386, 10.13828503353682109 ) ) ;
#82 = CARTESIAN_POINT ( 'NONE',  ( 9.525000000000000355, 7.000000000000000000, -10.31000000000000050 ) ) ;
#83 = ORIENTED_EDGE ( 'NONE', *, *, #850, .T. ) ;
#84 = VERTEX_POINT ( 'NONE', #366 ) ;
#85 = EDGE_CURVE ( 'NONE', #551, #270, #212, .T. ) ;
#86 = SURFACE_STYLE_FILL_AREA ( #511 ) ;
#87 = DIRECTION ( 'NONE',  ( -1.000000000000000000, -0.000000000000000000, -0.000000000000000000 ) ) ;
#88 = ORIENTED_EDGE ( 'NONE', *, *, #823, .T. ) ;
#89 = LINE ( 'NONE', #300, #583 ) ;
#90 = CARTESIAN_POINT ( 'NONE',  ( 19.05000000000000071, 57.14999999999999858, -3.000000000000000000 ) ) ;
#91 = EDGE_LOOP ( 'NONE', ( #78, #391, #696, #794 ) ) ;
#92 = CARTESIAN_POINT ( 'NONE',  ( 9.525000000000002132, 17.00000000000000000, -10.31000000000000050 ) ) ;
#93 = EDGE_CURVE ( 'NONE', #846, #192, #221, .T. ) ;
#94 = ORIENTED_EDGE ( 'NONE', *, *, #558, .T. ) ;
#95 = DIRECTION ( 'NONE',  ( 0.000000000000000000, 0.000000000000000000, -1.000000000000000000 ) ) ;
#96 = B_SPLINE_CURVE_WITH_KNOTS ( 'NONE', 2,
 ( #821, #478, #127 ),
 .UNSPECIFIED., .F., .F.,
 ( 3, 3 ),
 ( 0.01244123433375893782, 1.000000000000000000 ),
 .UNSPECIFIED. ) ;
#97 = CARTESIAN_POINT ( 'NONE',  ( 19.05000000000000071, 25.39999999999999858, -4.594999999999999751 ) ) ;
#98 = ORIENTED_EDGE ( 'NONE', *, *, #795, .F. ) ;
#99 = CIRCLE ( 'NONE', #605, 3.000000000000000000 ) ;
#100 = EDGE_CURVE ( 'NONE', #258, #757, #705, .T. ) ;
#101 = DIRECTION ( 'NONE',  ( -0.000000000000000000, 1.000000000000000000, 0.000000000000000000 ) ) ;
#102 = ORIENTED_EDGE ( 'NONE', *, *, #866, .T. ) ;
#103 = DIRECTION ( 'NONE',  ( -1.000000000000000000, 0.000000000000000000, 0.000000000000000000 ) ) ;
#104 = EDGE_CURVE ( 'NONE', #752, #682, #828, .T. ) ;
#105 = DIRECTION ( 'NONE',  ( -1.000000000000000000, -0.000000000000000000, -0.000000000000000000 ) ) ;
#106 = ORIENTED_EDGE ( 'NONE', *, *, #312, .T. ) ;
#107 = CARTESIAN_POINT ( 'NONE',  ( 0.000000000000000000, 1.904999999999999361, -8.404999999999999361 ) ) ;
#108 = AXIS2_PLACEMENT_3D ( 'NONE', #167, #384, #659 ) ;
#109 = VECTOR ( 'NONE', #279, 1000.000000000000000 ) ;
#110 = DIRECTION ( 'NONE',  ( 1.000000000000000000, 0.000000000000000000, 0.000000000000000000 ) ) ;
#111 = ORIENTED_EDGE ( 'NONE', *, *, #530, .T. ) ;
#112 = CARTESIAN_POINT ( 'NONE',  ( 0.000000000000000000, 1.904999999999999361, 6.500000000000000000 ) ) ;
#113 = DIRECTION ( 'NONE',  ( 0.000000000000000000, 1.000000000000000000, 0.000000000000000000 ) ) ;
#114 = ADVANCED_FACE ( 'NONE', ( #637, #432, #361 ), #3, .F. ) ;
#115 = ORIENTED_EDGE ( 'NONE', *, *, #656, .F. ) ;
#116 = DIRECTION ( 'NONE',  ( -0.000000000000000000, -0.000000000000000000, -1.000000000000000000 ) ) ;
#117 = CARTESIAN_POINT ( 'NONE',  ( 1.387778780781445676E-14, 25.77405735400292386, -10.13828503353682464 ) ) ;
#118 = AXIS2_PLACEMENT_3D ( 'NONE', #157, #440, #573 ) ;
#119 = ORIENTED_EDGE ( 'NONE', *, *, #234, .T. ) ;
#120 = EDGE_CURVE ( 'NONE', #660, #4, #286, .T. ) ;
#121 = CARTESIAN_POINT ( 'NONE',  ( 19.05000000000000071, -3.251437251736221852E-16, 8.404999999999999361 ) ) ;
#122 = ORIENTED_EDGE ( 'NONE', *, *, #223, .F. ) ;
#123 = CARTESIAN_POINT ( 'NONE',  ( 9.525000000000002132, 17.00000000000000000, 6.500000000000000000 ) ) ;
#124 = DIRECTION ( 'NONE',  ( -1.000000000000000000, 0.000000000000000000, 0.000000000000000000 ) ) ;
#125 = EDGE_CURVE ( 'NONE', #451, #209, #502, .T. ) ;
#126 = ORIENTED_EDGE ( 'NONE', *, *, #346, .F. ) ;
#127 = CARTESIAN_POINT ( 'NONE',  ( 19.05000000000000071, 57.14999999999999858, -3.000000000000000000 ) ) ;
#128 = DIRECTION ( 'NONE',  ( 0.000000000000000000, 0.000000000000000000, -1.000000000000000000 ) ) ;
#129 = CARTESIAN_POINT ( 'NONE',  ( 0.000000000000000000, 0.000000000000000000, 0.000000000000000000 ) ) ;
#130 = AXIS2_PLACEMENT_3D ( 'NONE', #453, #383, #368 ) ;
#131 = FACE_OUTER_BOUND ( 'NONE', #717, .T. ) ;
#132 = DIRECTION ( 'NONE',  ( 1.000000000000000000, -0.000000000000000000, -0.000000000000000000 ) ) ;
#133 = ORIENTED_EDGE ( 'NONE', *, *, #50, .T. ) ;
#134 = VERTEX_POINT ( 'NONE', #841 ) ;
#135 = ORIENTED_EDGE ( 'NONE', *, *, #77, .T. ) ;
#136 = CARTESIAN_POINT ( 'NONE',  ( 9.525000000000000355, 7.000000000000000000, -10.31000000000000050 ) ) ;
#137 = DIRECTION ( 'NONE',  ( -0.000000000000000000, -0.000000000000000000, -1.000000000000000000 ) ) ;
#138 = VERTEX_POINT ( 'NONE', #837 ) ;
#139 = VERTEX_POINT ( 'NONE', #298 ) ;
#140 = AXIS2_PLACEMENT_3D ( 'NONE', #450, #577, #232 ) ;
#141 = ADVANCED_FACE ( 'NONE', ( #216 ), #779, .F. ) ;
#142 = ORIENTED_EDGE ( 'NONE', *, *, #656, .T. ) ;
#143 = CARTESIAN_POINT ( 'NONE',  ( 0.000000000000000000, 57.14999999999999858, -3.000000000000000000 ) ) ;
#144 = ORIENTED_EDGE ( 'NONE', *, *, #674, .T. ) ;
#145 = AXIS2_PLACEMENT_3D ( 'NONE', #9, #570, #103 ) ;
#146 = AXIS2_PLACEMENT_3D ( 'NONE', #372, #498, #152 ) ;
#147 = CARTESIAN_POINT ( 'NONE',  ( 0.000000000000000000, 0.000000000000000000, 6.500000000000000000 ) ) ;
#148 = PRODUCT_RELATED_PRODUCT_CATEGORY ( 'part', '', ( #631 ) ) ;
#149 = CARTESIAN_POINT ( 'NONE',  ( 0.000000000000000000, 1.904999999999999361, 10.31000000000000050 ) ) ;
#150 = AXIS2_PLACEMENT_3D ( 'NONE', #92, #642, #12 ) ;
#151 = DIRECTION ( 'NONE',  ( 0.000000000000000000, 0.000000000000000000, -1.000000000000000000 ) ) ;
#152 = DIRECTION ( 'NONE',  ( -1.000000000000000000, 0.000000000000000000, 0.000000000000000000 ) ) ;
#153 = CARTESIAN_POINT ( 'NONE',  ( 11.62500000000000178, 7.000000000000000000, 10.31000000000000050 ) ) ;
#154 = ADVANCED_FACE ( 'NONE', ( #357 ), #436, .F. ) ;
#155 = ORIENTED_EDGE ( 'NONE', *, *, #674, .F. ) ;
#156 = CARTESIAN_POINT ( 'NONE',  ( 19.05000000000000071, 1.904999999999999361, 8.404999999999999361 ) ) ;
#157 = CARTESIAN_POINT ( 'NONE',  ( 19.05000000000000071, 23.49499999999999744, -4.594999999999999751 ) ) ;
#158 = CARTESIAN_POINT ( 'NONE',  ( 9.525000000000000355, 7.000000000000000000, 6.500000000000000000 ) ) ;
#159 = CARTESIAN_POINT ( 'NONE',  ( 19.05000000000000071, 25.39999999999999858, 6.500000000000000000 ) ) ;
#160 = EDGE_CURVE ( 'NONE', #231, #846, #311, .T. ) ;
#161 =( NAMED_UNIT ( * ) SI_UNIT ( $, .STERADIAN. ) SOLID_ANGLE_UNIT ( ) );
#162 = DIRECTION ( 'NONE',  ( -0.000000000000000000, -0.000000000000000000, -1.000000000000000000 ) ) ;
#163 = ORIENTED_EDGE ( 'NONE', *, *, #104, .T. ) ;
#164 = FACE_OUTER_BOUND ( 'NONE', #444, .T. ) ;
#165 = CARTESIAN_POINT ( 'NONE',  ( 7.425000000000000711, 17.00000000000000000, 10.31000000000000050 ) ) ;
#166 = AXIS2_PLACEMENT_3D ( 'NONE', #74, #497, #710 ) ;
#167 = CARTESIAN_POINT ( 'NONE',  ( 19.05000000000000071, 1.904999999999999361, -8.404999999999999361 ) ) ;
#168 = ORIENTED_EDGE ( 'NONE', *, *, #427, .F. ) ;
#169 = EDGE_LOOP ( 'NONE', ( #135, #176 ) ) ;
#170 = CARTESIAN_POINT ( 'NONE',  ( 19.05000000000000071, -3.251437251736221852E-16, 8.404999999999999361 ) ) ;
#171 = SURFACE_STYLE_USAGE ( .BOTH. , #505 ) ;
#172 = ORIENTED_EDGE ( 'NONE', *, *, #93, .F. ) ;
#173 = EDGE_CURVE ( 'NONE', #302, #654, #555, .T. ) ;
#174 = DIRECTION ( 'NONE',  ( 0.000000000000000000, 0.000000000000000000, -1.000000000000000000 ) ) ;
#175 = CARTESIAN_POINT ( 'NONE',  ( 9.525000000000000355, 7.000000000000000000, 6.500000000000000000 ) ) ;
#176 = ORIENTED_EDGE ( 'NONE', *, *, #44, .T. ) ;
#177 = VECTOR ( 'NONE', #261, 1000.000000000000000 ) ;
#178 = DIRECTION ( 'NONE',  ( 1.000000000000000000, 0.000000000000000000, 0.000000000000000000 ) ) ;
#179 = AXIS2_PLACEMENT_3D ( 'NONE', #542, #760, #263 ) ;
#180 = DIRECTION ( 'NONE',  ( -1.000000000000000000, -0.000000000000000000, -0.000000000000000000 ) ) ;
#181 = VERTEX_POINT ( 'NONE', #852 ) ;
#182 = LINE ( 'NONE', #121, #413 ) ;
#183 = CIRCLE ( 'NONE', #265, 1.905000000000000471 ) ;
#184 = VECTOR ( 'NONE', #132, 1000.000000000000000 ) ;
#185 = EDGE_CURVE ( 'NONE', #495, #134, #356, .T. ) ;
#186 = DIRECTION ( 'NONE',  ( 0.000000000000000000, -1.821231995776175006E-14, -1.000000000000000000 ) ) ;
#187 = VERTEX_POINT ( 'NONE', #566 ) ;
#188 = PLANE ( 'NONE',  #215 ) ;
#189 = VECTOR ( 'NONE', #594, 1000.000000000000000 ) ;
#190 = EDGE_CURVE ( 'NONE', #425, #701, #289, .T. ) ;
#191 = DIRECTION ( 'NONE',  ( 0.000000000000000000, 0.000000000000000000, -1.000000000000000000 ) ) ;
#192 = VERTEX_POINT ( 'NONE', #580 ) ;
#193 = CARTESIAN_POINT ( 'NONE',  ( 9.525000000000002132, 17.00000000000000000, 10.31000000000000050 ) ) ;
#194 = VECTOR ( 'NONE', #632, 1000.000000000000000 ) ;
#195 = CARTESIAN_POINT ( 'NONE',  ( 19.05000000000000071, 0.000000000000000000, -6.500000000000000000 ) ) ;
#196 = CARTESIAN_POINT ( 'NONE',  ( 19.05000000000000071, 57.14999999999999858, -3.000000000000000000 ) ) ;
#197 = EDGE_LOOP ( 'NONE', ( #106, #810, #554, #398 ) ) ;
#198 = LINE ( 'NONE', #615, #690 ) ;
#199 = FACE_OUTER_BOUND ( 'NONE', #857, .T. ) ;
#200 = APPLICATION_PROTOCOL_DEFINITION ( 'draft international standard', 'automotive_design', 1998, #207 ) ;
#201 = CARTESIAN_POINT ( 'NONE',  ( 19.05000000000000071, 24.98364733855698105, -8.404999999999995808 ) ) ;
#202 = DIRECTION ( 'NONE',  ( 0.000000000000000000, 0.000000000000000000, 1.000000000000000000 ) ) ;
#203 = VERTEX_POINT ( 'NONE', #636 ) ;
#204 = EDGE_LOOP ( 'NONE', ( #253, #322, #714, #119 ) ) ;
#205 = CARTESIAN_POINT ( 'NONE',  ( 0.000000000000000000, 25.39999999999999858, 4.594999999999999751 ) ) ;
#206 = LINE ( 'NONE', #831, #344 ) ;
#207 = APPLICATION_CONTEXT ( 'automotive_design' ) ;
#208 = EDGE_CURVE ( 'NONE', #203, #327, #627, .T. ) ;
#209 = VERTEX_POINT ( 'NONE', #219 ) ;
#210 = CARTESIAN_POINT ( 'NONE',  ( 0.000000000000000000, 25.39999999999999858, 4.594999999999999751 ) ) ;
#211 = AXIS2_PLACEMENT_3D ( 'NONE', #844, #519, #174 ) ;
#212 = LINE ( 'NONE', #282, #194 ) ;
#213 = DIRECTION ( 'NONE',  ( -1.000000000000000000, 0.000000000000000000, 0.000000000000000000 ) ) ;
#214 = B_SPLINE_CURVE_WITH_KNOTS ( 'NONE', 2,
 ( #529, #549, #269 ),
 .UNSPECIFIED., .F., .F.,
 ( 3, 3 ),
 ( 0.000000000000000000, 0.9875587656662411229 ),
 .UNSPECIFIED. ) ;
#215 = AXIS2_PLACEMENT_3D ( 'NONE', #393, #867, #336 ) ;
#216 = FACE_OUTER_BOUND ( 'NONE', #91, .T. ) ;
#217 = EDGE_CURVE ( 'NONE', #673, #236, #899, .T. ) ;
#218 = CARTESIAN_POINT ( 'NONE',  ( 19.05000000000000071, 23.49499999999999744, -4.594999999999999751 ) ) ;
#219 = CARTESIAN_POINT ( 'NONE',  ( 11.62500000000000178, 7.000000000000000000, -10.31000000000000050 ) ) ;
#220 = CIRCLE ( 'NONE', #665, 1.905000000000000471 ) ;
#221 = LINE ( 'NONE', #562, #233 ) ;
#222 = DIRECTION ( 'NONE',  ( 1.000000000000000000, 0.000000000000000000, 0.000000000000000000 ) ) ;
#223 = EDGE_CURVE ( 'NONE', #84, #551, #303, .T. ) ;
#224 = DIRECTION ( 'NONE',  ( 0.000000000000000000, 0.000000000000000000, -1.000000000000000000 ) ) ;
#225 = CARTESIAN_POINT ( 'NONE',  ( 19.05000000000000071, 1.904999999999999361, -8.404999999999999361 ) ) ;
#226 = AXIS2_PLACEMENT_3D ( 'NONE', #159, #101, #229 ) ;
#227 = CARTESIAN_POINT ( 'NONE',  ( 0.000000000000000000, 24.98364733855697750, 8.405000000000002913 ) ) ;
#228 = ORIENTED_EDGE ( 'NONE', *, *, #190, .T. ) ;
#229 = DIRECTION ( 'NONE',  ( 0.000000000000000000, -0.000000000000000000, 1.000000000000000000 ) ) ;
#230 = CARTESIAN_POINT ( 'NONE',  ( 9.525000000000002132, 17.00000000000000000, 10.31000000000000050 ) ) ;
#231 = VERTEX_POINT ( 'NONE', #520 ) ;
#232 = DIRECTION ( 'NONE',  ( 0.000000000000000000, 0.000000000000000000, 1.000000000000000000 ) ) ;
#233 = VECTOR ( 'NONE', #80, 1000.000000000000000 ) ;
#234 = EDGE_CURVE ( 'NONE', #260, #865, #32, .T. ) ;
#235 =( LENGTH_UNIT ( ) NAMED_UNIT ( * ) SI_UNIT ( .MILLI., .METRE. ) );
#236 = VERTEX_POINT ( 'NONE', #501 ) ;
#237 = CARTESIAN_POINT ( 'NONE',  ( 19.05000000000000071, 1.904999999999999361, -10.31000000000000050 ) ) ;
#238 = DIRECTION ( 'NONE',  ( -0.000000000000000000, -0.000000000000000000, -1.000000000000000000 ) ) ;
#239 = EDGE_CURVE ( 'NONE', #512, #181, #183, .T. ) ;
#240 = ORIENTED_EDGE ( 'NONE', *, *, #561, .F. ) ;
#241 = DIRECTION ( 'NONE',  ( 0.000000000000000000, 0.000000000000000000, -1.000000000000000000 ) ) ;
#242 = CYLINDRICAL_SURFACE ( 'NONE', #67, 1.904999999999999583 ) ;
#243 = VERTEX_POINT ( 'NONE', #516 ) ;
#244 = ADVANCED_FACE ( 'NONE', ( #308 ), #296, .T. ) ;
#245 = DIRECTION ( 'NONE',  ( -1.000000000000000000, -0.000000000000000000, -0.000000000000000000 ) ) ;
#246 = AXIS2_PLACEMENT_3D ( 'NONE', #750, #416, #411 ) ;
#247 = MANIFOLD_SOLID_BREP ( 'Fillet2', #839 ) ;
#248 = LINE ( 'NONE', #527, #534 ) ;
#249 = ORIENTED_EDGE ( 'NONE', *, *, #160, .F. ) ;
#250 = DIRECTION ( 'NONE',  ( -0.000000000000000000, -0.000000000000000000, -1.000000000000000000 ) ) ;
#251 = ADVANCED_FACE ( 'NONE', ( #375 ), #715, .T. ) ;
#252 = FACE_OUTER_BOUND ( 'NONE', #470, .T. ) ;
#253 = ORIENTED_EDGE ( 'NONE', *, *, #50, .F. ) ;
#254 = CARTESIAN_POINT ( 'NONE',  ( 11.62500000000000178, 7.000000000000000000, 10.31000000000000050 ) ) ;
#255 = VECTOR ( 'NONE', #438, 1000.000000000000000 ) ;
#256 = CARTESIAN_POINT ( 'NONE',  ( 19.05000000000000071, 57.14999999999999858, 3.000000000000000000 ) ) ;
#257 = EDGE_CURVE ( 'NONE', #477, #513, #447, .T. ) ;
#258 = VERTEX_POINT ( 'NONE', #588 ) ;
#259 = ORIENTED_EDGE ( 'NONE', *, *, #100, .F. ) ;
#260 = VERTEX_POINT ( 'NONE', #860 ) ;
#261 = DIRECTION ( 'NONE',  ( 1.000000000000000000, -0.000000000000000000, -0.000000000000000000 ) ) ;
#262 = EDGE_CURVE ( 'NONE', #660, #258, #616, .T. ) ;
#263 = DIRECTION ( 'NONE',  ( -1.000000000000000000, 0.000000000000000000, 0.000000000000000000 ) ) ;
#264 = DIRECTION ( 'NONE',  ( -1.000000000000000000, 0.000000000000000000, 0.000000000000000000 ) ) ;
#265 = AXIS2_PLACEMENT_3D ( 'NONE', #225, #439, #313 ) ;
#266 = AXIS2_PLACEMENT_3D ( 'NONE', #667, #178, #396 ) ;
#267 = B_SPLINE_CURVE_WITH_KNOTS ( 'NONE', 2,
 ( #256, #868, #41 ),
 .UNSPECIFIED., .F., .F.,
 ( 3, 3 ),
 ( 0.000000000000000000, 0.9875587656662411229 ),
 .UNSPECIFIED. ) ;
#268 = EDGE_LOOP ( 'NONE', ( #25, #550, #820, #371 ) ) ;
#269 = CARTESIAN_POINT ( 'NONE',  ( 0.000000000000000000, 25.77405735396984099, 10.13828503355190769 ) ) ;
#270 = VERTEX_POINT ( 'NONE', #864 ) ;
#271 = UNCERTAINTY_MEASURE_WITH_UNIT (LENGTH_MEASURE( 1.000000000000000082E-05 ), #718, 'distance_accuracy_value', 'NONE');
#272 = FACE_BOUND ( 'NONE', #507, .T. ) ;
#273 = CARTESIAN_POINT ( 'NONE',  ( 19.05000000000000071, 0.000000000000000000, -6.500000000000000000 ) ) ;
#274 = EDGE_CURVE ( 'NONE', #865, #260, #499, .T. ) ;
#275 =( GEOMETRIC_REPRESENTATION_CONTEXT ( 3 ) GLOBAL_UNCERTAINTY_ASSIGNED_CONTEXT ( ( #271 ) ) GLOBAL_UNIT_ASSIGNED_CONTEXT ( ( #718, #334, #677 ) ) REPRESENTATION_CONTEXT ( 'NONE', 'WORKASPACE' ) );
#276 = ORIENTED_EDGE ( 'NONE', *, *, #485, .F. ) ;
#277 = AXIS2_PLACEMENT_3D ( 'NONE', #766, #783, #773 ) ;
#278 = ORIENTED_EDGE ( 'NONE', *, *, #890, .F. ) ;
#279 = DIRECTION ( 'NONE',  ( -0.000000000000000000, -1.000000000000000000, -0.000000000000000000 ) ) ;
#280 = ADVANCED_FACE ( 'NONE', ( #252 ), #524, .F. ) ;
#281 = ORIENTED_EDGE ( 'NONE', *, *, #44, .F. ) ;
#282 = CARTESIAN_POINT ( 'NONE',  ( 19.05000000000000071, 24.98364733855698105, -10.31000000000000050 ) ) ;
#283 = PLANE ( 'NONE',  #889 ) ;
#284 = ORIENTED_EDGE ( 'NONE', *, *, #469, .T. ) ;
#285 = EDGE_CURVE ( 'NONE', #525, #551, #461, .T. ) ;
#286 = LINE ( 'NONE', #147, #445 ) ;
#287 = CARTESIAN_POINT ( 'NONE',  ( 19.05000000000000071, 40.63047254402866315, 3.363485083149561738 ) ) ;
#288 = AXIS2_PLACEMENT_3D ( 'NONE', #736, #523, #612 ) ;
#289 = LINE ( 'NONE', #782, #855 ) ;
#290 = EDGE_CURVE ( 'NONE', #43, #4, #466, .T. ) ;
#291 = DIRECTION ( 'NONE',  ( 0.000000000000000000, 1.000000000000000000, 0.000000000000000000 ) ) ;
#292 = CIRCLE ( 'NONE', #771, 1.905000000000000471 ) ;
#293 = CARTESIAN_POINT ( 'NONE',  ( 19.05000000000000071, 57.14999999999999858, 0.000000000000000000 ) ) ;
#294 = PLANE ( 'NONE',  #881 ) ;
#295 = ORIENTED_EDGE ( 'NONE', *, *, #635, .T. ) ;
#296 = CYLINDRICAL_SURFACE ( 'NONE', #343, 1.904999999999999583 ) ;
#297 = VECTOR ( 'NONE', #593, 1000.000000000000000 ) ;
#298 = CARTESIAN_POINT ( 'NONE',  ( 7.424999999999998934, 7.000000000000000000, 10.31000000000000050 ) ) ;
#299 = ORIENTED_EDGE ( 'NONE', *, *, #104, .F. ) ;
#300 = CARTESIAN_POINT ( 'NONE',  ( 19.05000000000000071, 57.14999999999999858, -3.000000000000000000 ) ) ;
#301 = DIRECTION ( 'NONE',  ( 0.000000000000000000, 0.000000000000000000, -1.000000000000000000 ) ) ;
#302 = VERTEX_POINT ( 'NONE', #317 ) ;
#303 = LINE ( 'NONE', #24, #814 ) ;
#304 = VECTOR ( 'NONE', #113, 1000.000000000000000 ) ;
#305 = ORIENTED_EDGE ( 'NONE', *, *, #801, .T. ) ;
#306 = DIRECTION ( 'NONE',  ( 0.000000000000000000, 0.000000000000000000, 1.000000000000000000 ) ) ;
#307 = ADVANCED_FACE ( 'NONE', ( #807 ), #242, .T. ) ;
#308 = FACE_OUTER_BOUND ( 'NONE', #896, .T. ) ;
#309 = ORIENTED_EDGE ( 'NONE', *, *, #217, .F. ) ;
#310 = DIRECTION ( 'NONE',  ( -1.000000000000000000, 0.000000000000000000, 0.000000000000000000 ) ) ;
#311 = CIRCLE ( 'NONE', #586, 1.904999999999999583 ) ;
#312 = EDGE_CURVE ( 'NONE', #43, #477, #248, .T. ) ;
#313 = DIRECTION ( 'NONE',  ( 0.000000000000000000, 0.000000000000000000, -1.000000000000000000 ) ) ;
#314 = EDGE_LOOP ( 'NONE', ( #808, #585 ) ) ;
#315 = VECTOR ( 'NONE', #29, 1000.000000000000000 ) ;
#316 = CARTESIAN_POINT ( 'NONE',  ( 19.05000000000000071, 25.39999999999999858, 6.500000000000000000 ) ) ;
#317 = CARTESIAN_POINT ( 'NONE',  ( 7.425000000000000711, 17.00000000000000000, -6.499999999999999112 ) ) ;
#318 = EDGE_CURVE ( 'NONE', #192, #556, #350, .T. ) ;
#319 = ORIENTED_EDGE ( 'NONE', *, *, #262, .T. ) ;
#320 = LINE ( 'NONE', #53, #297 ) ;
#321 = DIRECTION ( 'NONE',  ( 0.000000000000000000, 0.000000000000000000, -1.000000000000000000 ) ) ;
#322 = ORIENTED_EDGE ( 'NONE', *, *, #173, .F. ) ;
#323 = EDGE_CURVE ( 'NONE', #139, #581, #578, .T. ) ;
#324 = CARTESIAN_POINT ( 'NONE',  ( 7.425000000000000711, 17.00000000000000000, 10.31000000000000050 ) ) ;
#325 = AXIS2_PLACEMENT_3D ( 'NONE', #644, #87, #151 ) ;
#326 = CARTESIAN_POINT ( 'NONE',  ( 9.525000000000000355, 7.000000000000000000, 10.31000000000000050 ) ) ;
#327 = VERTEX_POINT ( 'NONE', #46 ) ;
#328 = DIRECTION ( 'NONE',  ( -0.000000000000000000, -0.000000000000000000, -1.000000000000000000 ) ) ;
#329 = DIRECTION ( 'NONE',  ( -1.000000000000000000, 0.000000000000000000, 0.000000000000000000 ) ) ;
#330 = ORIENTED_EDGE ( 'NONE', *, *, #643, .F. ) ;
#331 = ORIENTED_EDGE ( 'NONE', *, *, #596, .T. ) ;
#332 = CARTESIAN_POINT ( 'NONE',  ( 0.000000000000000000, 23.49499999999999744, -6.500000000000000000 ) ) ;
#333 = EDGE_CURVE ( 'NONE', #556, #187, #802, .T. ) ;
#334 =( NAMED_UNIT ( * ) PLANE_ANGLE_UNIT ( ) SI_UNIT ( $, .RADIAN. ) );
#335 = CARTESIAN_POINT ( 'NONE',  ( 0.000000000000000000, 23.49499999999999744, 6.500000000000000000 ) ) ;
#336 = DIRECTION ( 'NONE',  ( 1.000000000000000000, 0.000000000000000000, -0.000000000000000000 ) ) ;
#337 = VECTOR ( 'NONE', #409, 1000.000000000000000 ) ;
#338 = ORIENTED_EDGE ( 'NONE', *, *, #2, .T. ) ;
#339 = SHAPE_DEFINITION_REPRESENTATION ( #349, #496 ) ;
#340 = ORIENTED_EDGE ( 'NONE', *, *, #239, .F. ) ;
#341 = EDGE_LOOP ( 'NONE', ( #395, #172, #249, #240 ) ) ;
#342 = DIRECTION ( 'NONE',  ( -1.000000000000000000, -0.000000000000000000, 0.000000000000000000 ) ) ;
#343 = AXIS2_PLACEMENT_3D ( 'NONE', #778, #856, #443 ) ;
#344 = VECTOR ( 'NONE', #488, 1000.000000000000000 ) ;
#345 = ORIENTED_EDGE ( 'NONE', *, *, #626, .F. ) ;
#346 = EDGE_CURVE ( 'NONE', #243, #192, #267, .T. ) ;
#347 = EDGE_LOOP ( 'NONE', ( #489, #102 ) ) ;
#348 = CYLINDRICAL_SURFACE ( 'NONE', #618, 2.100000000000000977 ) ;
#349 = PRODUCT_DEFINITION_SHAPE ( 'NONE', 'NONE',  #548 ) ;
#350 = CIRCLE ( 'NONE', #848, 1.904999999999999583 ) ;
#351 = ORIENTED_EDGE ( 'NONE', *, *, #866, .F. ) ;
#352 = ORIENTED_EDGE ( 'NONE', *, *, #558, .F. ) ;
#353 = ORIENTED_EDGE ( 'NONE', *, *, #190, .F. ) ;
#354 = DIRECTION ( 'NONE',  ( -0.000000000000000000, -0.000000000000000000, -1.000000000000000000 ) ) ;
#355 = AXIS2_PLACEMENT_3D ( 'NONE', #129, #531, #686 ) ;
#356 = CIRCLE ( 'NONE', #675, 1.904999999999999583 ) ;
#357 = FACE_OUTER_BOUND ( 'NONE', #39, .T. ) ;
#358 = CARTESIAN_POINT ( 'NONE',  ( 0.000000000000000000, -6.502874503472445676E-16, 10.31000000000000050 ) ) ;
#359 = EDGE_CURVE ( 'NONE', #528, #270, #728, .T. ) ;
#360 = EDGE_LOOP ( 'NONE', ( #481, #133, #420, #36 ) ) ;
#361 = FACE_OUTER_BOUND ( 'NONE', #419, .T. ) ;
#362 = DIRECTION ( 'NONE',  ( 0.000000000000000000, 0.000000000000000000, -1.000000000000000000 ) ) ;
#363 = ORIENTED_EDGE ( 'NONE', *, *, #744, .F. ) ;
#364 = ORIENTED_EDGE ( 'NONE', *, *, #333, .F. ) ;
#365 = DIRECTION ( 'NONE',  ( -1.000000000000000000, -0.000000000000000000, -0.000000000000000000 ) ) ;
#366 = CARTESIAN_POINT ( 'NONE',  ( 0.000000000000000000, 1.904999999999999361, -10.31000000000000050 ) ) ;
#367 = DIRECTION ( 'NONE',  ( 0.000000000000000000, -1.821231995776175873E-15, -1.000000000000000000 ) ) ;
#368 = DIRECTION ( 'NONE',  ( 0.000000000000000000, 0.000000000000000000, -1.000000000000000000 ) ) ;
#369 = PRESENTATION_STYLE_ASSIGNMENT (( #171 ) ) ;
#370 = CARTESIAN_POINT ( 'NONE',  ( 19.05000000000000071, -6.502874503472445676E-16, 10.31000000000000050 ) ) ;
#371 = ORIENTED_EDGE ( 'NONE', *, *, #2, .F. ) ;
#372 = CARTESIAN_POINT ( 'NONE',  ( 9.525000000000000355, 7.000000000000000000, 10.31000000000000050 ) ) ;
#373 = CARTESIAN_POINT ( 'NONE',  ( 19.05000000000000071, 57.14999999999999858, 3.000000000000000000 ) ) ;
#374 = ORIENTED_EDGE ( 'NONE', *, *, #377, .F. ) ;
#375 = FACE_OUTER_BOUND ( 'NONE', #268, .T. ) ;
#376 = ORIENTED_EDGE ( 'NONE', *, *, #73, .F. ) ;
#377 = EDGE_CURVE ( 'NONE', #614, #698, #99, .T. ) ;
#378 = DIRECTION ( 'NONE',  ( -1.000000000000000000, 0.000000000000000000, 0.000000000000000000 ) ) ;
#379 = DIRECTION ( 'NONE',  ( 0.000000000000000000, 0.000000000000000000, -1.000000000000000000 ) ) ;
#380 = EDGE_LOOP ( 'NONE', ( #168, #816, #824, #538 ) ) ;
#381 = CIRCLE ( 'NONE', #875, 2.100000000000000977 ) ;
#382 = VERTEX_POINT ( 'NONE', #871 ) ;
#383 = DIRECTION ( 'NONE',  ( 1.000000000000000000, 0.000000000000000000, 0.000000000000000000 ) ) ;
#384 = DIRECTION ( 'NONE',  ( -1.000000000000000000, 0.000000000000000000, 0.000000000000000000 ) ) ;
#385 = VECTOR ( 'NONE', #809, 1000.000000000000000 ) ;
#386 = ORIENTED_EDGE ( 'NONE', *, *, #787, .T. ) ;
#387 = CIRCLE ( 'NONE', #10, 2.100000000000000977 ) ;
#388 = CARTESIAN_POINT ( 'NONE',  ( 19.05000000000000071, 1.904999999999999361, -6.500000000000000000 ) ) ;
#389 = ADVANCED_FACE ( 'NONE', ( #672 ), #430, .F. ) ;
#390 = CARTESIAN_POINT ( 'NONE',  ( 19.05000000000000071, -6.502874503472445676E-16, -10.31000000000000050 ) ) ;
#391 = ORIENTED_EDGE ( 'NONE', *, *, #257, .F. ) ;
#392 = AXIS2_PLACEMENT_3D ( 'NONE', #898, #703, #128 ) ;
#393 = CARTESIAN_POINT ( 'NONE',  ( 19.05000000000000071, -6.502874503472445676E-16, -10.31000000000000050 ) ) ;
#394 = CARTESIAN_POINT ( 'NONE',  ( 19.05000000000000071, -6.502874503472445676E-16, 10.31000000000000050 ) ) ;
#395 = ORIENTED_EDGE ( 'NONE', *, *, #318, .F. ) ;
#396 = DIRECTION ( 'NONE',  ( 0.000000000000000000, 0.000000000000000000, -1.000000000000000000 ) ) ;
#397 = CARTESIAN_POINT ( 'NONE',  ( 0.000000000000000000, 57.14999999999999858, 0.000000000000000000 ) ) ;
#398 = ORIENTED_EDGE ( 'NONE', *, *, #812, .T. ) ;
#399 = CIRCLE ( 'NONE', #704, 1.904999999999999583 ) ;
#400 = LINE ( 'NONE', #748, #177 ) ;
#401 = AXIS2_PLACEMENT_3D ( 'NONE', #175, #649, #840 ) ;
#402 = CARTESIAN_POINT ( 'NONE',  ( 19.05000000000000071, 40.63047254402866315, -3.363485083149562183 ) ) ;
#403 = ORIENTED_EDGE ( 'NONE', *, *, #85, .F. ) ;
#404 = ORIENTED_EDGE ( 'NONE', *, *, #685, .T. ) ;
#405 = ADVANCED_FACE ( 'NONE', ( #854 ), #23, .T. ) ;
#406 = CARTESIAN_POINT ( 'NONE',  ( 19.05000000000000071, 24.98364733855697750, 10.31000000000000050 ) ) ;
#407 = EDGE_LOOP ( 'NONE', ( #404, #729, #126, #853 ) ) ;
#408 = ORIENTED_EDGE ( 'NONE', *, *, #318, .T. ) ;
#409 = DIRECTION ( 'NONE',  ( -1.000000000000000000, 0.000000000000000000, 0.000000000000000000 ) ) ;
#410 = EDGE_CURVE ( 'NONE', #243, #698, #849, .T. ) ;
#411 = DIRECTION ( 'NONE',  ( -1.000000000000000000, 0.000000000000000000, 0.000000000000000000 ) ) ;
#412 = CYLINDRICAL_SURFACE ( 'NONE', #572, 2.100000000000000977 ) ;
#413 = VECTOR ( 'NONE', #124, 1000.000000000000000 ) ;
#414 = CIRCLE ( 'NONE', #56, 2.100000000000000977 ) ;
#415 = ADVANCED_FACE ( 'NONE', ( #647 ), #726, .T. ) ;
#416 = DIRECTION ( 'NONE',  ( -0.000000000000000000, -0.000000000000000000, -1.000000000000000000 ) ) ;
#417 = DIRECTION ( 'NONE',  ( 1.000000000000000000, 0.000000000000000000, -0.000000000000000000 ) ) ;
#418 = CIRCLE ( 'NONE', #435, 2.100000000000000977 ) ;
#419 = EDGE_LOOP ( 'NONE', ( #386, #465, #364, #552 ) ) ;
#420 = ORIENTED_EDGE ( 'NONE', *, *, #274, .T. ) ;
#421 = ADVANCED_FACE ( 'NONE', ( #724 ), #781, .F. ) ;
#422 = DIRECTION ( 'NONE',  ( 1.000000000000000000, 0.000000000000000000, 0.000000000000000000 ) ) ;
#423 = FACE_OUTER_BOUND ( 'NONE', #341, .T. ) ;
#424 = AXIS2_PLACEMENT_3D ( 'NONE', #82, #504, #310 ) ;
#425 = VERTEX_POINT ( 'NONE', #508 ) ;
#426 = CYLINDRICAL_SURFACE ( 'NONE', #246, 2.100000000000000977 ) ;
#427 = EDGE_CURVE ( 'NONE', #134, #752, #17, .T. ) ;
#428 = DIRECTION ( 'NONE',  ( 0.000000000000000000, 0.000000000000000000, -1.000000000000000000 ) ) ;
#429 = AXIS2_PLACEMENT_3D ( 'NONE', #293, #437, #711 ) ;
#430 = B_SPLINE_SURFACE_WITH_KNOTS ( 'NONE', 2, 1, ( 
 ( #742, #117 ),
 ( #402, #891 ),
 ( #90, #792 ) ),
 .UNSPECIFIED., .F., .F., .F.,
 ( 3, 3 ),
 ( 2, 2 ),
 ( 0.01244123433485836219, 1.000000000000000000 ),
 ( 0.000000000000000000, 1.000000000000000000 ),
 .UNSPECIFIED. ) ;
#431 = ORIENTED_EDGE ( 'NONE', *, *, #681, .T. ) ;
#432 = FACE_BOUND ( 'NONE', #628, .T. ) ;
#433 = CARTESIAN_POINT ( 'NONE',  ( 19.05000000000000071, 0.000000000000000000, 6.500000000000000000 ) ) ;
#434 = PRESENTATION_LAYER_ASSIGNMENT (  '', '', ( #817 ) ) ;
#435 = AXIS2_PLACEMENT_3D ( 'NONE', #700, #769, #892 ) ;
#436 = CYLINDRICAL_SURFACE ( 'NONE', #42, 2.100000000000000977 ) ;
#437 = DIRECTION ( 'NONE',  ( -1.000000000000000000, -0.000000000000000000, -0.000000000000000000 ) ) ;
#438 = DIRECTION ( 'NONE',  ( 0.000000000000000000, 1.000000000000000000, 0.000000000000000000 ) ) ;
#439 = DIRECTION ( 'NONE',  ( 1.000000000000000000, 0.000000000000000000, 0.000000000000000000 ) ) ;
#440 = DIRECTION ( 'NONE',  ( 1.000000000000000000, 0.000000000000000000, 0.000000000000000000 ) ) ;
#441 = FACE_OUTER_BOUND ( 'NONE', #533, .T. ) ;
#442 = ORIENTED_EDGE ( 'NONE', *, *, #823, .F. ) ;
#443 = DIRECTION ( 'NONE',  ( 0.000000000000000000, 0.000000000000000000, 1.000000000000000000 ) ) ;
#444 = EDGE_LOOP ( 'NONE', ( #456, #487, #743, #725 ) ) ;
#445 = VECTOR ( 'NONE', #291, 1000.000000000000000 ) ;
#446 = DIRECTION ( 'NONE',  ( -0.000000000000000000, -0.000000000000000000, -1.000000000000000000 ) ) ;
#447 = LINE ( 'NONE', #97, #315 ) ;
#448 = EDGE_CURVE ( 'NONE', #701, #209, #806, .T. ) ;
#449 = ORIENTED_EDGE ( 'NONE', *, *, #274, .F. ) ;
#450 = CARTESIAN_POINT ( 'NONE',  ( 19.05000000000000071, 1.904999999999999361, 8.404999999999999361 ) ) ;
#451 = VERTEX_POINT ( 'NONE', #590 ) ;
#452 = EDGE_CURVE ( 'NONE', #574, #243, #22, .T. ) ;
#453 = CARTESIAN_POINT ( 'NONE',  ( 0.000000000000000000, 23.49499999999999744, -4.594999999999999751 ) ) ;
#454 = CARTESIAN_POINT ( 'NONE',  ( 0.000000000000000000, 1.904999999999999361, 8.404999999999999361 ) ) ;
#455 = VECTOR ( 'NONE', #328, 1000.000000000000000 ) ;
#456 = ORIENTED_EDGE ( 'NONE', *, *, #377, .T. ) ;
#457 = VECTOR ( 'NONE', #475, 1000.000000000000000 ) ;
#458 = CARTESIAN_POINT ( 'NONE',  ( 0.000000000000000000, 0.000000000000000000, -6.500000000000000000 ) ) ;
#459 = DIRECTION ( 'NONE',  ( 1.000000000000000000, 0.000000000000000000, 0.000000000000000000 ) ) ;
#460 = ORIENTED_EDGE ( 'NONE', *, *, #223, .T. ) ;
#461 = CIRCLE ( 'NONE', #571, 1.905000000000000471 ) ;
#462 = VECTOR ( 'NONE', #827, 1000.000000000000000 ) ;
#463 = CARTESIAN_POINT ( 'NONE',  ( 19.05000000000000071, 23.49499999999999744, -6.500000000000000000 ) ) ;
#464 = DIRECTION ( 'NONE',  ( 0.000000000000000000, 0.000000000000000000, -1.000000000000000000 ) ) ;
#465 = ORIENTED_EDGE ( 'NONE', *, *, #762, .T. ) ;
#466 = CIRCLE ( 'NONE', #491, 1.904999999999999583 ) ;
#467 = DIRECTION ( 'NONE',  ( -1.000000000000000000, 0.000000000000000000, 0.000000000000000000 ) ) ;
#468 = DIRECTION ( 'NONE',  ( 0.000000000000000000, 0.000000000000000000, -1.000000000000000000 ) ) ;
#469 = EDGE_CURVE ( 'NONE', #425, #451, #381, .T. ) ;
#470 = EDGE_LOOP ( 'NONE', ( #862, #595, #869, #330 ) ) ;
#471 = CYLINDRICAL_SURFACE ( 'NONE', #727, 2.100000000000000977 ) ;
#472 = AXIS2_PLACEMENT_3D ( 'NONE', #370, #6, #567 ) ;
#473 = ORIENTED_EDGE ( 'NONE', *, *, #359, .F. ) ;
#474 = EDGE_CURVE ( 'NONE', #900, #477, #7, .T. ) ;
#475 = DIRECTION ( 'NONE',  ( -1.000000000000000000, 0.000000000000000000, 0.000000000000000000 ) ) ;
#476 = CARTESIAN_POINT ( 'NONE',  ( 19.05000000000000071, 24.98364733855697750, 10.31000000000000050 ) ) ;
#477 = VERTEX_POINT ( 'NONE', #790 ) ;
#478 = CARTESIAN_POINT ( 'NONE',  ( 19.05000000000000071, 40.63047254401026720, -3.363485083149966304 ) ) ;
#479 = LINE ( 'NONE', #210, #695 ) ;
#480 = ADVANCED_FACE ( 'NONE', ( #441 ), #294, .F. ) ;
#481 = ORIENTED_EDGE ( 'NONE', *, *, #758, .F. ) ;
#482 = PLANE ( 'NONE',  #613 ) ;
#483 = FACE_OUTER_BOUND ( 'NONE', #360, .T. ) ;
#484 = ORIENTED_EDGE ( 'NONE', *, *, #262, .F. ) ;
#485 = EDGE_CURVE ( 'NONE', #451, #425, #657, .T. ) ;
#486 = ORIENTED_EDGE ( 'NONE', *, *, #28, .F. ) ;
#487 = ORIENTED_EDGE ( 'NONE', *, *, #410, .F. ) ;
#488 = DIRECTION ( 'NONE',  ( -1.000000000000000000, -0.000000000000000000, 0.000000000000000000 ) ) ;
#489 = ORIENTED_EDGE ( 'NONE', *, *, #208, .T. ) ;
#490 = DIRECTION ( 'NONE',  ( -1.000000000000000000, 0.000000000000000000, 0.000000000000000000 ) ) ;
#491 = AXIS2_PLACEMENT_3D ( 'NONE', #678, #110, #591 ) ;
#492 = CARTESIAN_POINT ( 'NONE',  ( 9.525000000000002132, 17.00000000000000000, 6.500000000000000000 ) ) ;
#493 = CARTESIAN_POINT ( 'NONE',  ( 7.424999999999998934, 7.000000000000000000, -10.31000000000000050 ) ) ;
#494 = VECTOR ( 'NONE', #539, 1000.000000000000000 ) ;
#495 = VERTEX_POINT ( 'NONE', #170 ) ;
#496 = ADVANCED_BREP_SHAPE_REPRESENTATION ( 'handle', ( #247, #355 ), #275 ) ;
#497 = DIRECTION ( 'NONE',  ( 0.000000000000000000, 0.000000000000000000, -1.000000000000000000 ) ) ;
#498 = DIRECTION ( 'NONE',  ( 0.000000000000000000, 0.000000000000000000, -1.000000000000000000 ) ) ;
#499 = CIRCLE ( 'NONE', #732, 2.100000000000000977 ) ;
#500 = AXIS2_PLACEMENT_3D ( 'NONE', #72, #64, #202 ) ;
#501 = CARTESIAN_POINT ( 'NONE',  ( 7.425000000000000711, 17.00000000000000000, 10.31000000000000050 ) ) ;
#502 = LINE ( 'NONE', #559, #788 ) ;
#503 = CARTESIAN_POINT ( 'NONE',  ( 19.05000000000000071, 1.904999999999999361, -6.500000000000000000 ) ) ;
#504 = DIRECTION ( 'NONE',  ( 0.000000000000000000, 0.000000000000000000, -1.000000000000000000 ) ) ;
#505 = SURFACE_SIDE_STYLE ('',( #86 ) ) ;
#506 = DIRECTION ( 'NONE',  ( -1.000000000000000000, -0.000000000000000000, -0.000000000000000000 ) ) ;
#507 = EDGE_LOOP ( 'NONE', ( #284, #666 ) ) ;
#508 = CARTESIAN_POINT ( 'NONE',  ( 7.424999999999998934, 7.000000000000000000, -6.499999999999999112 ) ) ;
#509 = ORIENTED_EDGE ( 'NONE', *, *, #448, .F. ) ;
#510 = PRODUCT_DEFINITION_FORMATION_WITH_SPECIFIED_SOURCE ( 'ANY', '', #631, .NOT_KNOWN. ) ;
#511 = FILL_AREA_STYLE ('',( #584 ) ) ;
#512 = VERTEX_POINT ( 'NONE', #388 ) ;
#513 = VERTEX_POINT ( 'NONE', #582 ) ;
#514 = AXIS2_PLACEMENT_3D ( 'NONE', #230, #19, #653 ) ;
#515 = DIRECTION ( 'NONE',  ( 1.000000000000000000, 0.000000000000000000, 0.000000000000000000 ) ) ;
#516 = CARTESIAN_POINT ( 'NONE',  ( 19.05000000000000071, 57.14999999999999858, 3.000000000000000000 ) ) ;
#517 = EDGE_CURVE ( 'NONE', #302, #260, #655, .T. ) ;
#518 = ORIENTED_EDGE ( 'NONE', *, *, #635, .F. ) ;
#519 = DIRECTION ( 'NONE',  ( 1.000000000000000000, 0.000000000000000000, 0.000000000000000000 ) ) ;
#520 = CARTESIAN_POINT ( 'NONE',  ( 0.000000000000000000, 24.98364733855697750, 10.31000000000000050 ) ) ;
#521 = EDGE_LOOP ( 'NONE', ( #66, #449 ) ) ;
#522 = ADVANCED_FACE ( 'NONE', ( #26 ), #721, .T. ) ;
#523 = DIRECTION ( 'NONE',  ( 1.000000000000000000, 0.000000000000000000, -0.000000000000000000 ) ) ;
#524 = CYLINDRICAL_SURFACE ( 'NONE', #62, 2.100000000000000977 ) ;
#525 = VERTEX_POINT ( 'NONE', #858 ) ;
#526 = FACE_BOUND ( 'NONE', #521, .T. ) ;
#527 = CARTESIAN_POINT ( 'NONE',  ( 0.000000000000000000, 25.39999999999999858, 6.500000000000000000 ) ) ;
#528 = VERTEX_POINT ( 'NONE', #237 ) ;
#529 = CARTESIAN_POINT ( 'NONE',  ( 0.000000000000000000, 57.14999999999999858, 3.000000000000000000 ) ) ;
#530 = EDGE_CURVE ( 'NONE', #682, #513, #661, .T. ) ;
#531 = DIRECTION ( 'NONE',  ( 0.000000000000000000, 0.000000000000000000, 1.000000000000000000 ) ) ;
#532 = DIRECTION ( 'NONE',  ( 0.000000000000000000, 0.000000000000000000, 1.000000000000000000 ) ) ;
#533 = EDGE_LOOP ( 'NONE', ( #442, #688, #122, #540, #144, #352, #620, #71, #623, #65, #319, #18, #611, #70, #68, #374 ) ) ;
#534 = VECTOR ( 'NONE', #464, 1000.000000000000000 ) ;
#535 = FACE_OUTER_BOUND ( 'NONE', #204, .T. ) ;
#536 = DIRECTION ( 'NONE',  ( 1.000000000000000000, 0.000000000000000000, 0.000000000000000000 ) ) ;
#537 = CIRCLE ( 'NONE', #146, 2.100000000000000977 ) ;
#538 = ORIENTED_EDGE ( 'NONE', *, *, #626, .T. ) ;
#539 = DIRECTION ( 'NONE',  ( -0.000000000000000000, -1.000000000000000000, -0.000000000000000000 ) ) ;
#540 = ORIENTED_EDGE ( 'NONE', *, *, #713, .T. ) ;
#541 = EDGE_CURVE ( 'NONE', #581, #327, #776, .T. ) ;
#542 = CARTESIAN_POINT ( 'NONE',  ( 9.525000000000002132, 17.00000000000000000, 10.31000000000000050 ) ) ;
#543 = MECHANICAL_DESIGN_GEOMETRIC_PRESENTATION_REPRESENTATION (  '', ( #817 ), #663 ) ;
#544 = CARTESIAN_POINT ( 'NONE',  ( 19.05000000000000071, 1.904999999999999361, 10.31000000000000050 ) ) ;
#545 = CIRCLE ( 'NONE', #33, 2.100000000000000977 ) ;
#546 = ORIENTED_EDGE ( 'NONE', *, *, #812, .F. ) ;
#547 = DIRECTION ( 'NONE',  ( 0.000000000000000000, 0.000000000000000000, -1.000000000000000000 ) ) ;
#548 = PRODUCT_DEFINITION ( 'UNKNOWN', '', #510, #697 ) ;
#549 = CARTESIAN_POINT ( 'NONE',  ( 0.000000000000000000, 40.63047254401027431, 3.363485083149966304 ) ) ;
#550 = ORIENTED_EDGE ( 'NONE', *, *, #73, .T. ) ;
#551 = VERTEX_POINT ( 'NONE', #601 ) ;
#552 = ORIENTED_EDGE ( 'NONE', *, *, #561, .T. ) ;
#553 = DIRECTION ( 'NONE',  ( 1.000000000000000000, 0.000000000000000000, 0.000000000000000000 ) ) ;
#554 = ORIENTED_EDGE ( 'NONE', *, *, #530, .F. ) ;
#555 = CIRCLE ( 'NONE', #166, 2.100000000000000977 ) ;
#556 = VERTEX_POINT ( 'NONE', #476 ) ;
#557 = FACE_OUTER_BOUND ( 'NONE', #380, .T. ) ;
#558 = EDGE_CURVE ( 'NONE', #900, #52, #49, .T. ) ;
#559 = CARTESIAN_POINT ( 'NONE',  ( 11.62500000000000178, 7.000000000000000000, 10.31000000000000050 ) ) ;
#560 = FACE_OUTER_BOUND ( 'NONE', #407, .T. ) ;
#561 = EDGE_CURVE ( 'NONE', #556, #231, #680, .T. ) ;
#562 = CARTESIAN_POINT ( 'NONE',  ( 0.000000000000000000, 25.77405735396984099, 10.13828503355190769 ) ) ;
#563 = CARTESIAN_POINT ( 'NONE',  ( 1.387778780781445676E-14, 25.77405735400292386, 10.13828503353682109 ) ) ;
#564 = VECTOR ( 'NONE', #250, 1000.000000000000000 ) ;
#565 = AXIS2_PLACEMENT_3D ( 'NONE', #492, #716, #901 ) ;
#566 = CARTESIAN_POINT ( 'NONE',  ( 19.05000000000000071, 1.904999999999999361, 10.31000000000000050 ) ) ;
#567 = DIRECTION ( 'NONE',  ( -1.000000000000000000, 0.000000000000000000, -0.000000000000000000 ) ) ;
#568 = ADVANCED_FACE ( 'NONE', ( #45, #526, #676 ), #188, .F. ) ;
#569 = DIRECTION ( 'NONE',  ( 0.000000000000000000, 0.000000000000000000, 1.000000000000000000 ) ) ;
#570 = DIRECTION ( 'NONE',  ( 0.000000000000000000, 0.000000000000000000, -1.000000000000000000 ) ) ;
#571 = AXIS2_PLACEMENT_3D ( 'NONE', #599, #180, #186 ) ;
#572 = AXIS2_PLACEMENT_3D ( 'NONE', #617, #75, #264 ) ;
#573 = DIRECTION ( 'NONE',  ( 0.000000000000000000, 0.000000000000000000, -1.000000000000000000 ) ) ;
#574 = VERTEX_POINT ( 'NONE', #196 ) ;
#575 = CARTESIAN_POINT ( 'NONE',  ( 0.000000000000000000, 23.49499999999999744, -6.500000000000000000 ) ) ;
#576 = ADVANCED_FACE ( 'NONE', ( #671 ), #741, .F. ) ;
#577 = DIRECTION ( 'NONE',  ( -1.000000000000000000, -0.000000000000000000, 0.000000000000000000 ) ) ;
#578 = CIRCLE ( 'NONE', #652, 2.100000000000000977 ) ;
#579 = EDGE_LOOP ( 'NONE', ( #648, #142, #484, #98 ) ) ;
#580 = CARTESIAN_POINT ( 'NONE',  ( 19.05000000000000071, 25.77405735396984099, 10.13828503355190769 ) ) ;
#581 = VERTEX_POINT ( 'NONE', #254 ) ;
#582 = CARTESIAN_POINT ( 'NONE',  ( 19.05000000000000071, 25.39999999999999858, -4.594999999999997087 ) ) ;
#583 = VECTOR ( 'NONE', #785, 1000.000000000000000 ) ;
#584 = FILL_AREA_STYLE_COLOUR ( '', #693 ) ;
#585 = ORIENTED_EDGE ( 'NONE', *, *, #833, .T. ) ;
#586 = AXIS2_PLACEMENT_3D ( 'NONE', #227, #506, #707 ) ;
#587 = CARTESIAN_POINT ( 'NONE',  ( 19.05000000000000071, 1.904999999999999361, 8.404999999999999361 ) ) ;
#588 = CARTESIAN_POINT ( 'NONE',  ( 0.000000000000000000, -3.251437251736221852E-16, 8.404999999999999361 ) ) ;
#589 = ORIENTED_EDGE ( 'NONE', *, *, #125, .F. ) ;
#590 = CARTESIAN_POINT ( 'NONE',  ( 11.62500000000000178, 7.000000000000000000, -6.499999999999999112 ) ) ;
#591 = DIRECTION ( 'NONE',  ( 0.000000000000000000, 0.000000000000000000, -1.000000000000000000 ) ) ;
#592 = ORIENTED_EDGE ( 'NONE', *, *, #359, .T. ) ;
#593 = DIRECTION ( 'NONE',  ( -1.000000000000000000, -0.000000000000000000, -0.000000000000000000 ) ) ;
#594 = DIRECTION ( 'NONE',  ( -0.000000000000000000, -1.000000000000000000, -0.000000000000000000 ) ) ;
#595 = ORIENTED_EDGE ( 'NONE', *, *, #541, .T. ) ;
#596 = EDGE_CURVE ( 'NONE', #683, #900, #873, .T. ) ;
#597 = CARTESIAN_POINT ( 'NONE',  ( 0.000000000000000000, 57.14999999999999858, -3.000000000000000000 ) ) ;
#598 = PRODUCT_CONTEXT ( 'NONE', #859, 'mechanical' ) ;
#599 = CARTESIAN_POINT ( 'NONE',  ( 0.000000000000000000, 24.98364733855698105, -8.404999999999995808 ) ) ;
#600 = ORIENTED_EDGE ( 'NONE', *, *, #15, .T. ) ;
#601 = CARTESIAN_POINT ( 'NONE',  ( 0.000000000000000000, 24.98364733855698105, -10.31000000000000050 ) ) ;
#602 = ADVANCED_FACE ( 'NONE', ( #885 ), #471, .F. ) ;
#603 = CARTESIAN_POINT ( 'NONE',  ( 9.525000000000000355, 7.000000000000000000, 10.31000000000000050 ) ) ;
#604 = ORIENTED_EDGE ( 'NONE', *, *, #125, .T. ) ;
#605 = AXIS2_PLACEMENT_3D ( 'NONE', #397, #536, #468 ) ;
#606 = DIRECTION ( 'NONE',  ( 1.000000000000000000, 0.000000000000000000, 0.000000000000000000 ) ) ;
#607 = CARTESIAN_POINT ( 'NONE',  ( 9.525000000000000355, 7.000000000000000000, 10.31000000000000050 ) ) ;
#608 = APPLICATION_PROTOCOL_DEFINITION ( 'draft international standard', 'automotive_design', 1998, #859 ) ;
#609 = ADVANCED_FACE ( 'NONE', ( #535 ), #730, .F. ) ;
#610 = VECTOR ( 'NONE', #241, 1000.000000000000000 ) ;
#611 = ORIENTED_EDGE ( 'NONE', *, *, #787, .F. ) ;
#612 = DIRECTION ( 'NONE',  ( 0.000000000000000000, 0.000000000000000000, -1.000000000000000000 ) ) ;
#613 = AXIS2_PLACEMENT_3D ( 'NONE', #195, #702, #624 ) ;
#614 = VERTEX_POINT ( 'NONE', #597 ) ;
#615 = CARTESIAN_POINT ( 'NONE',  ( 11.62500000000000355, 17.00000000000000000, 10.31000000000000050 ) ) ;
#616 = CIRCLE ( 'NONE', #888, 1.904999999999999583 ) ;
#617 = CARTESIAN_POINT ( 'NONE',  ( 9.525000000000002132, 17.00000000000000000, 10.31000000000000050 ) ) ;
#618 = AXIS2_PLACEMENT_3D ( 'NONE', #69, #354, #490 ) ;
#619 = EDGE_LOOP ( 'NONE', ( #749, #431, #88, #650 ) ) ;
#620 = ORIENTED_EDGE ( 'NONE', *, *, #474, .T. ) ;
#621 = LINE ( 'NONE', #544, #184 ) ;
#622 = ORIENTED_EDGE ( 'NONE', *, *, #346, .T. ) ;
#623 = ORIENTED_EDGE ( 'NONE', *, *, #290, .T. ) ;
#624 = DIRECTION ( 'NONE',  ( -1.000000000000000000, 0.000000000000000000, -0.000000000000000000 ) ) ;
#625 = CYLINDRICAL_SURFACE ( 'NONE', #500, 1.905000000000000471 ) ;
#626 = EDGE_CURVE ( 'NONE', #4, #752, #400, .T. ) ;
#627 = CIRCLE ( 'NONE', #401, 2.100000000000000977 ) ;
#628 = EDGE_LOOP ( 'NONE', ( #882, #777 ) ) ;
#629 = DIRECTION ( 'NONE',  ( -1.000000000000000000, 0.000000000000000000, 0.000000000000000000 ) ) ;
#630 = LINE ( 'NONE', #273, #462 ) ;
#631 = PRODUCT ( 'handle', 'handle', '', ( #598 ) ) ;
#632 = DIRECTION ( 'NONE',  ( 1.000000000000000000, -0.000000000000000000, -0.000000000000000000 ) ) ;
#633 = CARTESIAN_POINT ( 'NONE',  ( 19.05000000000000071, 1.904999999999999361, -8.404999999999999361 ) ) ;
#634 = ORIENTED_EDGE ( 'NONE', *, *, #731, .T. ) ;
#635 = EDGE_CURVE ( 'NONE', #236, #836, #745, .T. ) ;
#636 = CARTESIAN_POINT ( 'NONE',  ( 7.424999999999998934, 7.000000000000000000, 6.500000000000000000 ) ) ;
#637 = FACE_BOUND ( 'NONE', #314, .T. ) ;
#638 = CARTESIAN_POINT ( 'NONE',  ( 0.000000000000000000, 25.77405735396984099, 10.13828503355190769 ) ) ;
#639 = CARTESIAN_POINT ( 'NONE',  ( 9.525000000000000355, 7.000000000000000000, -6.499999999999999112 ) ) ;
#640 = CIRCLE ( 'NONE', #266, 1.904999999999999583 ) ;
#641 = VECTOR ( 'NONE', #629, 1000.000000000000000 ) ;
#642 = DIRECTION ( 'NONE',  ( 0.000000000000000000, 0.000000000000000000, -1.000000000000000000 ) ) ;
#643 = EDGE_CURVE ( 'NONE', #139, #203, #870, .T. ) ;
#644 = CARTESIAN_POINT ( 'NONE',  ( 19.05000000000000071, 23.49499999999999744, 4.594999999999999751 ) ) ;
#645 = EDGE_LOOP ( 'NONE', ( #509, #486 ) ) ;
#646 = CYLINDRICAL_SURFACE ( 'NONE', #429, 3.000000000000000000 ) ;
#647 = FACE_OUTER_BOUND ( 'NONE', #579, .T. ) ;
#648 = ORIENTED_EDGE ( 'NONE', *, *, #185, .F. ) ;
#649 = DIRECTION ( 'NONE',  ( 0.000000000000000000, 0.000000000000000000, 1.000000000000000000 ) ) ;
#650 = ORIENTED_EDGE ( 'NONE', *, *, #874, .F. ) ;
#651 = DIRECTION ( 'NONE',  ( -1.000000000000000000, -0.000000000000000000, -0.000000000000000000 ) ) ;
#652 = AXIS2_PLACEMENT_3D ( 'NONE', #326, #739, #733 ) ;
#653 = DIRECTION ( 'NONE',  ( -1.000000000000000000, 0.000000000000000000, 0.000000000000000000 ) ) ;
#654 = VERTEX_POINT ( 'NONE', #40 ) ;
#655 = LINE ( 'NONE', #165, #797 ) ;
#656 = EDGE_CURVE ( 'NONE', #495, #258, #182, .T. ) ;
#657 = CIRCLE ( 'NONE', #145, 2.100000000000000977 ) ;
#658 = VECTOR ( 'NONE', #780, 1000.000000000000000 ) ;
#659 = DIRECTION ( 'NONE',  ( 0.000000000000000000, 0.000000000000000000, 1.000000000000000000 ) ) ;
#660 = VERTEX_POINT ( 'NONE', #112 ) ;
#661 = LINE ( 'NONE', #316, #610 ) ;
#662 = B_SPLINE_CURVE_WITH_KNOTS ( 'NONE', 2,
 ( #765, #58, #143 ),
 .UNSPECIFIED., .F., .F.,
 ( 3, 3 ),
 ( 0.01244123433375893782, 1.000000000000000000 ),
 .UNSPECIFIED. ) ;
#663 =( GEOMETRIC_REPRESENTATION_CONTEXT ( 3 ) GLOBAL_UNCERTAINTY_ASSIGNED_CONTEXT ( ( #59 ) ) GLOBAL_UNIT_ASSIGNED_CONTEXT ( ( #235, #793, #161 ) ) REPRESENTATION_CONTEXT ( 'NONE', 'WORKASPACE' ) );
#664 = DIRECTION ( 'NONE',  ( -0.000000000000000000, -0.000000000000000000, -1.000000000000000000 ) ) ;
#665 = AXIS2_PLACEMENT_3D ( 'NONE', #633, #553, #428 ) ;
#666 = ORIENTED_EDGE ( 'NONE', *, *, #485, .T. ) ;
#667 = CARTESIAN_POINT ( 'NONE',  ( 19.05000000000000071, 1.904999999999999361, 8.404999999999999361 ) ) ;
#668 = DIRECTION ( 'NONE',  ( 0.000000000000000000, 0.000000000000000000, -1.000000000000000000 ) ) ;
#669 = EDGE_CURVE ( 'NONE', #187, #495, #640, .T. ) ;
#670 = EDGE_LOOP ( 'NONE', ( #589, #76, #228, #48 ) ) ;
#671 = FACE_OUTER_BOUND ( 'NONE', #740, .T. ) ;
#672 = FACE_OUTER_BOUND ( 'NONE', #619, .T. ) ;
#673 = VERTEX_POINT ( 'NONE', #684 ) ;
#674 = EDGE_CURVE ( 'NONE', #138, #52, #775, .T. ) ;
#675 = AXIS2_PLACEMENT_3D ( 'NONE', #156, #5, #379 ) ;
#676 = FACE_OUTER_BOUND ( 'NONE', #722, .T. ) ;
#677 =( NAMED_UNIT ( * ) SI_UNIT ( $, .STERADIAN. ) SOLID_ANGLE_UNIT ( ) );
#678 = CARTESIAN_POINT ( 'NONE',  ( 0.000000000000000000, 23.49499999999999744, 4.594999999999999751 ) ) ;
#679 = ORIENTED_EDGE ( 'NONE', *, *, #681, .F. ) ;
#680 = LINE ( 'NONE', #406, #337 ) ;
#681 = EDGE_CURVE ( 'NONE', #382, #525, #320, .T. ) ;
#682 = VERTEX_POINT ( 'NONE', #800 ) ;
#683 = VERTEX_POINT ( 'NONE', #463 ) ;
#684 = CARTESIAN_POINT ( 'NONE',  ( 11.62500000000000355, 17.00000000000000000, 10.31000000000000050 ) ) ;
#685 = EDGE_CURVE ( 'NONE', #698, #846, #214, .T. ) ;
#686 = DIRECTION ( 'NONE',  ( 1.000000000000000000, 0.000000000000000000, 0.000000000000000000 ) ) ;
#687 = VECTOR ( 'NONE', #467, 1000.000000000000000 ) ;
#688 = ORIENTED_EDGE ( 'NONE', *, *, #285, .T. ) ;
#689 = CARTESIAN_POINT ( 'NONE',  ( 11.62500000000000355, 17.00000000000000000, 10.31000000000000050 ) ) ;
#690 = VECTOR ( 'NONE', #830, 1000.000000000000000 ) ;
#691 = ORIENTED_EDGE ( 'NONE', *, *, #801, .F. ) ;
#692 = LINE ( 'NONE', #63, #641 ) ;
#693 = COLOUR_RGB ( '',0.7921568627450980005, 0.8196078431372548767, 0.9333333333333333481 ) ;
#694 = LINE ( 'NONE', #689, #734 ) ;
#695 = VECTOR ( 'NONE', #342, 1000.000000000000000 ) ;
#696 = ORIENTED_EDGE ( 'NONE', *, *, #474, .F. ) ;
#697 = PRODUCT_DEFINITION_CONTEXT ( 'detailed design', #207, 'design' ) ;
#698 = VERTEX_POINT ( 'NONE', #761 ) ;
#699 = ORIENTED_EDGE ( 'NONE', *, *, #185, .T. ) ;
#700 = CARTESIAN_POINT ( 'NONE',  ( 9.525000000000002132, 17.00000000000000000, 10.31000000000000050 ) ) ;
#701 = VERTEX_POINT ( 'NONE', #493 ) ;
#702 = DIRECTION ( 'NONE',  ( 0.000000000000000000, 0.000000000000000000, -1.000000000000000000 ) ) ;
#703 = DIRECTION ( 'NONE',  ( -1.000000000000000000, -0.000000000000000000, -0.000000000000000000 ) ) ;
#704 = AXIS2_PLACEMENT_3D ( 'NONE', #218, #8, #367 ) ;
#705 = CIRCLE ( 'NONE', #277, 1.904999999999999583 ) ;
#706 = ORIENTED_EDGE ( 'NONE', *, *, #709, .T. ) ;
#707 = DIRECTION ( 'NONE',  ( 0.000000000000000000, 3.642463991552351747E-15, -1.000000000000000000 ) ) ;
#708 = DIRECTION ( 'NONE',  ( 0.000000000000000000, 0.000000000000000000, 1.000000000000000000 ) ) ;
#709 = EDGE_CURVE ( 'NONE', #181, #528, #220, .T. ) ;
#710 = DIRECTION ( 'NONE',  ( -1.000000000000000000, 0.000000000000000000, 0.000000000000000000 ) ) ;
#711 = DIRECTION ( 'NONE',  ( 0.000000000000000000, 0.000000000000000000, 1.000000000000000000 ) ) ;
#712 = CARTESIAN_POINT ( 'NONE',  ( 19.05000000000000071, 57.14999999999999858, 0.000000000000000000 ) ) ;
#713 = EDGE_CURVE ( 'NONE', #84, #138, #843, .T. ) ;
#714 = ORIENTED_EDGE ( 'NONE', *, *, #517, .T. ) ;
#715 = CYLINDRICAL_SURFACE ( 'NONE', #108, 1.904999999999999583 ) ;
#716 = DIRECTION ( 'NONE',  ( 0.000000000000000000, 0.000000000000000000, 1.000000000000000000 ) ) ;
#717 = EDGE_LOOP ( 'NONE', ( #784, #895, #872, #351 ) ) ;
#718 =( LENGTH_UNIT ( ) NAMED_UNIT ( * ) SI_UNIT ( .MILLI., .METRE. ) );
#719 = DIRECTION ( 'NONE',  ( 1.000000000000000000, 0.000000000000000000, 0.000000000000000000 ) ) ;
#720 = ORIENTED_EDGE ( 'NONE', *, *, #15, .F. ) ;
#721 = CYLINDRICAL_SURFACE ( 'NONE', #767, 1.905000000000000471 ) ;
#722 = EDGE_LOOP ( 'NONE', ( #460, #47, #473, #338 ) ) ;
#723 = ADVANCED_FACE ( 'NONE', ( #755, #822, #557 ), #283, .F. ) ;
#724 = FACE_OUTER_BOUND ( 'NONE', #197, .T. ) ;
#725 = ORIENTED_EDGE ( 'NONE', *, *, #874, .T. ) ;
#726 = CYLINDRICAL_SURFACE ( 'NONE', #140, 1.905000000000000471 ) ;
#727 = AXIS2_PLACEMENT_3D ( 'NONE', #607, #880, #796 ) ;
#728 = LINE ( 'NONE', #390, #304 ) ;
#729 = ORIENTED_EDGE ( 'NONE', *, *, #93, .T. ) ;
#730 = CYLINDRICAL_SURFACE ( 'NONE', #54, 2.100000000000000977 ) ;
#731 = EDGE_CURVE ( 'NONE', #673, #825, #694, .T. ) ;
#732 = AXIS2_PLACEMENT_3D ( 'NONE', #35, #321, #329 ) ;
#733 = DIRECTION ( 'NONE',  ( -1.000000000000000000, 0.000000000000000000, 0.000000000000000000 ) ) ;
#734 = VECTOR ( 'NONE', #137, 1000.000000000000000 ) ;
#735 = EDGE_LOOP ( 'NONE', ( #94, #60, #691, #331 ) ) ;
#736 = CARTESIAN_POINT ( 'NONE',  ( 19.05000000000000071, 23.49499999999999744, 4.594999999999999751 ) ) ;
#737 = ADVANCED_FACE ( 'NONE', ( #423 ), #625, .T. ) ;
#738 = VECTOR ( 'NONE', #651, 1000.000000000000000 ) ;
#739 = DIRECTION ( 'NONE',  ( 0.000000000000000000, 0.000000000000000000, -1.000000000000000000 ) ) ;
#740 = EDGE_LOOP ( 'NONE', ( #299, #345, #759, #546 ) ) ;
#741 = CYLINDRICAL_SURFACE ( 'NONE', #288, 1.904999999999999583 ) ;
#742 = CARTESIAN_POINT ( 'NONE',  ( 19.05000000000000071, 25.77405735400292386, -10.13828503353682464 ) ) ;
#743 = ORIENTED_EDGE ( 'NONE', *, *, #452, .F. ) ;
#744 = EDGE_CURVE ( 'NONE', #236, #673, #418, .T. ) ;
#745 = LINE ( 'NONE', #324, #455 ) ;
#746 = FACE_OUTER_BOUND ( 'NONE', #735, .T. ) ;
#747 = ADVANCED_FACE ( 'NONE', ( #483 ), #412, .F. ) ;
#748 = CARTESIAN_POINT ( 'NONE',  ( 19.05000000000000071, 23.49499999999999744, 6.500000000000000000 ) ) ;
#749 = ORIENTED_EDGE ( 'NONE', *, *, #55, .F. ) ;
#750 = CARTESIAN_POINT ( 'NONE',  ( 9.525000000000000355, 7.000000000000000000, 10.31000000000000050 ) ) ;
#751 = CARTESIAN_POINT ( 'NONE',  ( 9.525000000000002132, 17.00000000000000000, -6.499999999999999112 ) ) ;
#752 = VERTEX_POINT ( 'NONE', #819 ) ;
#753 = EDGE_LOOP ( 'NONE', ( #851, #878 ) ) ;
#754 = DIRECTION ( 'NONE',  ( -1.000000000000000000, 0.000000000000000000, 0.000000000000000000 ) ) ;
#755 = FACE_BOUND ( 'NONE', #347, .T. ) ;
#756 = EDGE_LOOP ( 'NONE', ( #115, #804, #51, #259 ) ) ;
#757 = VERTEX_POINT ( 'NONE', #149 ) ;
#758 = EDGE_CURVE ( 'NONE', #654, #302, #545, .T. ) ;
#759 = ORIENTED_EDGE ( 'NONE', *, *, #290, .F. ) ;
#760 = DIRECTION ( 'NONE',  ( -0.000000000000000000, -0.000000000000000000, -1.000000000000000000 ) ) ;
#761 = CARTESIAN_POINT ( 'NONE',  ( 0.000000000000000000, 57.14999999999999858, 3.000000000000000000 ) ) ;
#762 = EDGE_CURVE ( 'NONE', #757, #187, #621, .T. ) ;
#763 = CARTESIAN_POINT ( 'NONE',  ( 0.000000000000000000, 1.904999999999999361, -6.500000000000000000 ) ) ;
#764 = AXIS2_PLACEMENT_3D ( 'NONE', #712, #515, #95 ) ;
#765 = CARTESIAN_POINT ( 'NONE',  ( 0.000000000000000000, 25.77405735396984099, -10.13828503355190946 ) ) ;
#766 = CARTESIAN_POINT ( 'NONE',  ( 0.000000000000000000, 1.904999999999999361, 8.404999999999999361 ) ) ;
#767 = AXIS2_PLACEMENT_3D ( 'NONE', #587, #378, #306 ) ;
#768 = ADVANCED_FACE ( 'NONE', ( #199 ), #348, .F. ) ;
#769 = DIRECTION ( 'NONE',  ( 0.000000000000000000, 0.000000000000000000, -1.000000000000000000 ) ) ;
#770 = B_SPLINE_SURFACE_WITH_KNOTS ( 'NONE', 2, 1, ( 
 ( #835, #774 ),
 ( #287, #838 ),
 ( #81, #563 ) ),
 .UNSPECIFIED., .F., .F., .F.,
 ( 3, 3 ),
 ( 2, 2 ),
 ( 0.000000000000000000, 0.9875587656651415580 ),
 ( 0.000000000000000000, 1.000000000000000000 ),
 .UNSPECIFIED. ) ;
#771 = AXIS2_PLACEMENT_3D ( 'NONE', #201, #606, #547 ) ;
#772 = EDGE_LOOP ( 'NONE', ( #887, #363, #295, #281 ) ) ;
#773 = DIRECTION ( 'NONE',  ( 0.000000000000000000, 0.000000000000000000, -1.000000000000000000 ) ) ;
#774 = CARTESIAN_POINT ( 'NONE',  ( 1.387778780781445676E-14, 57.14999999999999858, 3.000000000000000000 ) ) ;
#775 = CIRCLE ( 'NONE', #803, 1.905000000000000471 ) ;
#776 = LINE ( 'NONE', #153, #385 ) ;
#777 = ORIENTED_EDGE ( 'NONE', *, *, #217, .T. ) ;
#778 = CARTESIAN_POINT ( 'NONE',  ( 19.05000000000000071, 1.904999999999999361, -8.404999999999999361 ) ) ;
#779 = CYLINDRICAL_SURFACE ( 'NONE', #118, 1.904999999999999583 ) ;
#780 = DIRECTION ( 'NONE',  ( 1.000000000000000000, -0.000000000000000000, -0.000000000000000000 ) ) ;
#781 = PLANE ( 'NONE',  #226 ) ;
#782 = CARTESIAN_POINT ( 'NONE',  ( 7.424999999999998934, 7.000000000000000000, 10.31000000000000050 ) ) ;
#783 = DIRECTION ( 'NONE',  ( -1.000000000000000000, -0.000000000000000000, -0.000000000000000000 ) ) ;
#784 = ORIENTED_EDGE ( 'NONE', *, *, #541, .F. ) ;
#785 = DIRECTION ( 'NONE',  ( -1.000000000000000000, -0.000000000000000000, -0.000000000000000000 ) ) ;
#786 = CARTESIAN_POINT ( 'NONE',  ( 0.000000000000000000, 40.84868002780569185, -5.011532128409466047 ) ) ;
#787 = EDGE_CURVE ( 'NONE', #231, #757, #894, .T. ) ;
#788 = VECTOR ( 'NONE', #162, 1000.000000000000000 ) ;
#789 = ORIENTED_EDGE ( 'NONE', *, *, #55, .T. ) ;
#790 = CARTESIAN_POINT ( 'NONE',  ( 0.000000000000000000, 25.39999999999999858, -4.594999999999997087 ) ) ;
#791 = ORIENTED_EDGE ( 'NONE', *, *, #333, .T. ) ;
#792 = CARTESIAN_POINT ( 'NONE',  ( 1.387778780781445676E-14, 57.14999999999999858, -3.000000000000000000 ) ) ;
#793 =( NAMED_UNIT ( * ) PLANE_ANGLE_UNIT ( ) SI_UNIT ( $, .RADIAN. ) );
#794 = ORIENTED_EDGE ( 'NONE', *, *, #596, .F. ) ;
#795 = EDGE_CURVE ( 'NONE', #134, #660, #206, .T. ) ;
#796 = DIRECTION ( 'NONE',  ( -1.000000000000000000, 0.000000000000000000, 0.000000000000000000 ) ) ;
#797 = VECTOR ( 'NONE', #446, 1000.000000000000000 ) ;
#798 = DIRECTION ( 'NONE',  ( -1.000000000000000000, 0.000000000000000000, 0.000000000000000000 ) ) ;
#799 = ORIENTED_EDGE ( 'NONE', *, *, #285, .F. ) ;
#800 = CARTESIAN_POINT ( 'NONE',  ( 19.05000000000000071, 25.39999999999999858, 4.594999999999999751 ) ) ;
#801 = EDGE_CURVE ( 'NONE', #683, #512, #630, .T. ) ;
#802 = LINE ( 'NONE', #394, #189 ) ;
#803 = AXIS2_PLACEMENT_3D ( 'NONE', #107, #245, #37 ) ;
#804 = ORIENTED_EDGE ( 'NONE', *, *, #669, .F. ) ;
#805 = DIRECTION ( 'NONE',  ( -1.000000000000000000, 0.000000000000000000, 0.000000000000000000 ) ) ;
#806 = CIRCLE ( 'NONE', #424, 2.100000000000000977 ) ;
#807 = FACE_OUTER_BOUND ( 'NONE', #11, .T. ) ;
#808 = ORIENTED_EDGE ( 'NONE', *, *, #323, .T. ) ;
#809 = DIRECTION ( 'NONE',  ( -0.000000000000000000, -0.000000000000000000, -1.000000000000000000 ) ) ;
#810 = ORIENTED_EDGE ( 'NONE', *, *, #257, .T. ) ;
#811 = CIRCLE ( 'NONE', #27, 2.100000000000000977 ) ;
#812 = EDGE_CURVE ( 'NONE', #682, #43, #479, .T. ) ;
#813 = LINE ( 'NONE', #893, #457 ) ;
#814 = VECTOR ( 'NONE', #79, 1000.000000000000000 ) ;
#815 = CARTESIAN_POINT ( 'NONE',  ( 7.424999999999998934, 7.000000000000000000, 10.31000000000000050 ) ) ;
#816 = ORIENTED_EDGE ( 'NONE', *, *, #795, .T. ) ;
#817 = STYLED_ITEM ( 'NONE', ( #369 ), #247 ) ;
#818 = DIRECTION ( 'NONE',  ( 0.000000000000000000, 0.000000000000000000, 1.000000000000000000 ) ) ;
#819 = CARTESIAN_POINT ( 'NONE',  ( 19.05000000000000071, 23.49499999999999744, 6.500000000000000000 ) ) ;
#820 = ORIENTED_EDGE ( 'NONE', *, *, #713, .F. ) ;
#821 = CARTESIAN_POINT ( 'NONE',  ( 19.05000000000000071, 25.77405735396984099, -10.13828503355190946 ) ) ;
#822 = FACE_BOUND ( 'NONE', #169, .T. ) ;
#823 = EDGE_CURVE ( 'NONE', #525, #614, #662, .T. ) ;
#824 = ORIENTED_EDGE ( 'NONE', *, *, #120, .T. ) ;
#825 = VERTEX_POINT ( 'NONE', #1 ) ;
#826 = FACE_OUTER_BOUND ( 'NONE', #772, .T. ) ;
#827 = DIRECTION ( 'NONE',  ( -0.000000000000000000, -1.000000000000000000, -0.000000000000000000 ) ) ;
#828 = CIRCLE ( 'NONE', #325, 1.904999999999999583 ) ;
#829 = ADVANCED_FACE ( 'NONE', ( #560 ), #770, .F. ) ;
#830 = DIRECTION ( 'NONE',  ( -0.000000000000000000, -0.000000000000000000, -1.000000000000000000 ) ) ;
#831 = CARTESIAN_POINT ( 'NONE',  ( 19.05000000000000071, 1.904999999999999361, 6.500000000000000000 ) ) ;
#832 = ORIENTED_EDGE ( 'NONE', *, *, #77, .F. ) ;
#833 = EDGE_CURVE ( 'NONE', #581, #139, #537, .T. ) ;
#834 = DIRECTION ( 'NONE',  ( -1.000000000000000000, 0.000000000000000000, 0.000000000000000000 ) ) ;
#835 = CARTESIAN_POINT ( 'NONE',  ( 19.05000000000000071, 57.14999999999999858, 3.000000000000000000 ) ) ;
#836 = VERTEX_POINT ( 'NONE', #842 ) ;
#837 = CARTESIAN_POINT ( 'NONE',  ( 0.000000000000000000, -3.251437251736221852E-16, -8.404999999999999361 ) ) ;
#838 = CARTESIAN_POINT ( 'NONE',  ( 1.387778780781445676E-14, 40.63047254402866315, 3.363485083149561738 ) ) ;
#839 = CLOSED_SHELL ( 'NONE', ( #768, #747, #280, #154, #723, #421, #21, #568, #389, #861, #829, #114, #405, #480, #34, #61, #609, #602, #307, #244, #251, #522, #415, #141, #576, #737 ) ) ;
#840 = DIRECTION ( 'NONE',  ( 1.000000000000000000, 0.000000000000000000, 0.000000000000000000 ) ) ;
#841 = CARTESIAN_POINT ( 'NONE',  ( 19.05000000000000071, 1.904999999999999361, 6.500000000000000000 ) ) ;
#842 = CARTESIAN_POINT ( 'NONE',  ( 7.425000000000000711, 17.00000000000000000, 6.500000000000000000 ) ) ;
#843 = CIRCLE ( 'NONE', #392, 1.905000000000000471 ) ;
#844 = CARTESIAN_POINT ( 'NONE',  ( 19.05000000000000071, 40.84868002780569185, -5.011532128409466047 ) ) ;
#845 = DIRECTION ( 'NONE',  ( -0.000000000000000000, -0.000000000000000000, -1.000000000000000000 ) ) ;
#846 = VERTEX_POINT ( 'NONE', #638 ) ;
#847 = LINE ( 'NONE', #503, #658 ) ;
#848 = AXIS2_PLACEMENT_3D ( 'NONE', #38, #459, #191 ) ;
#849 = LINE ( 'NONE', #373, #738 ) ;
#850 = EDGE_CURVE ( 'NONE', #513, #683, #399, .T. ) ;
#851 = ORIENTED_EDGE ( 'NONE', *, *, #173, .T. ) ;
#852 = CARTESIAN_POINT ( 'NONE',  ( 19.05000000000000071, -3.251437251736221852E-16, -8.404999999999999361 ) ) ;
#853 = ORIENTED_EDGE ( 'NONE', *, *, #410, .T. ) ;
#854 = FACE_OUTER_BOUND ( 'NONE', #877, .T. ) ;
#855 = VECTOR ( 'NONE', #238, 1000.000000000000000 ) ;
#856 = DIRECTION ( 'NONE',  ( -1.000000000000000000, 0.000000000000000000, 0.000000000000000000 ) ) ;
#857 = EDGE_LOOP ( 'NONE', ( #276, #604, #14, #353 ) ) ;
#858 = CARTESIAN_POINT ( 'NONE',  ( 0.000000000000000000, 25.77405735396984099, -10.13828503355190946 ) ) ;
#859 = APPLICATION_CONTEXT ( 'automotive_design' ) ;
#860 = CARTESIAN_POINT ( 'NONE',  ( 7.425000000000000711, 17.00000000000000000, -10.31000000000000050 ) ) ;
#861 = ADVANCED_FACE ( 'NONE', ( #164 ), #646, .T. ) ;
#862 = ORIENTED_EDGE ( 'NONE', *, *, #833, .F. ) ;
#863 = DIRECTION ( 'NONE',  ( -1.000000000000000000, 0.000000000000000000, 0.000000000000000000 ) ) ;
#864 = CARTESIAN_POINT ( 'NONE',  ( 19.05000000000000071, 24.98364733855698105, -10.31000000000000050 ) ) ;
#865 = VERTEX_POINT ( 'NONE', #16 ) ;
#866 = EDGE_CURVE ( 'NONE', #327, #203, #811, .T. ) ;
#867 = DIRECTION ( 'NONE',  ( 0.000000000000000000, 0.000000000000000000, 1.000000000000000000 ) ) ;
#868 = CARTESIAN_POINT ( 'NONE',  ( 19.05000000000000071, 40.63047254401027431, 3.363485083149966304 ) ) ;
#869 = ORIENTED_EDGE ( 'NONE', *, *, #208, .F. ) ;
#870 = LINE ( 'NONE', #815, #564 ) ;
#871 = CARTESIAN_POINT ( 'NONE',  ( 19.05000000000000071, 25.77405735396984099, -10.13828503355190946 ) ) ;
#872 = ORIENTED_EDGE ( 'NONE', *, *, #643, .T. ) ;
#873 = LINE ( 'NONE', #332, #687 ) ;
#874 = EDGE_CURVE ( 'NONE', #574, #614, #89, .T. ) ;
#875 = AXIS2_PLACEMENT_3D ( 'NONE', #639, #224, #863 ) ;
#876 = CARTESIAN_POINT ( 'NONE',  ( 9.525000000000003908, 24.98364733855698105, -8.404999999999995808 ) ) ;
#877 = EDGE_LOOP ( 'NONE', ( #592, #600, #789, #20, #622, #408, #791, #30, #699, #884, #163, #111, #83, #305, #886, #706 ) ) ;
#878 = ORIENTED_EDGE ( 'NONE', *, *, #758, .T. ) ;
#879 = DIRECTION ( 'NONE',  ( 0.000000000000000000, 0.000000000000000000, -1.000000000000000000 ) ) ;
#880 = DIRECTION ( 'NONE',  ( -0.000000000000000000, -0.000000000000000000, -1.000000000000000000 ) ) ;
#881 = AXIS2_PLACEMENT_3D ( 'NONE', #786, #719, #301 ) ;
#882 = ORIENTED_EDGE ( 'NONE', *, *, #744, .T. ) ;
#883 = CIRCLE ( 'NONE', #565, 2.100000000000000977 ) ;
#884 = ORIENTED_EDGE ( 'NONE', *, *, #427, .T. ) ;
#885 = FACE_OUTER_BOUND ( 'NONE', #670, .T. ) ;
#886 = ORIENTED_EDGE ( 'NONE', *, *, #239, .T. ) ;
#887 = ORIENTED_EDGE ( 'NONE', *, *, #731, .F. ) ;
#888 = AXIS2_PLACEMENT_3D ( 'NONE', #454, #365, #668 ) ;
#889 = AXIS2_PLACEMENT_3D ( 'NONE', #433, #708, #417 ) ;
#890 = EDGE_CURVE ( 'NONE', #52, #512, #847, .T. ) ;
#891 = CARTESIAN_POINT ( 'NONE',  ( 1.387778780781445676E-14, 40.63047254402866315, -3.363485083149562183 ) ) ;
#892 = DIRECTION ( 'NONE',  ( -1.000000000000000000, 0.000000000000000000, 0.000000000000000000 ) ) ;
#893 = CARTESIAN_POINT ( 'NONE',  ( 19.05000000000000071, 1.904999999999999361, -10.31000000000000050 ) ) ;
#894 = LINE ( 'NONE', #358, #109 ) ;
#895 = ORIENTED_EDGE ( 'NONE', *, *, #323, .F. ) ;
#896 = EDGE_LOOP ( 'NONE', ( #376, #340, #278, #155 ) ) ;
#897 = CYLINDRICAL_SURFACE ( 'NONE', #179, 2.100000000000000977 ) ;
#898 = CARTESIAN_POINT ( 'NONE',  ( 0.000000000000000000, 1.904999999999999361, -8.404999999999999361 ) ) ;
#899 = CIRCLE ( 'NONE', #514, 2.100000000000000977 ) ;
#900 = VERTEX_POINT ( 'NONE', #575 ) ;
#901 = DIRECTION ( 'NONE',  ( 1.000000000000000000, 0.000000000000000000, 0.000000000000000000 ) ) ;
ENDSEC;
END-ISO-10303-21;
